{
.appVersion = "1064";
DisplayStrings = (
"the quick brown fox jumps over the lazy dog c/oe ur a/fl n/f_f_i.liga/fi llea/f_k.liga \012akfktottobor \012kufote\012o/f_h.liga or\012/f_f_l.liga/f_f.liga or",
" ",
"Apple Brown Coconut Dog Elephant Frog Gargantua Hawai Iwak",
"(",
")"
);
date = "2017-10-13 07:30:52 +0000";
familyName = Baskerwille;
featurePrefixes = (
{
automatic = 1;
code = "languagesystem DFLT dflt;\012";
name = Languagesystems;
}
);
features = (
{
automatic = 1;
code = "feature ccmp;\012";
name = aalt;
},
{
automatic = 1;
code = "lookup ccmp_Other_1 {\012	@CombiningTopAccents = [dotaccentcomb];\012	sub [i j]' @CombiningTopAccents by [idotless jdotless];\012} ccmp_Other_1;\012";
name = ccmp;
},
{
automatic = 1;
code = "sub f f i by f_f_i.liga;\012sub f f l by f_f_l.liga;\012sub f f by f_f.liga;\012sub f h by f_h.liga;\012sub f k by f_k.liga;\012sub f i by fi;\012sub f l by fl;\012";
name = liga;
}
);
fontMaster = (
{
alignmentZones = (
"{710, 10}",
"{440, 14}",
"{0, -14}",
"{-280, -10}"
);
ascender = 710;
capHeight = 710;
descender = -280;
id = "9372F035-DA38-4B54-966C-CEBA9B53DD02";
italicAngle = 20;
userData = {
GSCornerRadius = 5;
};
verticalStems = (
90,
70
);
xHeight = 440;
}
);
glyphs = (
{
glyphname = A;
lastChange = "2017-10-18 15:37:54 +0000";
layers = (
{
associatedMasterId = "9372F035-DA38-4B54-966C-CEBA9B53DD02";
guideLines = (
{
angle = 90;
position = "{559, 480}";
}
);
layerId = "51A6B76C-585B-4417-B535-5BA68FE8A5F7";
name = "Oct 18 17, 17:06";
paths = (
{
closed = 1;
nodes = (
"176 -3 LINE",
"185 22 LINE",
"166 24 LINE SMOOTH",
"99 31 OFFCURVE",
"81 51 OFFCURVE",
"112 97 CURVE SMOOTH",
"497 660 LINE",
"490 657 LINE",
"483 116 LINE SMOOTH",
"482 44 OFFCURVE",
"447 32 OFFCURVE",
"387 24 CURVE SMOOTH",
"366 22 LINE",
"357 -3 LINE",
"502 0 LINE",
"644 -3 LINE",
"653 22 LINE",
"634 24 LINE SMOOTH",
"559 32 OFFCURVE",
"561 59 OFFCURVE",
"561 114 CURVE SMOOTH",
"559 719 LINE",
"490 693 LINE",
"86 112 LINE SMOOTH",
"48 58 OFFCURVE",
"37 31 OFFCURVE",
"-35 24 CURVE SMOOTH",
"-56 22 LINE",
"-65 -3 LINE",
"58 0 LINE"
);
},
{
closed = 1;
nodes = (
"487 273 LINE",
"500 299 LINE",
"223 299 LINE",
"210 273 LINE"
);
}
);
width = 703;
},
{
guideLines = (
{
angle = 90;
position = "{539, 480}";
}
);
layerId = "9372F035-DA38-4B54-966C-CEBA9B53DD02";
paths = (
{
closed = 1;
nodes = (
"517 724 LINE",
"463 683 LINE",
"66 112 LINE SMOOTH",
"28 58 OFFCURVE",
"17 31 OFFCURVE",
"-55 24 CURVE SMOOTH",
"-76 22 LINE",
"-85 -3 LINE",
"38 0 LINE",
"156 -3 LINE",
"165 22 LINE",
"146 24 LINE SMOOTH",
"79 31 OFFCURVE",
"61 51 OFFCURVE",
"92 97 CURVE SMOOTH",
"469 649 LINE",
"452 657 LINE",
"445 116 LINE SMOOTH",
"444 44 OFFCURVE",
"409 30 OFFCURVE",
"349 24 CURVE SMOOTH",
"328 22 LINE",
"319 -3 LINE",
"464 0 LINE",
"606 -3 LINE",
"615 22 LINE",
"596 24 LINE SMOOTH",
"521 32 OFFCURVE",
"523 59 OFFCURVE",
"523 114 CURVE SMOOTH",
"520 724 LINE"
);
},
{
closed = 1;
nodes = (
"467 273 LINE",
"480 299 LINE",
"203 299 LINE",
"190 273 LINE"
);
}
);
width = 643;
}
);
unicode = 0041;
},
{
glyphname = B;
lastChange = "2017-10-18 15:37:54 +0000";
layers = (
{
background = {
components = (
{
name = I;
transform = "{1, 0, 0, 1, 28, 0}";
}
);
};
components = (
{
name = "_part-demiserif";
transform = "{1, 0, 0, 1, 40, 0}";
},
{
name = "_part-demiserif";
transform = "{1, 0, -0.72794, -1, 298, 710}";
}
);
layerId = "9372F035-DA38-4B54-966C-CEBA9B53DD02";
paths = (
{
closed = 1;
nodes = (
"248 397 LINE",
"385 397 LINE SMOOTH",
"502 397 OFFCURVE",
"584 465 OFFCURVE",
"584 565 CURVE SMOOTH",
"584 647 OFFCURVE",
"519 687 OFFCURVE",
"408 685 CURVE SMOOTH",
"354 684 LINE",
"363 710 LINE",
"428 711 LINE SMOOTH",
"566 713 OFFCURVE",
"664 676 OFFCURVE",
"664 566 CURVE SMOOTH",
"664 424 OFFCURVE",
"499 372 OFFCURVE",
"374 372 CURVE SMOOTH",
"237 372 LINE"
);
},
{
closed = 1;
nodes = (
"189 115 LINE",
"161 44 OFFCURVE",
"189 26 OFFCURVE",
"256 26 CURVE SMOOTH",
"412 26 OFFCURVE",
"530 115 OFFCURVE",
"530 241 CURVE SMOOTH",
"530 327 OFFCURVE",
"486 374 OFFCURVE",
"359 374 CURVE",
"366 388 LINE",
"515 388 OFFCURVE",
"610 335 OFFCURVE",
"610 238 CURVE SMOOTH",
"610 75 OFFCURVE",
"464 0 OFFCURVE",
"263 0 CURVE SMOOTH",
"120 0 LINE"
);
},
{
closed = 1;
nodes = (
"147 0 LINE",
"72 0 LINE",
"330 710 LINE",
"405 710 LINE"
);
}
);
width = 638;
}
);
leftMetricsKey = H;
unicode = 0042;
},
{
glyphname = C;
lastChange = "2017-10-18 15:37:54 +0000";
layers = (
{
background = {
components = (
{
name = G;
transform = "{1, 0, 0, 1, 7, 0}";
}
);
};
guideLines = (
{
angle = 70;
position = "{663, 240}";
}
);
layerId = "9372F035-DA38-4B54-966C-CEBA9B53DD02";
paths = (
{
closed = 1;
nodes = (
"782 689 LINE",
"740 589 LINE",
"702 485 LINE",
"681 485 LINE",
"705 620 OFFCURVE",
"643 690 OFFCURVE",
"543 690 CURVE SMOOTH",
"362 690 OFFCURVE",
"172 462 OFFCURVE",
"172 234 CURVE SMOOTH",
"172 103 OFFCURVE",
"228 18 OFFCURVE",
"340 18 CURVE SMOOTH",
"457 18 OFFCURVE",
"586 126 OFFCURVE",
"644 247 CURVE",
"665 247 LINE",
"615 115 LINE",
"579 8 LINE",
"558 8 LINE",
"560 30 OFFCURVE",
"560 63 OFFCURVE",
"543 63 CURVE SMOOTH",
"523 63 OFFCURVE",
"454 -13 OFFCURVE",
"317 -13 CURVE SMOOTH",
"196 -13 OFFCURVE",
"89 58 OFFCURVE",
"89 208 CURVE SMOOTH",
"89 468 OFFCURVE",
"293 720 OFFCURVE",
"527 720 CURVE SMOOTH",
"653 720 OFFCURVE",
"694 646 OFFCURVE",
"720 646 CURVE SMOOTH",
"734 646 OFFCURVE",
"745 672 OFFCURVE",
"755 689 CURVE"
);
}
);
width = 706;
}
);
leftMetricsKey = O;
unicode = 0043;
},
{
glyphname = D;
lastChange = "2017-10-18 15:37:54 +0000";
layers = (
{
background = {
components = (
{
name = B;
}
);
};
components = (
{
name = "_part-demiserif";
transform = "{1, 0, 0, 1, 40, 0}";
},
{
name = "_part-demiserif";
transform = "{1, 0, -0.72794, -1, 298, 710}";
}
);
guideLines = (
{
angle = 270;
position = "{2919, 356}";
}
);
layerId = "9372F035-DA38-4B54-966C-CEBA9B53DD02";
paths = (
{
closed = 1;
nodes = (
"198 140 LINE",
"155 24 OFFCURVE",
"222 26 OFFCURVE",
"263 26 CURVE SMOOTH",
"297 26 LINE SMOOTH",
"545 26 OFFCURVE",
"722 219 OFFCURVE",
"722 440 CURVE SMOOTH",
"722 588 OFFCURVE",
"654 689 OFFCURVE",
"435 684 CURVE SMOOTH",
"342 682 LINE",
"343 709 LINE",
"452 713 LINE SMOOTH",
"674 721 OFFCURVE",
"802 623 OFFCURVE",
"802 455 CURVE SMOOTH",
"802 231 OFFCURVE",
"627 0 OFFCURVE",
"296 0 CURVE SMOOTH",
"130 0 LINE"
);
},
{
closed = 1;
nodes = (
"147 0 LINE",
"72 0 LINE",
"330 710 LINE",
"405 710 LINE"
);
}
);
width = 785;
},
{
associatedMasterId = "9372F035-DA38-4B54-966C-CEBA9B53DD02";
components = (
{
name = "_part-demiserif";
transform = "{1, 0, 0, 1, 40, 0}";
},
{
name = "_part-demiserif";
transform = "{1, 0, -0.72794, -1, 298, 710}";
}
);
guideLines = (
{
angle = 270;
position = "{2919, 356}";
}
);
layerId = "B67EAFDB-39EE-4988-A502-153B91EA355B";
name = "Oct 18 17, 16:23";
paths = (
{
closed = 1;
nodes = (
"198 140 LINE",
"155 24 OFFCURVE",
"222 19 OFFCURVE",
"263 19 CURVE SMOOTH",
"308 19 LINE SMOOTH",
"545 19 OFFCURVE",
"722 200 OFFCURVE",
"722 428 CURVE SMOOTH",
"722 572 OFFCURVE",
"640 677 OFFCURVE",
"453 682 CURVE SMOOTH",
"342 685 LINE",
"343 709 LINE",
"457 711 LINE SMOOTH",
"717 716 OFFCURVE",
"802 600 OFFCURVE",
"802 416 CURVE SMOOTH",
"802 198 OFFCURVE",
"627 -15 OFFCURVE",
"323 -6 CURVE SMOOTH",
"130 0 LINE"
);
},
{
closed = 1;
nodes = (
"147 0 LINE",
"72 0 LINE",
"330 710 LINE",
"405 710 LINE"
);
}
);
width = 793;
}
);
leftMetricsKey = H;
rightMetricsKey = O;
unicode = 0044;
},
{
glyphname = E;
lastChange = "2017-10-18 15:37:54 +0000";
layers = (
{
background = {
components = (
{
name = I;
transform = "{1, 0, 0, 1, 28, 0}";
}
);
};
components = (
{
name = "_part-demiserif";
transform = "{1, 0, 0, 1, 40, 0}";
},
{
name = "_part-demiserif";
transform = "{1, 0, -0.72794, -1, 298, 710}";
}
);
layerId = "9372F035-DA38-4B54-966C-CEBA9B53DD02";
paths = (
{
closed = 1;
nodes = (
"479 388 LINE",
"470 362 LINE",
"254 362 LINE",
"263 388 LINE"
);
},
{
closed = 0;
nodes = (
"284 377 LINE"
);
},
{
closed = 1;
nodes = (
"574 508 LINE",
"523 371 LINE",
"474 226 LINE",
"449 226 LINE",
"486 328 OFFCURVE",
"470 362 OFFCURVE",
"427 362 CURVE",
"436 388 LINE",
"479 388 OFFCURVE",
"506 399 OFFCURVE",
"549 508 CURVE"
);
},
{
closed = 1;
nodes = (
"378 710 LINE",
"708 709 LINE",
"706 649 LINE",
"705 526 LINE",
"680 526 LINE",
"680 615 OFFCURVE",
"651 685 OFFCURVE",
"555 685 CURVE SMOOTH",
"391 685 LINE"
);
},
{
closed = 1;
nodes = (
"213 173 LINE",
"169 62 OFFCURVE",
"191 23 OFFCURVE",
"279 24 CURVE SMOOTH",
"417 25 LINE SMOOTH",
"533 26 OFFCURVE",
"583 90 OFFCURVE",
"635 210 CURVE",
"660 210 LINE",
"610 74 LINE",
"586 0 LINE",
"145 0 LINE"
);
},
{
closed = 1;
nodes = (
"151 0 LINE",
"72 0 LINE",
"330 710 LINE",
"405 710 LINE"
);
}
);
width = 676;
}
);
leftMetricsKey = H;
unicode = 0045;
},
{
glyphname = F;
lastChange = "2017-10-18 15:37:54 +0000";
layers = (
{
backgroundImage = {
crop = "{{1429.818, 1020}, {229.091, 360}}";
imagePath = "Workshop Baskerville/1878 Limprimerie Berger Levrault Notice historique/Romain/JACOB-notice-187504.jpg";
locked = "1";
transform = "{2.612, 0, 3.669, 2.75, -8295, -3085}";
};
layerId = "9372F035-DA38-4B54-966C-CEBA9B53DD02";
paths = (
{
closed = 1;
nodes = (
"376 710 LINE",
"695 709 LINE",
"695 526 LINE",
"670 526 LINE",
"670 615 OFFCURVE",
"641 685 OFFCURVE",
"545 685 CURVE SMOOTH",
"389 685 LINE"
);
},
{
closed = 1;
nodes = (
"457 358 LINE",
"448 332 LINE",
"242 332 LINE",
"251 358 LINE"
);
},
{
closed = 0;
nodes = (
"282 377 LINE"
);
},
{
closed = 1;
nodes = (
"552 478 LINE",
"497 341 LINE",
"452 196 LINE",
"427 196 LINE",
"464 298 OFFCURVE",
"448 332 OFFCURVE",
"405 332 CURVE",
"414 358 LINE",
"457 358 OFFCURVE",
"484 369 OFFCURVE",
"527 478 CURVE"
);
},
{
closed = 1;
nodes = (
"145 0 LINE",
"71 0 LINE",
"329 710 LINE",
"403 710 LINE"
);
},
{
closed = 1;
nodes = (
"178 92 LINE",
"162 37 OFFCURVE",
"166 31 OFFCURVE",
"258 24 CURVE SMOOTH",
"277 22 LINE",
"268 -3 LINE",
"111 0 LINE",
"-34 -3 LINE",
"-25 22 LINE",
"-4 24 LINE SMOOTH",
"68 32 OFFCURVE",
"85 37 OFFCURVE",
"121 137 CURVE"
);
},
{
closed = 1;
nodes = (
"296 618 LINE",
"315 673 OFFCURVE",
"305 679 OFFCURVE",
"236 686 CURVE SMOOTH",
"217 688 LINE",
"226 713 LINE",
"368 710 LINE",
"326 596 LINE"
);
}
);
width = 609;
},
{
associatedMasterId = "9372F035-DA38-4B54-966C-CEBA9B53DD02";
backgroundImage = {
crop = "{{1429.818, 1020}, {229.091, 360}}";
imagePath = "Workshop Baskerville/1878 Limprimerie Berger Levrault Notice historique/Romain/JACOB-notice-187504.jpg";
locked = "1";
transform = "{2.75, 0, 0, 2.75, -3932, -3085}";
};
hints = (
{
origin = "{0, 1}";
type = Corner;
name = "_corner-cap";
},
{
origin = "{0, 0}";
scale = "{-1, 1}";
type = Corner;
name = "_corner-cap";
options = 1;
},
{
origin = "{0, 14}";
type = Corner;
name = "_corner-cap";
}
);
layerId = "9819B011-9A5C-4824-A6C8-3CFD034EFA7B";
name = "Oct 16 17, 14:35";
paths = (
{
closed = 1;
nodes = (
"169 0 LINE",
"169 710 LINE",
"225 710 LINE",
"605 709 LINE",
"617 548 LINE",
"596 548 LINE",
"585 683 OFFCURVE",
"479 687 OFFCURVE",
"413 687 CURVE SMOOTH",
"356 687 LINE SMOOTH",
"275 687 OFFCURVE",
"245 674 OFFCURVE",
"245 597 CURVE SMOOTH",
"244 345 LINE",
"244 0 LINE"
);
},
{
closed = 1;
nodes = (
"415 378 LINE",
"415 353 LINE",
"219 353 LINE",
"219 378 LINE"
);
},
{
closed = 1;
nodes = (
"465 499 LINE",
"465 217 LINE",
"443 217 LINE",
"443 319 OFFCURVE",
"415 353 OFFCURVE",
"372 353 CURVE",
"372 378 LINE",
"415 378 OFFCURVE",
"438 390 OFFCURVE",
"443 499 CURVE"
);
}
);
width = 630;
}
);
leftMetricsKey = R;
unicode = 0046;
},
{
glyphname = G;
lastChange = "2017-10-18 15:37:54 +0000";
layers = (
{
background = {
components = (
{
name = C;
transform = "{1, 0, 0, 1, 8, 0}";
}
);
};
layerId = "9372F035-DA38-4B54-966C-CEBA9B53DD02";
paths = (
{
closed = 1;
nodes = (
"755 689 LINE",
"746 669 OFFCURVE",
"733 646 OFFCURVE",
"718 646 CURVE SMOOTH",
"694 646 OFFCURVE",
"652 720 OFFCURVE",
"533 720 CURVE SMOOTH",
"274 720 OFFCURVE",
"88 446 OFFCURVE",
"88 206 CURVE SMOOTH",
"88 89 OFFCURVE",
"163 -13 OFFCURVE",
"324 -13 CURVE SMOOTH",
"473 -13 OFFCURVE",
"539 82 OFFCURVE",
"582 82 CURVE SMOOTH",
"597 82 OFFCURVE",
"619 58 OFFCURVE",
"632 38 CURVE",
"652 58 LINE",
"643 70 OFFCURVE",
"620 87 OFFCURVE",
"632 120 CURVE SMOOTH",
"666 213 LINE SMOOTH",
"676 240 OFFCURVE",
"698 262 OFFCURVE",
"731 266 CURVE SMOOTH",
"768 270 LINE",
"776 290 LINE",
"645 286 LINE",
"503 290 LINE",
"495 270 LINE",
"540 266 LINE SMOOTH",
"574 263 OFFCURVE",
"593 245 OFFCURVE",
"582 213 CURVE SMOOTH",
"558 144 LINE SMOOTH",
"537 85 OFFCURVE",
"436 17 OFFCURVE",
"342 17 CURVE SMOOTH",
"240 17 OFFCURVE",
"173 87 OFFCURVE",
"173 238 CURVE SMOOTH",
"173 443 OFFCURVE",
"347 690 OFFCURVE",
"541 690 CURVE SMOOTH",
"654 690 OFFCURVE",
"704 608 OFFCURVE",
"680 485 CURVE",
"702 485 LINE",
"740 590 LINE",
"782 689 LINE"
);
}
);
width = 744;
},
{
associatedMasterId = "9372F035-DA38-4B54-966C-CEBA9B53DD02";
background = {
components = (
{
name = C;
transform = "{1, 0, 0, 1, -9, 0}";
}
);
};
layerId = "39EDC908-2ABE-4C94-967C-9E3E59735B5A";
name = "Oct 18 17, 16:58";
paths = (
{
closed = 1;
nodes = (
"474 290 LINE",
"466 270 LINE",
"511 266 LINE SMOOTH",
"545 263 OFFCURVE",
"564 245 OFFCURVE",
"553 213 CURVE SMOOTH",
"529 144 LINE SMOOTH",
"503 68 OFFCURVE",
"407 16 OFFCURVE",
"319 16 CURVE SMOOTH",
"221 16 OFFCURVE",
"162 86 OFFCURVE",
"162 207 CURVE SMOOTH",
"162 445 OFFCURVE",
"354 693 OFFCURVE",
"540 693 CURVE SMOOTH",
"643 693 OFFCURVE",
"692 623 OFFCURVE",
"661 485 CURVE",
"681 485 LINE",
"753 696 LINE",
"732 695 LINE",
"722 674 OFFCURVE",
"713 662 OFFCURVE",
"702 662 CURVE SMOOTH",
"691 662 OFFCURVE",
"684 669 OFFCURVE",
"669 680 CURVE SMOOTH",
"645 698 OFFCURVE",
"605 720 OFFCURVE",
"544 720 CURVE SMOOTH",
"279 720 OFFCURVE",
"78 446 OFFCURVE",
"78 206 CURVE SMOOTH",
"78 89 OFFCURVE",
"155 -13 OFFCURVE",
"309 -13 CURVE SMOOTH",
"419 -13 OFFCURVE",
"471 35 OFFCURVE",
"517 63 CURVE SMOOTH",
"530 71 OFFCURVE",
"537 77 OFFCURVE",
"553 77 CURVE SMOOTH",
"568 77 OFFCURVE",
"590 58 OFFCURVE",
"603 38 CURVE",
"623 58 LINE",
"614 70 OFFCURVE",
"591 87 OFFCURVE",
"603 120 CURVE SMOOTH",
"637 213 LINE SMOOTH",
"647 240 OFFCURVE",
"669 262 OFFCURVE",
"702 266 CURVE SMOOTH",
"739 270 LINE",
"747 290 LINE",
"616 286 LINE"
);
}
);
width = 715;
}
);
leftMetricsKey = O;
unicode = 0047;
},
{
glyphname = H;
lastChange = "2017-10-18 15:37:54 +0000";
layers = (
{
backgroundImage = {
crop = "{{1328.244, 1380.534}, {343.511, 377.863}}";
imagePath = "Workshop Baskerville/1878 Limprimerie Berger Levrault Notice historique/Romain/JACOB-notice-187537.jpg";
locked = "1";
transform = "{2.428, -0.046, 3.539, 2.62, -8938, -3827}";
};
components = (
{
name = "_part-serif";
transform = "{1, 0, 0, 1, 36, 0}";
},
{
name = "_part-serif";
transform = "{-1, 0, 0, -1, 440, 710}";
},
{
name = "_part-serif";
transform = "{1, 0, 0, 1, 480, 0}";
},
{
name = "_part-serif";
transform = "{-1, 0, 0, -1, 884, 710}";
}
);
guideLines = (
{
angle = 70;
position = "{741, 355}";
},
{
angle = 70;
position = "{296, 353}";
},
{
angle = 70;
position = "{219, 355}";
}
);
layerId = "9372F035-DA38-4B54-966C-CEBA9B53DD02";
paths = (
{
closed = 1;
nodes = (
"647 345 LINE",
"264 345 LINE",
"275 376 LINE",
"658 376 LINE"
);
},
{
closed = 1;
nodes = (
"147 0 LINE",
"71 0 LINE",
"329 709 LINE",
"405 709 LINE"
);
},
{
closed = 1;
nodes = (
"591 0 LINE",
"515 0 LINE",
"773 709 LINE",
"849 709 LINE"
);
}
);
width = 822;
},
{
associatedMasterId = "9372F035-DA38-4B54-966C-CEBA9B53DD02";
backgroundImage = {
crop = "{{1328.244, 1380.534}, {343.511, 377.863}}";
imagePath = "Workshop Baskerville/1878 Limprimerie Berger Levrault Notice historique/Romain/JACOB-notice-187537.jpg";
locked = "1";
transform = "{2.62, -0.046, 0.046, 2.62, -3550, -3827}";
};
hints = (
{
origin = "{1, 1}";
type = Corner;
name = "_corner-bdc";
},
{
origin = "{1, 2}";
scale = "{1, -1}";
type = Corner;
name = "_corner-bdc";
}
);
layerId = "D4414EA3-B7D5-445B-9354-C98751CD83C0";
name = bdc;
paths = (
{
closed = 1;
nodes = (
"656 354 LINE",
"656 384 LINE",
"244 384 LINE",
"244 354 LINE"
);
},
{
closed = 1;
nodes = (
"729 614 LINE",
"729 0 LINE",
"659 0 LINE",
"659 614 LINE"
);
}
);
width = 900;
},
{
associatedMasterId = "9372F035-DA38-4B54-966C-CEBA9B53DD02";
backgroundImage = {
crop = "{{1328.244, 1380.534}, {343.511, 377.863}}";
imagePath = "Workshop Baskerville/1878 Limprimerie Berger Levrault Notice historique/Romain/JACOB-notice-187537.jpg";
locked = "1";
transform = "{2.62, -0.046, 0.046, 2.62, -3550, -3827}";
};
hints = (
{
origin = "{1, 2}";
scale = "{0.9, -1}";
type = Corner;
name = "_corner-cap";
options = 1;
},
{
origin = "{1, 1}";
scale = "{0.9, 1}";
type = Corner;
name = "_corner-cap";
},
{
origin = "{0, 2}";
scale = "{0.9, -1}";
type = Corner;
name = "_corner-cap";
options = 1;
},
{
origin = "{0, 1}";
scale = "{0.9, 1}";
type = Corner;
name = "_corner-cap";
},
{
origin = "{1, 3}";
scale = "{0.9, 1}";
type = Corner;
name = "_corner-cap";
},
{
origin = "{1, 0}";
scale = "{-0.9, 1}";
type = Corner;
name = "_corner-cap";
options = 1;
},
{
origin = "{0, 3}";
scale = "{0.9, 1}";
type = Corner;
name = "_corner-cap";
},
{
origin = "{0, 0}";
scale = "{-0.9, 1}";
type = Corner;
name = "_corner-cap";
options = 1;
}
);
layerId = "BA4FE908-487B-4283-9277-3D1B1A7BDAC7";
name = "Oct 16 17, 13:57";
paths = (
{
closed = 1;
nodes = (
"732 0 LINE",
"731 710 LINE",
"656 710 LINE",
"657 0 LINE"
);
},
{
closed = 1;
nodes = (
"256 0 LINE",
"255 710 LINE",
"180 710 LINE",
"181 0 LINE"
);
},
{
closed = 1;
nodes = (
"660 354 LINE",
"660 384 LINE",
"248 384 LINE",
"248 354 LINE"
);
}
);
width = 900;
}
);
unicode = 0048;
},
{
glyphname = I;
lastChange = "2017-10-18 15:37:54 +0000";
layers = (
{
backgroundImage = {
crop = "{{1036.296, 1301.852}, {222.222, 366.667}}";
imagePath = "Workshop Baskerville/1878 Limprimerie Berger Levrault Notice historique/Romain/IMG_3190.JPG";
locked = "1";
transform = "{2.545, -0.029, 3.657, 2.72, -8299, -3787}";
};
components = (
{
name = "_part-serif";
transform = "{1, 0, 0, 1, 29, 0}";
},
{
name = "_part-serif";
transform = "{-1, 0, 0, -1, 433, 710}";
}
);
layerId = "9372F035-DA38-4B54-966C-CEBA9B53DD02";
paths = (
{
closed = 1;
nodes = (
"140 0 LINE",
"64 0 LINE",
"322 709 LINE",
"398 709 LINE"
);
}
);
width = 364;
}
);
unicode = 0049;
},
{
glyphname = J;
lastChange = "2017-10-18 15:37:54 +0000";
layers = (
{
background = {
components = (
{
name = "_part-serif";
transform = "{1, 0, 0, 1, 125, 0}";
}
);
paths = (
{
closed = 1;
nodes = (
"236 0 LINE",
"160 0 LINE",
"418 709 LINE",
"494 709 LINE"
);
}
);
};
backgroundImage = {
crop = "{{217.96, 211.469}, {9.121, 15.05}}";
imagePath = "../../../../1788-89 Epreuves des caracteres de Rolland et Jacob/p19.jpg";
locked = "1";
transform = "{69.67, 0, 97.849, 66.669, -8627, -14382}";
};
components = (
{
name = "_part-serif";
transform = "{-1, 0, 0, -1, 529, 710}";
}
);
layerId = "9372F035-DA38-4B54-966C-CEBA9B53DD02";
paths = (
{
closed = 1;
nodes = (
"453 598 LINE",
"290 147 LINE SMOOTH",
"259 60 OFFCURVE",
"237 -14 OFFCURVE",
"107 -14 CURVE SMOOTH",
"34 -14 OFFCURVE",
"-33 14 OFFCURVE",
"-33 73 CURVE SMOOTH",
"-33 100 OFFCURVE",
"-14 120 OFFCURVE",
"14 120 CURVE SMOOTH",
"49 120 OFFCURVE",
"59 93 OFFCURVE",
"65 63 CURVE SMOOTH",
"72 33 OFFCURVE",
"74 9 OFFCURVE",
"111 9 CURVE SMOOTH",
"166 9 OFFCURVE",
"193 94 OFFCURVE",
"239 217 CURVE SMOOTH",
"385 618 LINE"
);
}
);
width = 467;
}
);
rightMetricsKey = H;
unicode = 004A;
},
{
glyphname = K;
lastChange = "2017-10-18 15:37:54 +0000";
layers = (
{
associatedMasterId = "9372F035-DA38-4B54-966C-CEBA9B53DD02";
background = {
components = (
{
name = I;
transform = "{1, 0, 0, 1, 340, 0}";
}
);
};
components = (
{
name = I;
}
);
layerId = "F4F2585B-BE30-4C0B-8C3F-928C03B9E448";
name = "Oct 18 17, 16:56";
paths = (
{
closed = 1;
nodes = (
"505 44 OFFCURVE",
"535 31 OFFCURVE",
"595 25 CURVE SMOOTH",
"616 23 LINE",
"611 -2 LINE",
"480 1 LINE",
"322 -2 LINE",
"329 23 LINE",
"348 25 LINE SMOOTH",
"427 33 OFFCURVE",
"428 60 OFFCURVE",
"420 94 CURVE SMOOTH",
"351 387 LINE",
"413 429 LINE",
"490 105 LINE SMOOTH"
);
},
{
closed = 1;
nodes = (
"358 376 LINE",
"229 314 LINE",
"220 342 LINE",
"347 401 LINE",
"623 617 LINE SMOOTH",
"649 638 OFFCURVE",
"664 679 OFFCURVE",
"597 686 CURVE SMOOTH",
"578 688 LINE",
"587 713 LINE",
"705 710 LINE",
"818 713 LINE",
"809 688 LINE",
"756 683 OFFCURVE",
"702 648 OFFCURVE",
"649 605 CURVE SMOOTH"
);
}
);
width = 712;
},
{
background = {
components = (
{
name = I;
transform = "{1, 0, 0, 1, 367, 0}";
}
);
};
components = (
{
name = I;
transform = "{1, 0, 0, 1, 7, 0}";
}
);
layerId = "9372F035-DA38-4B54-966C-CEBA9B53DD02";
paths = (
{
closed = 1;
nodes = (
"522 41 OFFCURVE",
"552 31 OFFCURVE",
"612 25 CURVE SMOOTH",
"633 23 LINE",
"628 -2 LINE",
"497 1 LINE",
"339 -2 LINE",
"346 23 LINE",
"365 25 LINE SMOOTH",
"444 33 OFFCURVE",
"445 61 OFFCURVE",
"438 94 CURVE SMOOTH",
"373 401 LINE",
"437 436 LINE",
"507 111 LINE SMOOTH"
);
},
{
closed = 1;
nodes = (
"208 269 LINE",
"221 310 LINE",
"577 561 LINE SMOOTH",
"668 625 OFFCURVE",
"681 679 OFFCURVE",
"614 686 CURVE SMOOTH",
"595 688 LINE",
"604 713 LINE",
"732 709 LINE",
"845 713 LINE",
"836 688 LINE",
"815 686 LINE SMOOTH",
"771 682 OFFCURVE",
"729 639 OFFCURVE",
"622 563 CURVE SMOOTH"
);
}
);
width = 689;
}
);
leftMetricsKey = H;
unicode = 004B;
},
{
glyphname = L;
lastChange = "2017-10-18 15:37:54 +0000";
layers = (
{
background = {
components = (
{
name = "_part-serif";
transform = "{1, 0, 0, 1, 51, 0}";
}
);
};
components = (
{
name = "_part-demiserif";
transform = "{1, 0, -0.72794, -1, 298, 710}";
},
{
name = "_part-serif";
transform = "{-1, 0, 0, -1, 440, 710}";
}
);
layerId = "9372F035-DA38-4B54-966C-CEBA9B53DD02";
paths = (
{
closed = 1;
nodes = (
"171 58 OFFCURVE",
"170 23 OFFCURVE",
"283 23 CURVE SMOOTH",
"358 23 LINE SMOOTH",
"474 22 OFFCURVE",
"547 88 OFFCURVE",
"599 210 CURVE",
"622 210 LINE",
"537 -3 LINE",
"72 0 LINE",
"330 710 LINE",
"404 710 LINE",
"208 161 LINE SMOOTH"
);
}
);
width = 625;
}
);
leftMetricsKey = H;
unicode = 004C;
},
{
glyphname = M;
lastChange = "2017-10-18 15:37:54 +0000";
layers = (
{
associatedMasterId = "9372F035-DA38-4B54-966C-CEBA9B53DD02";
background = {
paths = (
{
closed = 1;
nodes = (
"374 7 LINE",
"394 7 LINE",
"918 592 LINE",
"735 90 LINE SMOOTH",
"715 35 OFFCURVE",
"696 31 OFFCURVE",
"626 24 CURVE SMOOTH",
"605 22 LINE",
"596 -3 LINE",
"716 0 LINE",
"837 -3 LINE",
"846 22 LINE",
"827 24 LINE SMOOTH",
"762 31 OFFCURVE",
"747 36 OFFCURVE",
"776 116 CURVE SMOOTH",
"969 645 LINE",
"1000 673 OFFCURVE",
"1033 681 OFFCURVE",
"1083 686 CURVE SMOOTH",
"1103 688 LINE",
"1112 713 LINE",
"992 710 LINE",
"940 710 LINE",
"414 143 LINE",
"354 710 LINE",
"308 708 LINE",
"185 713 LINE",
"176 688 LINE",
"196 686 LINE SMOOTH",
"237 682 OFFCURVE",
"299 671 OFFCURVE",
"323 626 CURVE",
"317 691 LINE"
);
},
{
closed = 1;
nodes = (
"59 82 LINE",
"39 36 OFFCURVE",
"23 31 OFFCURVE",
"-46 24 CURVE SMOOTH",
"-67 22 LINE",
"-76 -3 LINE",
"65 0 LINE",
"208 -3 LINE",
"217 22 LINE",
"198 24 LINE SMOOTH",
"135 31 OFFCURVE",
"119 37 OFFCURVE",
"149 119 CURVE SMOOTH",
"348 663 LINE",
"282 689 LINE"
);
}
);
};
guideLines = (
{
position = "{649, 594}";
}
);
layerId = "7291BE39-A5E4-4A84-9F55-318B9B31926F";
name = "Oct 18 17, 16:52";
paths = (
{
closed = 1;
nodes = (
"905 610 LINE",
"951 654 OFFCURVE",
"1007 680 OFFCURVE",
"1043 683 CURVE SMOOTH",
"1064 685 LINE",
"1073 710 LINE",
"977 710 LINE",
"936 710 LINE",
"433 96 LINE",
"467 103 LINE",
"346 710 LINE",
"294 710 LINE",
"176 713 LINE",
"167 688 LINE",
"186 686 LINE SMOOTH",
"232 681 OFFCURVE",
"259 673 OFFCURVE",
"270 645 CURVE",
"78 116 LINE SMOOTH",
"48 36 OFFCURVE",
"30 31 OFFCURVE",
"-40 24 CURVE SMOOTH",
"-61 22 LINE",
"-70 -3 LINE",
"53 0 LINE",
"171 -3 LINE",
"180 22 LINE",
"161 24 LINE SMOOTH",
"96 31 OFFCURVE",
"80 35 OFFCURVE",
"100 90 CURVE SMOOTH",
"282 592 LINE",
"380 7 LINE",
"400 7 LINE",
"936 665 LINE"
);
},
{
closed = 1;
nodes = (
"904 663 LINE",
"707 119 LINE SMOOTH",
"677 37 OFFCURVE",
"656 30 OFFCURVE",
"589 24 CURVE SMOOTH",
"568 22 LINE",
"559 -3 LINE",
"704 0 LINE",
"843 -3 LINE",
"852 22 LINE",
"833 24 LINE SMOOTH",
"769 31 OFFCURVE",
"756 36 OFFCURVE",
"770 82 CURVE",
"989 689 LINE"
);
}
);
width = 931;
},
{
background = {
paths = (
{
closed = 1;
nodes = (
"336 666 LINE",
"366 7 LINE",
"396 7 LINE",
"922 633 LINE",
"921 673 LINE",
"704 90 LINE",
"746 116 LINE",
"963 710 LINE",
"907 710 LINE",
"389 90 LINE",
"400 79 LINE",
"372 710 LINE",
"304 710 LINE",
"35 0 LINE",
"111 0 LINE",
"365 673 LINE"
);
},
{
closed = 1;
nodes = (
"899 606 LINE",
"948 667 OFFCURVE",
"984 679 OFFCURVE",
"1053 686 CURVE SMOOTH",
"1073 688 LINE",
"1083 713 LINE",
"963 710 LINE"
);
},
{
closed = 1;
nodes = (
"704 90 LINE",
"681 35 OFFCURVE",
"662 31 OFFCURVE",
"591 24 CURVE SMOOTH",
"570 22 LINE",
"560 -3 LINE",
"680 0 LINE",
"801 -3 LINE",
"811 22 LINE",
"792 24 LINE SMOOTH",
"728 31 OFFCURVE",
"713 36 OFFCURVE",
"746 116 CURVE"
);
},
{
closed = 1;
nodes = (
"70 92 LINE",
"46 37 OFFCURVE",
"32 31 OFFCURVE",
"-43 24 CURVE SMOOTH",
"-64 22 LINE",
"-74 -3 LINE",
"67 0 LINE",
"210 -3 LINE",
"220 22 LINE",
"201 24 LINE SMOOTH",
"135 31 OFFCURVE",
"122 37 OFFCURVE",
"164 137 CURVE"
);
},
{
closed = 1;
nodes = (
"345 710 LINE",
"202 713 LINE",
"192 688 LINE",
"212 686 LINE SMOOTH",
"278 679 OFFCURVE",
"294 673 OFFCURVE",
"252 573 CURVE"
);
}
);
};
guideLines = (
{
angle = 70;
position = "{838, 551}";
}
);
layerId = "9372F035-DA38-4B54-966C-CEBA9B53DD02";
paths = (
{
closed = 1;
nodes = (
"642 0 LINE",
"718 0 LINE",
"926 710 LINE",
"858 710 LINE",
"411 79 LINE",
"430 90 LINE",
"363 710 LINE",
"307 710 LINE",
"92 116 LINE",
"115 90 LINE",
"322 673 LINE",
"292 633 LINE",
"362 7 LINE",
"392 7 LINE",
"862 666 LINE",
"838 673 LINE"
);
},
{
closed = 1;
nodes = (
"189 713 LINE",
"181 688 LINE",
"200 686 LINE SMOOTH",
"263 679 OFFCURVE",
"291 667 OFFCURVE",
"295 606 CURVE",
"307 710 LINE"
);
},
{
closed = 1;
nodes = (
"66 36 OFFCURVE",
"48 31 OFFCURVE",
"-21 24 CURVE SMOOTH",
"-42 22 LINE",
"-50 -3 LINE",
"73 0 LINE",
"191 -3 LINE",
"199 22 LINE",
"180 24 LINE SMOOTH",
"114 31 OFFCURVE",
"98 35 OFFCURVE",
"115 90 CURVE",
"92 116 LINE"
);
},
{
closed = 1;
nodes = (
"651 37 OFFCURVE",
"642 30 OFFCURVE",
"583 24 CURVE SMOOTH",
"562 22 LINE",
"554 -3 LINE",
"679 0 LINE",
"818 -3 LINE",
"826 22 LINE",
"807 24 LINE SMOOTH",
"737 31 OFFCURVE",
"729 37 OFFCURVE",
"745 92 CURVE",
"682 137 LINE"
);
},
{
closed = 1;
nodes = (
"909 673 OFFCURVE",
"929 679 OFFCURVE",
"1001 686 CURVE SMOOTH",
"1022 688 LINE",
"1030 713 LINE",
"885 710 LINE",
"878 573 LINE"
);
}
);
width = 909;
},
{
associatedMasterId = "9372F035-DA38-4B54-966C-CEBA9B53DD02";
guideLines = (
{
angle = 70;
position = "{838, 551}";
}
);
layerId = "9D70BC6C-1385-441F-946F-BF1DBBFDE1A7";
name = "Oct 18 17, 16:53";
paths = (
{
closed = 1;
nodes = (
"644 0 LINE",
"720 0 LINE",
"941 709 LINE",
"861 710 LINE",
"401 79 LINE",
"420 90 LINE",
"363 710 LINE",
"307 710 LINE",
"92 116 LINE",
"115 90 LINE",
"322 673 LINE",
"292 633 LINE",
"352 7 LINE",
"382 7 LINE",
"865 666 LINE",
"854 673 LINE"
);
},
{
closed = 1;
nodes = (
"189 713 LINE",
"181 688 LINE",
"200 686 LINE SMOOTH",
"263 679 OFFCURVE",
"291 667 OFFCURVE",
"295 606 CURVE",
"307 710 LINE"
);
},
{
closed = 1;
nodes = (
"66 36 OFFCURVE",
"48 31 OFFCURVE",
"-21 24 CURVE SMOOTH",
"-42 22 LINE",
"-50 -3 LINE",
"73 0 LINE",
"191 -3 LINE",
"199 22 LINE",
"180 24 LINE SMOOTH",
"114 31 OFFCURVE",
"98 35 OFFCURVE",
"115 90 CURVE",
"92 116 LINE"
);
},
{
closed = 1;
nodes = (
"656 37 OFFCURVE",
"639 31 OFFCURVE",
"568 24 CURVE SMOOTH",
"547 22 LINE",
"539 -3 LINE",
"684 0 LINE",
"823 -3 LINE",
"831 22 LINE",
"812 24 LINE SMOOTH",
"742 31 OFFCURVE",
"732 37 OFFCURVE",
"748 92 CURVE",
"687 137 LINE"
);
},
{
closed = 1;
nodes = (
"929 673 OFFCURVE",
"945 679 OFFCURVE",
"1017 686 CURVE SMOOTH",
"1038 688 LINE",
"1046 713 LINE",
"901 710 LINE",
"898 573 LINE"
);
}
);
width = 951;
}
);
unicode = 004D;
},
{
glyphname = N;
lastChange = "2017-10-18 15:37:54 +0000";
layers = (
{
background = {
paths = (
{
closed = 1;
nodes = (
"96 0 LINE",
"64 0 LINE",
"322 709 LINE",
"354 709 LINE"
);
},
{
closed = 1;
nodes = (
"129 92 LINE",
"110 37 OFFCURVE",
"120 31 OFFCURVE",
"189 24 CURVE SMOOTH",
"208 22 LINE",
"199 -3 LINE",
"104 0 LINE",
"-41 -3 LINE",
"-32 22 LINE",
"-11 24 LINE SMOOTH",
"61 32 OFFCURVE",
"78 37 OFFCURVE",
"114 137 CURVE"
);
},
{
closed = 1;
nodes = (
"289 618 LINE",
"308 673 OFFCURVE",
"298 679 OFFCURVE",
"229 686 CURVE SMOOTH",
"210 688 LINE",
"219 713 LINE",
"314 710 LINE",
"459 713 LINE",
"450 688 LINE",
"429 686 LINE SMOOTH",
"357 678 OFFCURVE",
"340 673 OFFCURVE",
"304 573 CURVE"
);
}
);
};
backgroundImage = {
crop = "{{1823, 1956.053}, {43.684, 52.105}}";
imagePath = "Workshop Baskerville/1878 Limprimerie Berger Levrault Notice historique/Images/B543956101_050370_0013.jpg";
locked = "1";
transform = "{18.05, 0, 25.351, 19, -464, 0}";
};
layerId = "9372F035-DA38-4B54-966C-CEBA9B53DD02";
paths = (
{
closed = 1;
nodes = (
"103 0 LINE",
"71 0 LINE",
"329 710 LINE",
"361 710 LINE"
);
},
{
closed = 1;
nodes = (
"136 92 LINE",
"117 37 OFFCURVE",
"127 31 OFFCURVE",
"196 24 CURVE SMOOTH",
"215 22 LINE",
"206 -3 LINE",
"89 0 LINE",
"-34 -3 LINE",
"-25 22 LINE",
"-4 24 LINE SMOOTH",
"68 31 OFFCURVE",
"85 37 OFFCURVE",
"121 137 CURVE"
);
},
{
closed = 1;
nodes = (
"319 604 LINE",
"299 655 OFFCURVE",
"276 682 OFFCURVE",
"236 686 CURVE SMOOTH",
"217 688 LINE",
"226 713 LINE",
"343 710 LINE"
);
},
{
closed = 1;
nodes = (
"361 710 LINE",
"608 82 LINE",
"554 0 LINE",
"308 631 LINE"
);
},
{
closed = 1;
nodes = (
"583 0 LINE",
"553 0 LINE",
"809 710 LINE",
"841 710 LINE"
);
},
{
closed = 1;
nodes = (
"776 618 LINE",
"795 673 OFFCURVE",
"785 679 OFFCURVE",
"716 686 CURVE SMOOTH",
"697 688 LINE",
"706 713 LINE",
"823 710 LINE",
"946 713 LINE",
"937 688 LINE",
"916 686 LINE SMOOTH",
"844 679 OFFCURVE",
"827 673 OFFCURVE",
"791 573 CURVE"
);
}
);
width = 774;
}
);
leftMetricsKey = H;
unicode = 004E;
},
{
glyphname = O;
lastChange = "2017-10-18 15:37:54 +0000";
layers = (
{
background = {
paths = (
{
closed = 1;
nodes = (
"546 692 CURVE SMOOTH",
"370 692 OFFCURVE",
"177 462 OFFCURVE",
"177 233 CURVE SMOOTH",
"177 94 OFFCURVE",
"242 12 OFFCURVE",
"355 12 CURVE SMOOTH",
"538 12 OFFCURVE",
"711 243 OFFCURVE",
"711 472 CURVE SMOOTH",
"711 611 OFFCURVE",
"647 692 OFFCURVE"
);
},
{
closed = 1;
nodes = (
"676 720 OFFCURVE",
"791 654 OFFCURVE",
"791 487 CURVE SMOOTH",
"791 233 OFFCURVE",
"607 -14 OFFCURVE",
"351 -14 CURVE SMOOTH",
"207 -14 OFFCURVE",
"97 52 OFFCURVE",
"97 221 CURVE SMOOTH",
"97 472 OFFCURVE",
"309 720 OFFCURVE",
"549 720 CURVE SMOOTH"
);
}
);
};
layerId = "9372F035-DA38-4B54-966C-CEBA9B53DD02";
paths = (
{
closed = 1;
nodes = (
"354 16 CURVE SMOOTH",
"536 16 OFFCURVE",
"708 245 OFFCURVE",
"708 472 CURVE SMOOTH",
"708 610 OFFCURVE",
"644 691 OFFCURVE",
"533 691 CURVE SMOOTH",
"352 691 OFFCURVE",
"180 462 OFFCURVE",
"180 234 CURVE SMOOTH",
"180 96 OFFCURVE",
"243 16 OFFCURVE"
);
},
{
closed = 1;
nodes = (
"212 -14 OFFCURVE",
"97 66 OFFCURVE",
"97 234 CURVE SMOOTH",
"97 473 OFFCURVE",
"281 720 OFFCURVE",
"537 720 CURVE SMOOTH",
"681 720 OFFCURVE",
"791 639 OFFCURVE",
"791 464 CURVE SMOOTH",
"791 234 OFFCURVE",
"599 -14 OFFCURVE",
"351 -14 CURVE SMOOTH"
);
}
);
width = 771;
},
{
associatedMasterId = "9372F035-DA38-4B54-966C-CEBA9B53DD02";
layerId = "CCD638FD-B68D-4905-B62C-484D58015A84";
name = "Oct 18 17, 16:58";
paths = (
{
closed = 1;
nodes = (
"99 84 OFFCURVE",
"99 248 CURVE SMOOTH",
"99 488 OFFCURVE",
"301 721 OFFCURVE",
"549 721 CURVE SMOOTH",
"714 721 OFFCURVE",
"802 622 OFFCURVE",
"802 458 CURVE SMOOTH",
"802 219 OFFCURVE",
"601 -11 OFFCURVE",
"352 -11 CURVE SMOOTH",
"189 -11 OFFCURVE"
);
},
{
closed = 1;
nodes = (
"243 16 OFFCURVE",
"359 16 CURVE SMOOTH",
"554 16 OFFCURVE",
"724 271 OFFCURVE",
"724 493 CURVE SMOOTH",
"724 616 OFFCURVE",
"659 694 OFFCURVE",
"543 694 CURVE SMOOTH",
"347 694 OFFCURVE",
"177 435 OFFCURVE",
"177 214 CURVE SMOOTH",
"177 91 OFFCURVE"
);
}
);
width = 787;
}
);
unicode = 004F;
},
{
glyphname = P;
lastChange = "2017-10-18 15:37:54 +0000";
layers = (
{
backgroundImage = {
crop = "{{1321.132, 1329.434}, {266.038, 373.585}}";
imagePath = "Workshop Baskerville/1878 Limprimerie Berger Levrault Notice historique/Romain/JACOB-notice-187519.jpg";
locked = "1";
transform = "{2.517, 0, 3.536, 2.65, -8835, -3803}";
};
layerId = "9372F035-DA38-4B54-966C-CEBA9B53DD02";
paths = (
{
closed = 1;
nodes = (
"253 357 LINE",
"296 341 OFFCURVE",
"345 339 OFFCURVE",
"392 339 CURVE SMOOTH",
"531 339 OFFCURVE",
"630 426 OFFCURVE",
"630 549 CURVE SMOOTH",
"630 636 OFFCURVE",
"581 685 OFFCURVE",
"445 685 CURVE SMOOTH",
"368 685 LINE",
"380 710 LINE",
"486 711 LINE SMOOTH",
"620 712 OFFCURVE",
"710 653 OFFCURVE",
"710 548 CURVE SMOOTH",
"710 393 OFFCURVE",
"551 310 OFFCURVE",
"407 310 CURVE SMOOTH",
"343 310 OFFCURVE",
"294 315 OFFCURVE",
"242 336 CURVE"
);
},
{
closed = 1;
nodes = (
"147 0 LINE",
"71 0 LINE",
"329 710 LINE",
"405 710 LINE"
);
},
{
closed = 1;
nodes = (
"296 618 LINE",
"315 673 OFFCURVE",
"305 679 OFFCURVE",
"236 686 CURVE",
"217 688 LINE",
"226 713 LINE",
"368 710 LINE",
"326 596 LINE"
);
},
{
closed = 1;
nodes = (
"180 92 LINE",
"160 37 OFFCURVE",
"176 34 OFFCURVE",
"270 24 CURVE SMOOTH",
"289 22 LINE",
"280 -3 LINE",
"111 0 LINE",
"-34 -3 LINE",
"-25 22 LINE",
"-4 24 LINE SMOOTH",
"68 32 OFFCURVE",
"85 37 OFFCURVE",
"121 137 CURVE"
);
}
);
width = 664;
},
{
associatedMasterId = "9372F035-DA38-4B54-966C-CEBA9B53DD02";
backgroundImage = {
crop = "{{1321.132, 1329.434}, {266.038, 373.585}}";
imagePath = "Workshop Baskerville/1878 Limprimerie Berger Levrault Notice historique/Romain/JACOB-notice-187519.jpg";
locked = "1";
transform = "{2.65, 0, 0, 2.65, -3501, -3803}";
};
hints = (
{
origin = "{0, 4}";
scale = "{1.2, 1.1}";
type = Corner;
name = "_corner-bdc";
},
{
origin = "{0, 0}";
scale = "{-1.2, 1.1}";
type = Corner;
name = "_corner-bdc";
options = 1;
},
{
origin = "{0, 1}";
scale = "{1.2, 1.1}";
type = Corner;
name = "_corner-bdc";
},
{
origin = "{2, 0}";
scale = "{-1.2, 1.1}";
type = Corner;
name = "_corner-bdc";
options = 1;
},
{
origin = "{2, 1}";
scale = "{1.2, 1.1}";
type = Corner;
name = "_corner-bdc";
},
{
origin = "{2, 4}";
scale = "{1.2, 1.1}";
type = Corner;
name = "_corner-bdc";
}
);
layerId = "05C69439-2CAC-448C-857A-AB981370A93B";
name = "Oct 16 17, 14:56";
paths = (
{
closed = 1;
nodes = (
"184 0 LINE",
"185 710 LINE",
"260 710 LINE",
"259 172 LINE",
"259 0 LINE"
);
},
{
closed = 1;
nodes = (
"207 341 LINE",
"376 341 LINE SMOOTH",
"478 341 OFFCURVE",
"558 401 OFFCURVE",
"558 517 CURVE SMOOTH",
"558 639 OFFCURVE",
"452 690 OFFCURVE",
"358 685 CURVE SMOOTH",
"238 685 LINE",
"238 711 LINE",
"360 710 LINE SMOOTH",
"528 710 OFFCURVE",
"638 664 OFFCURVE",
"638 514 CURVE SMOOTH",
"638 337 OFFCURVE",
"477 315 OFFCURVE",
"388 315 CURVE",
"207 315 LINE"
);
},
{
closed = 1;
nodes = (
"184 0 LINE",
"185 710 LINE",
"260 710 LINE",
"259 172 LINE",
"259 0 LINE"
);
},
{
closed = 1;
nodes = (
"207 341 LINE",
"376 341 LINE SMOOTH",
"478 341 OFFCURVE",
"558 401 OFFCURVE",
"558 517 CURVE SMOOTH",
"558 639 OFFCURVE",
"452 690 OFFCURVE",
"358 685 CURVE SMOOTH",
"238 685 LINE",
"238 711 LINE",
"360 710 LINE SMOOTH",
"528 710 OFFCURVE",
"638 664 OFFCURVE",
"638 514 CURVE SMOOTH",
"638 337 OFFCURVE",
"477 315 OFFCURVE",
"388 315 CURVE",
"207 315 LINE"
);
}
);
width = 655;
},
{
associatedMasterId = "9372F035-DA38-4B54-966C-CEBA9B53DD02";
backgroundImage = {
crop = "{{1321.132, 1329.434}, {266.038, 373.585}}";
imagePath = "Workshop Baskerville/1878 Limprimerie Berger Levrault Notice historique/Romain/JACOB-notice-187519.jpg";
locked = "1";
transform = "{2.517, 0, 3.536, 2.65, -8877, -3803}";
};
layerId = "A86FD7BA-A34E-46A5-879E-84D8CD074FBD";
name = "Oct 18 17, 16:17";
paths = (
{
closed = 1;
nodes = (
"211 357 LINE",
"254 341 OFFCURVE",
"303 339 OFFCURVE",
"350 339 CURVE SMOOTH",
"489 339 OFFCURVE",
"588 426 OFFCURVE",
"588 561 CURVE SMOOTH",
"588 642 OFFCURVE",
"539 677 OFFCURVE",
"453 680 CURVE SMOOTH",
"326 685 LINE",
"338 710 LINE",
"444 711 LINE SMOOTH",
"578 712 OFFCURVE",
"668 653 OFFCURVE",
"668 548 CURVE SMOOTH",
"668 384 OFFCURVE",
"509 315 OFFCURVE",
"365 315 CURVE SMOOTH",
"301 315 OFFCURVE",
"252 320 OFFCURVE",
"200 341 CURVE"
);
},
{
closed = 1;
nodes = (
"105 0 LINE",
"29 0 LINE",
"287 710 LINE",
"363 710 LINE"
);
},
{
closed = 1;
nodes = (
"254 618 LINE",
"273 673 OFFCURVE",
"263 679 OFFCURVE",
"194 686 CURVE",
"175 688 LINE",
"184 713 LINE",
"326 710 LINE",
"284 596 LINE"
);
},
{
closed = 1;
nodes = (
"138 92 LINE",
"118 37 OFFCURVE",
"134 34 OFFCURVE",
"228 24 CURVE SMOOTH",
"247 22 LINE",
"238 -3 LINE",
"69 0 LINE",
"-76 -3 LINE",
"-67 22 LINE",
"-46 24 LINE SMOOTH",
"26 32 OFFCURVE",
"43 37 OFFCURVE",
"79 137 CURVE"
);
}
);
width = 582;
}
);
leftMetricsKey = H;
unicode = 0050;
},
{
glyphname = Q;
lastChange = "2017-10-18 15:37:54 +0000";
layers = (
{
components = (
{
name = O;
}
);
layerId = "9372F035-DA38-4B54-966C-CEBA9B53DD02";
paths = (
{
closed = 1;
nodes = (
"356 -1 LINE",
"123 -82 LINE",
"141 -79 OFFCURVE",
"151 -78 OFFCURVE",
"179 -78 CURVE SMOOTH",
"386 -78 OFFCURVE",
"406 -241 OFFCURVE",
"519 -241 CURVE SMOOTH",
"571 -241 OFFCURVE",
"606 -202 OFFCURVE",
"610 -156 CURVE",
"632 -156 LINE",
"623 -252 OFFCURVE",
"564 -290 OFFCURVE",
"492 -290 CURVE SMOOTH",
"263 -290 OFFCURVE",
"277 -102 OFFCURVE",
"98 -102 CURVE SMOOTH",
"60 -102 OFFCURVE",
"28 -117 OFFCURVE",
"11 -139 CURVE SMOOTH",
"-11 -167 OFFCURVE",
"-30 -180 OFFCURVE",
"-59 -180 CURVE SMOOTH",
"-80 -180 OFFCURVE",
"-92 -167 OFFCURVE",
"-86 -148 CURVE SMOOTH",
"-72 -105 OFFCURVE",
"-25 -86 OFFCURVE",
"62 -86 CURVE",
"281 -3 LINE"
);
}
);
width = 770;
}
);
unicode = 0051;
},
{
glyphname = R;
lastChange = "2017-10-18 15:37:54 +0000";
layers = (
{
backgroundImage = {
crop = "{{1436.296, 1029.63}, {296.296, 366.667}}";
imagePath = "Workshop Baskerville/1878 Limprimerie Berger Levrault Notice historique/Romain/JACOB-notice-187518.jpg";
locked = "1";
transform = "{2.565, 0, 3.603, 2.7, -8221, -3060}";
};
layerId = "9372F035-DA38-4B54-966C-CEBA9B53DD02";
paths = (
{
closed = 1;
nodes = (
"466 354 OFFCURVE",
"527 296 OFFCURVE",
"549 175 CURVE SMOOTH",
"568 71 OFFCURVE",
"587 19 OFFCURVE",
"640 22 CURVE SMOOTH",
"674 24 LINE",
"678 0 LINE",
"663 -5 OFFCURVE",
"643 -13 OFFCURVE",
"594 -13 CURVE SMOOTH",
"506 -13 OFFCURVE",
"492 59 OFFCURVE",
"477 134 CURVE SMOOTH",
"449 275 OFFCURVE",
"430 340 OFFCURVE",
"314 340 CURVE",
"323 357 LINE",
"339 355 LINE"
);
},
{
closed = 1;
nodes = (
"145 0 LINE",
"71 0 LINE",
"329 710 LINE",
"403 710 LINE"
);
},
{
closed = 1;
nodes = (
"178 92 LINE",
"159 37 OFFCURVE",
"169 31 OFFCURVE",
"238 24 CURVE SMOOTH",
"257 22 LINE",
"248 -3 LINE",
"111 0 LINE",
"-34 -3 LINE",
"-25 22 LINE",
"-4 24 LINE SMOOTH",
"68 32 OFFCURVE",
"85 37 OFFCURVE",
"121 137 CURVE"
);
},
{
closed = 1;
nodes = (
"296 618 LINE",
"315 673 OFFCURVE",
"305 679 OFFCURVE",
"236 686 CURVE",
"217 688 LINE",
"226 713 LINE",
"368 710 LINE",
"326 596 LINE"
);
},
{
closed = 1;
nodes = (
"253 363 LINE",
"403 362 LINE SMOOTH",
"546 361 OFFCURVE",
"629 436 OFFCURVE",
"629 553 CURVE SMOOTH",
"629 619 OFFCURVE",
"588 683 OFFCURVE",
"471 683 CURVE SMOOTH",
"391 683 LINE",
"380 710 LINE",
"494 712 LINE SMOOTH",
"642 714 OFFCURVE",
"710 642 OFFCURVE",
"710 559 CURVE SMOOTH",
"710 403 OFFCURVE",
"570 340 OFFCURVE",
"413 340 CURVE SMOOTH",
"242 340 LINE"
);
}
);
width = 690;
},
{
associatedMasterId = "9372F035-DA38-4B54-966C-CEBA9B53DD02";
background = {
components = (
{
name = I;
transform = "{1, 0, 0, 1, -16, 0}";
}
);
};
backgroundImage = {
crop = "{{1436.296, 1029.63}, {296.296, 366.667}}";
imagePath = "Workshop Baskerville/1878 Limprimerie Berger Levrault Notice historique/Romain/JACOB-notice-187518.jpg";
locked = "1";
transform = "{2.565, 0, 3.603, 2.7, -8263, -3060}";
};
layerId = "B055DBA9-CC6F-40D9-9D13-3D11BC66551F";
name = "Oct 18 17, 15:01";
paths = (
{
closed = 1;
nodes = (
"415 340 OFFCURVE",
"471 299 OFFCURVE",
"484 227 CURVE SMOOTH",
"500 136 OFFCURVE",
"517 19 OFFCURVE",
"569 19 CURVE SMOOTH",
"584 19 OFFCURVE",
"604 19 OFFCURVE",
"626 24 CURVE",
"626 0 LINE",
"611 -5 OFFCURVE",
"591 -13 OFFCURVE",
"542 -13 CURVE SMOOTH",
"321 -13 OFFCURVE",
"502 334 OFFCURVE",
"277 345 CURVE",
"291 356 LINE",
"342 354 LINE"
);
},
{
closed = 1;
nodes = (
"103 0 LINE",
"29 0 LINE",
"287 710 LINE",
"361 710 LINE"
);
},
{
closed = 1;
nodes = (
"136 92 LINE",
"117 37 OFFCURVE",
"127 31 OFFCURVE",
"196 24 CURVE SMOOTH",
"215 22 LINE",
"206 -3 LINE",
"69 0 LINE",
"-76 -3 LINE",
"-67 22 LINE",
"-46 24 LINE SMOOTH",
"26 32 OFFCURVE",
"43 37 OFFCURVE",
"79 137 CURVE"
);
},
{
closed = 1;
nodes = (
"254 618 LINE",
"273 673 OFFCURVE",
"263 679 OFFCURVE",
"194 686 CURVE",
"175 688 LINE",
"184 713 LINE",
"326 710 LINE",
"284 596 LINE"
);
},
{
closed = 1;
nodes = (
"211 369 LINE",
"350 359 LINE SMOOTH",
"489 359 OFFCURVE",
"588 436 OFFCURVE",
"588 571 CURVE SMOOTH",
"588 647 OFFCURVE",
"532 681 OFFCURVE",
"450 683 CURVE SMOOTH",
"349 685 LINE",
"338 710 LINE",
"444 711 LINE SMOOTH",
"578 712 OFFCURVE",
"668 653 OFFCURVE",
"668 548 CURVE SMOOTH",
"668 384 OFFCURVE",
"508 329 OFFCURVE",
"365 339 CURVE SMOOTH",
"200 350 LINE"
);
}
);
width = 631;
},
{
associatedMasterId = "9372F035-DA38-4B54-966C-CEBA9B53DD02";
backgroundImage = {
crop = "{{1436.296, 1029.63}, {296.296, 366.667}}";
imagePath = "Workshop Baskerville/1878 Limprimerie Berger Levrault Notice historique/Romain/JACOB-notice-187518.jpg";
locked = "1";
transform = "{2.565, 0, 3.603, 2.7, -8221, -3060}";
};
layerId = "B6DB60B7-4980-46E2-A7AE-9E1928B2AEE1";
name = "Oct 18 17, 16:15";
paths = (
{
closed = 1;
nodes = (
"466 354 OFFCURVE",
"527 296 OFFCURVE",
"549 175 CURVE SMOOTH",
"568 71 OFFCURVE",
"587 19 OFFCURVE",
"640 22 CURVE SMOOTH",
"674 24 LINE",
"678 0 LINE",
"663 -5 OFFCURVE",
"643 -13 OFFCURVE",
"594 -13 CURVE SMOOTH",
"506 -13 OFFCURVE",
"492 59 OFFCURVE",
"477 134 CURVE SMOOTH",
"449 275 OFFCURVE",
"430 340 OFFCURVE",
"314 340 CURVE",
"323 357 LINE",
"339 355 LINE"
);
},
{
closed = 1;
nodes = (
"145 0 LINE",
"71 0 LINE",
"329 710 LINE",
"403 710 LINE"
);
},
{
closed = 1;
nodes = (
"178 92 LINE",
"159 37 OFFCURVE",
"169 31 OFFCURVE",
"238 24 CURVE SMOOTH",
"257 22 LINE",
"248 -3 LINE",
"111 0 LINE",
"-34 -3 LINE",
"-25 22 LINE",
"-4 24 LINE SMOOTH",
"68 32 OFFCURVE",
"85 37 OFFCURVE",
"121 137 CURVE"
);
},
{
closed = 1;
nodes = (
"296 618 LINE",
"315 673 OFFCURVE",
"305 679 OFFCURVE",
"236 686 CURVE",
"217 688 LINE",
"226 713 LINE",
"368 710 LINE",
"326 596 LINE"
);
},
{
closed = 1;
nodes = (
"253 359 LINE",
"403 358 LINE SMOOTH",
"546 357 OFFCURVE",
"630 448 OFFCURVE",
"630 565 CURVE SMOOTH",
"630 647 OFFCURVE",
"588 683 OFFCURVE",
"499 683 CURVE SMOOTH",
"391 683 LINE",
"380 710 LINE",
"494 712 LINE SMOOTH",
"648 714 OFFCURVE",
"710 653 OFFCURVE",
"710 567 CURVE SMOOTH",
"710 415 OFFCURVE",
"570 340 OFFCURVE",
"435 340 CURVE SMOOTH",
"242 340 LINE"
);
}
);
width = 670;
}
);
leftMetricsKey = H;
unicode = 0052;
},
{
glyphname = S;
lastChange = "2017-10-18 15:37:54 +0000";
layers = (
{
associatedMasterId = "9372F035-DA38-4B54-966C-CEBA9B53DD02";
background = {
components = (
{
name = E;
transform = "{1, 0, 0, 1, -136, -25}";
}
);
};
layerId = "23558D2F-147D-45BE-AEAE-86F3D04C1B72";
name = "Oct 18 17, 17:13";
paths = (
{
closed = 1;
nodes = (
"318 440 OFFCURVE",
"265 480 OFFCURVE",
"265 565 CURVE SMOOTH",
"265 643 OFFCURVE",
"326 694 OFFCURVE",
"401 694 CURVE SMOOTH",
"479 694 OFFCURVE",
"527 627 OFFCURVE",
"527 530 CURVE SMOOTH",
"527 500 LINE",
"551 500 LINE",
"558 700 LINE",
"542 700 LINE",
"542 678 OFFCURVE",
"536 668 OFFCURVE",
"528 668 CURVE SMOOTH",
"515 668 OFFCURVE",
"508 675 OFFCURVE",
"498 682 CURVE SMOOTH",
"482 693 OFFCURVE",
"457 720 OFFCURVE",
"395 720 CURVE SMOOTH",
"262 720 OFFCURVE",
"180 640 OFFCURVE",
"180 534 CURVE SMOOTH",
"180 458 OFFCURVE",
"238 404 OFFCURVE",
"289 358 CURVE SMOOTH",
"370 284 OFFCURVE",
"413 244 OFFCURVE",
"413 163 CURVE SMOOTH",
"413 78 OFFCURVE",
"343 14 OFFCURVE",
"250 14 CURVE SMOOTH",
"165 14 OFFCURVE",
"92 80 OFFCURVE",
"92 167 CURVE SMOOTH",
"92 192 OFFCURVE",
"96 220 OFFCURVE",
"103 248 CURVE",
"83 248 LINE",
"1 19 LINE",
"22 18 LINE",
"35 40 OFFCURVE",
"51 58 OFFCURVE",
"68 58 CURVE SMOOTH",
"101 58 OFFCURVE",
"134 -14 OFFCURVE",
"261 -14 CURVE SMOOTH",
"404 -14 OFFCURVE",
"496 81 OFFCURVE",
"496 195 CURVE SMOOTH",
"496 272 OFFCURVE",
"450 317 OFFCURVE",
"372 390 CURVE SMOOTH"
);
}
);
width = 560;
},
{
layerId = "9372F035-DA38-4B54-966C-CEBA9B53DD02";
paths = (
{
closed = 1;
nodes = (
"318 440 OFFCURVE",
"265 480 OFFCURVE",
"265 565 CURVE SMOOTH",
"265 643 OFFCURVE",
"326 694 OFFCURVE",
"401 694 CURVE SMOOTH",
"490 694 OFFCURVE",
"541 627 OFFCURVE",
"522 530 CURVE SMOOTH",
"515 500 LINE",
"536 500 LINE",
"607 700 LINE",
"587 700 LINE",
"573 676 OFFCURVE",
"566 668 OFFCURVE",
"554 668 CURVE SMOOTH",
"541 668 OFFCURVE",
"533 675 OFFCURVE",
"523 682 CURVE SMOOTH",
"507 693 OFFCURVE",
"467 720 OFFCURVE",
"395 720 CURVE SMOOTH",
"262 720 OFFCURVE",
"180 640 OFFCURVE",
"180 534 CURVE SMOOTH",
"180 458 OFFCURVE",
"238 404 OFFCURVE",
"289 358 CURVE SMOOTH",
"370 284 OFFCURVE",
"413 244 OFFCURVE",
"413 163 CURVE SMOOTH",
"413 78 OFFCURVE",
"343 14 OFFCURVE",
"250 14 CURVE SMOOTH",
"165 14 OFFCURVE",
"92 80 OFFCURVE",
"92 167 CURVE SMOOTH",
"92 192 OFFCURVE",
"96 220 OFFCURVE",
"103 248 CURVE",
"83 248 LINE",
"1 19 LINE",
"22 18 LINE",
"35 40 OFFCURVE",
"51 58 OFFCURVE",
"68 58 CURVE SMOOTH",
"101 58 OFFCURVE",
"134 -14 OFFCURVE",
"261 -14 CURVE SMOOTH",
"404 -14 OFFCURVE",
"496 81 OFFCURVE",
"496 195 CURVE SMOOTH",
"496 272 OFFCURVE",
"450 317 OFFCURVE",
"372 390 CURVE SMOOTH"
);
}
);
width = 560;
}
);
unicode = 0053;
},
{
glyphname = T;
lastChange = "2017-10-18 15:37:54 +0000";
layers = (
{
background = {
components = (
{
name = H;
transform = "{1, 0, 0, 1, 173, 0}";
}
);
};
layerId = "9372F035-DA38-4B54-966C-CEBA9B53DD02";
paths = (
{
closed = 1;
nodes = (
"181 713 LINE",
"103 523 LINE",
"129 522 LINE",
"200 644 OFFCURVE",
"227 685 OFFCURVE",
"340 685 CURVE SMOOTH",
"468 687 LINE",
"261 110 LINE SMOOTH",
"235 39 OFFCURVE",
"188 31 OFFCURVE",
"117 22 CURVE SMOOTH",
"101 20 LINE",
"92 -3 LINE",
"256 0 LINE",
"267 0 LINE",
"449 -3 LINE",
"457 20 LINE",
"421 23 LINE SMOOTH",
"356 28 OFFCURVE",
"316 50 OFFCURVE",
"339 113 CURVE SMOOTH",
"545 688 LINE",
"671 685 LINE SMOOTH",
"749 683 OFFCURVE",
"784 606 OFFCURVE",
"784 510 CURVE",
"809 510 LINE",
"810 632 LINE",
"814 713 LINE",
"508 710 LINE"
);
}
);
width = 720;
}
);
unicode = 0054;
},
{
glyphname = U;
lastChange = "2017-10-18 15:37:54 +0000";
layers = (
{
backgroundImage = {
crop = "{{1243.093, 2255.185}, {79.054, 101.64}}";
imagePath = "1790 La Constitution Française de Jacob/JACOB-constitution-179001.jpg";
locked = "1";
transform = "{9.479, 0.17, 12.833, 9.739, -11561, 0}";
};
components = (
{
name = "_part-serif";
transform = "{-1, 0, 0, -1, 413, 710}";
},
{
name = "_part-serif2";
transform = "{-1, 0, 0, -1, 868, 712}";
}
);
layerId = "9372F035-DA38-4B54-966C-CEBA9B53DD02";
paths = (
{
closed = 1;
nodes = (
"776 645 LINE",
"656 308 LINE SMOOTH",
"579 91 OFFCURVE",
"511 -14 OFFCURVE",
"339 -14 CURVE SMOOTH",
"119 -14 OFFCURVE",
"87 103 OFFCURVE",
"147 275 CURVE SMOOTH",
"279 645 LINE",
"354 645 LINE",
"223 275 LINE SMOOTH",
"170 121 OFFCURVE",
"205 18 OFFCURVE",
"351 18 CURVE SMOOTH",
"463 18 OFFCURVE",
"544 81 OFFCURVE",
"612 274 CURVE SMOOTH",
"744 645 LINE"
);
}
);
width = 729;
}
);
unicode = 0055;
},
{
glyphname = V;
lastChange = "2017-10-18 15:37:54 +0000";
layers = (
{
backgroundImage = {
crop = "{{1421.943, 833.867}, {330.508, 376.095}}";
imagePath = "1878 Limprimerie Berger Levrault Notice historique/Romain/JACOB-notice-187505.jpg";
locked = "1";
transform = "{2.5, 0, 3.512, 2.632, -7372, -2475}";
};
layerId = "9372F035-DA38-4B54-966C-CEBA9B53DD02";
paths = (
{
closed = 1;
nodes = (
"624 713 LINE",
"615 688 LINE",
"634 686 LINE SMOOTH",
"701 679 OFFCURVE",
"720 659 OFFCURVE",
"688 613 CURVE SMOOTH",
"316 70 LINE",
"336 74 LINE",
"297 594 LINE SMOOTH",
"292 666 OFFCURVE",
"333 678 OFFCURVE",
"393 686 CURVE SMOOTH",
"414 688 LINE",
"423 713 LINE",
"278 710 LINE",
"136 713 LINE",
"127 688 LINE",
"146 686 LINE SMOOTH",
"221 678 OFFCURVE",
"215 651 OFFCURVE",
"219 593 CURVE SMOOTH",
"264 -16 LINE",
"294 -16 LINE",
"714 598 LINE SMOOTH",
"750 651 OFFCURVE",
"763 679 OFFCURVE",
"835 686 CURVE SMOOTH",
"856 688 LINE",
"865 713 LINE",
"742 710 LINE"
);
}
);
width = 713;
}
);
unicode = 0056;
},
{
glyphname = W;
lastChange = "2017-10-18 15:37:54 +0000";
layers = (
{
background = {
paths = (
{
closed = 1;
nodes = (
"954 660 OFFCURVE",
"912 713 OFFCURVE",
"840 713 CURVE SMOOTH",
"805 713 LINE",
"796 688 LINE",
"823 684 LINE SMOOTH",
"882 675 OFFCURVE",
"898 652 OFFCURVE",
"898 620 CURVE SMOOTH",
"898 590 OFFCURVE",
"868 546 OFFCURVE",
"851 516 CURVE SMOOTH",
"606 68 LINE",
"629 77 LINE",
"588 594 LINE SMOOTH",
"582 666 OFFCURVE",
"624 680 OFFCURVE",
"684 686 CURVE SMOOTH",
"705 688 LINE",
"714 713 LINE",
"569 710 LINE",
"431 713 LINE",
"422 688 LINE",
"441 686 LINE SMOOTH",
"516 678 OFFCURVE",
"510 651 OFFCURVE",
"514 593 CURVE SMOOTH",
"559 -16 LINE",
"589 -16 LINE",
"902 536 LINE SMOOTH",
"919 566 OFFCURVE",
"954 607 OFFCURVE",
"954 636 CURVE SMOOTH"
);
},
{
closed = 1;
nodes = (
"925 -16 LINE",
"955 -16 LINE",
"1305 598 LINE SMOOTH",
"1337 654 OFFCURVE",
"1354 679 OFFCURVE",
"1426 686 CURVE SMOOTH",
"1447 688 LINE",
"1456 713 LINE",
"1333 710 LINE",
"1206 713 LINE",
"1197 688 LINE",
"1225 686 LINE SMOOTH",
"1292 681 OFFCURVE",
"1307 663 OFFCURVE",
"1279 613 CURVE SMOOTH",
"970 67 LINE",
"998 79 LINE",
"977 526 LINE SMOOTH",
"972 635 OFFCURVE",
"994 681 OFFCURVE",
"1059 686 CURVE SMOOTH",
"1085 688 LINE",
"1094 713 LINE",
"1058 713 LINE SMOOTH",
"943 713 OFFCURVE",
"897 611 OFFCURVE",
"898 590 CURVE SMOOTH"
);
}
);
};
guideLines = (
{
position = "{356, 713}";
}
);
layerId = "9372F035-DA38-4B54-966C-CEBA9B53DD02";
paths = (
{
closed = 1;
nodes = (
"561 673 OFFCURVE",
"530 713 OFFCURVE",
"458 713 CURVE SMOOTH",
"440 713 LINE",
"431 688 LINE",
"455 686 LINE SMOOTH",
"497 682 OFFCURVE",
"514 664 OFFCURVE",
"518 638 CURVE SMOOTH",
"523 608 OFFCURVE",
"505 566 OFFCURVE",
"477 516 CURVE SMOOTH",
"224 68 LINE",
"247 77 LINE",
"206 594 LINE SMOOTH",
"200 666 OFFCURVE",
"242 676 OFFCURVE",
"292 686 CURVE SMOOTH",
"304 688 LINE",
"313 713 LINE",
"187 710 LINE",
"49 713 LINE",
"40 688 LINE",
"59 686 LINE SMOOTH",
"134 678 OFFCURVE",
"128 651 OFFCURVE",
"132 593 CURVE SMOOTH",
"177 -16 LINE",
"207 -16 LINE",
"520 536 LINE SMOOTH",
"537 566 OFFCURVE",
"561 607 OFFCURVE",
"561 636 CURVE SMOOTH"
);
},
{
closed = 1;
nodes = (
"558 -16 LINE",
"588 -16 LINE",
"933 598 LINE SMOOTH",
"964 653 OFFCURVE",
"982 679 OFFCURVE",
"1054 686 CURVE SMOOTH",
"1075 688 LINE",
"1084 713 LINE",
"961 710 LINE",
"825 713 LINE",
"816 688 LINE",
"853 686 LINE SMOOTH",
"920 682 OFFCURVE",
"935 663 OFFCURVE",
"907 613 CURVE SMOOTH",
"603 67 LINE",
"627 68 LINE",
"584 587 LINE SMOOTH",
"579 649 OFFCURVE",
"602 673 OFFCURVE",
"661 684 CURVE SMOOTH",
"683 688 LINE",
"692 713 LINE",
"676 713 LINE SMOOTH",
"548 713 OFFCURVE",
"513 638 OFFCURVE",
"516 590 CURVE SMOOTH"
);
}
);
width = 895;
},
{
associatedMasterId = "9372F035-DA38-4B54-966C-CEBA9B53DD02";
background = {
paths = (
{
closed = 1;
nodes = (
"354 -16 LINE",
"374 -16 LINE",
"606 628 LINE SMOOTH",
"619 665 OFFCURVE",
"650 684 OFFCURVE",
"694 688 CURVE SMOOTH",
"737 692 LINE",
"737 710 LINE",
"480 710 LINE",
"480 692 LINE",
"513 688 LINE SMOOTH",
"560 682 OFFCURVE",
"589 667 OFFCURVE",
"572 621 CURVE SMOOTH",
"377 82 LINE",
"406 89 LINE",
"244 594 LINE SMOOTH",
"230 638 OFFCURVE",
"246 683 OFFCURVE",
"303 688 CURVE SMOOTH",
"346 692 LINE",
"346 710 LINE",
"268 710 LINE SMOOTH",
"192 710 OFFCURVE",
"126 662 OFFCURVE",
"149 593 CURVE SMOOTH"
);
}
);
};
backgroundImage = {
crop = "{{1180, 1157.037}, {444.444, 366.667}}";
imagePath = "../../../../1878 Limprimerie Berger Levrault Notice historique/Romain/JACOB-notice-187514.jpg";
locked = "1";
transform = "{2.565, 0, 3.603, 2.7, -8085, -3404}";
};
layerId = "959EC74D-DEA0-4879-A23B-207546CE4068";
name = "Oct 17 17, 15:47";
paths = (
{
closed = 1;
nodes = (
"664 -16 LINE",
"684 -16 LINE",
"1144 628 LINE SMOOTH",
"1170 665 OFFCURVE",
"1208 684 OFFCURVE",
"1253 688 CURVE SMOOTH",
"1297 692 LINE",
"1304 710 LINE",
"1179 708 LINE",
"1047 710 LINE",
"1040 692 LINE",
"1072 688 LINE SMOOTH",
"1118 682 OFFCURVE",
"1141 667 OFFCURVE",
"1107 621 CURVE SMOOTH",
"721 82 LINE",
"743 82 LINE",
"770 594 LINE SMOOTH",
"773 638 OFFCURVE",
"804 683 OFFCURVE",
"862 688 CURVE SMOOTH",
"905 692 LINE",
"912 710 LINE",
"817 710 LINE SMOOTH",
"747 710 OFFCURVE",
"683 652 OFFCURVE",
"682 593 CURVE SMOOTH"
);
},
{
closed = 1;
nodes = (
"727 657 OFFCURVE",
"720 710 OFFCURVE",
"657 710 CURVE SMOOTH",
"601 710 LINE",
"594 692 LINE",
"622 690 LINE SMOOTH",
"685 685 OFFCURVE",
"693 652 OFFCURVE",
"654 597 CURVE SMOOTH",
"291 82 LINE",
"309 82 LINE",
"339 628 LINE SMOOTH",
"341 677 OFFCURVE",
"389 689 OFFCURVE",
"433 691 CURVE SMOOTH",
"459 692 LINE",
"466 710 LINE",
"301 708 LINE",
"146 710 LINE",
"139 692 LINE",
"181 688 LINE SMOOTH",
"223 684 OFFCURVE",
"253 669 OFFCURVE",
"252 632 CURVE SMOOTH",
"231 -16 LINE",
"251 -16 LINE",
"699 617 LINE SMOOTH"
);
}
);
width = 1098;
}
);
unicode = 0057;
},
{
glyphname = X;
lastChange = "2017-10-18 15:37:54 +0000";
layers = (
{
associatedMasterId = "9372F035-DA38-4B54-966C-CEBA9B53DD02";
background = {
components = (
{
name = I;
transform = "{1, 0, 0, 1, 330, 0}";
}
);
};
backgroundImage = {
crop = "{{1307.627, 1364.547}, {297.969, 378.192}}";
imagePath = "1878 Limprimerie Berger Levrault Notice historique/Romain/JACOB-notice-187513.jpg";
locked = "1";
transform = "{2.487, 0, 3.493, 2.618, -8871, -3852}";
};
layerId = "36BFB884-2468-4568-9F4D-2F5C7897BA74";
name = "Oct 18 17, 16:38";
paths = (
{
closed = 1;
nodes = (
"240 593 LINE SMOOTH",
"214 652 OFFCURVE",
"189 681 OFFCURVE",
"140 686 CURVE SMOOTH",
"121 688 LINE",
"130 713 LINE",
"259 710 LINE",
"403 713 LINE",
"397 688 LINE",
"376 686 LINE SMOOTH",
"316 680 OFFCURVE",
"297 649 OFFCURVE",
"322 593 CURVE SMOOTH",
"532 117 LINE SMOOTH",
"557 60 OFFCURVE",
"581 30 OFFCURVE",
"632 25 CURVE SMOOTH",
"651 23 LINE",
"642 -2 LINE",
"518 0 LINE",
"366 -2 LINE",
"375 23 LINE",
"396 25 LINE SMOOTH",
"456 31 OFFCURVE",
"479 53 OFFCURVE",
"453 112 CURVE SMOOTH"
);
},
{
closed = 1;
nodes = (
"384 382 LINE",
"608 609 LINE SMOOTH",
"666 659 OFFCURVE",
"644 678 OFFCURVE",
"567 686 CURVE SMOOTH",
"548 688 LINE",
"557 713 LINE",
"685 710 LINE",
"811 713 LINE",
"802 688 LINE",
"781 685 LINE SMOOTH",
"744 680 OFFCURVE",
"702 653 OFFCURVE",
"651 609 CURVE SMOOTH",
"403 360 LINE"
);
},
{
closed = 1;
nodes = (
"398 364 LINE",
"138 103 LINE SMOOTH",
"84 56 OFFCURVE",
"111 32 OFFCURVE",
"178 25 CURVE SMOOTH",
"197 23 LINE",
"188 -2 LINE",
"67 1 LINE",
"-66 -2 LINE",
"-57 23 LINE",
"-36 26 LINE SMOOTH",
"2 31 OFFCURVE",
"43 58 OFFCURVE",
"93 101 CURVE SMOOTH",
"379 386 LINE"
);
}
);
width = 654;
},
{
background = {
components = (
{
name = I;
transform = "{1, 0, 0, 1, 360, 0}";
}
);
};
backgroundImage = {
crop = "{{1307.627, 1364.547}, {297.969, 378.192}}";
imagePath = "1878 Limprimerie Berger Levrault Notice historique/Romain/JACOB-notice-187513.jpg";
locked = "1";
transform = "{2.487, 0, 3.493, 2.618, -8881, -3852}";
};
layerId = "9372F035-DA38-4B54-966C-CEBA9B53DD02";
paths = (
{
closed = 1;
nodes = (
"270 593 LINE SMOOTH",
"253 649 OFFCURVE",
"230 681 OFFCURVE",
"181 686 CURVE SMOOTH",
"162 688 LINE",
"171 713 LINE",
"300 710 LINE",
"447 713 LINE",
"438 688 LINE",
"417 686 LINE SMOOTH",
"357 680 OFFCURVE",
"333 650 OFFCURVE",
"354 581 CURVE SMOOTH",
"498 118 LINE SMOOTH",
"516 61 OFFCURVE",
"536 30 OFFCURVE",
"587 25 CURVE SMOOTH",
"606 23 LINE",
"597 -2 LINE",
"473 0 LINE",
"321 -2 LINE",
"330 23 LINE",
"351 25 LINE SMOOTH",
"411 31 OFFCURVE",
"435 62 OFFCURVE",
"414 130 CURVE SMOOTH"
);
},
{
closed = 1;
nodes = (
"374 382 LINE",
"638 609 LINE SMOOTH",
"696 659 OFFCURVE",
"674 678 OFFCURVE",
"597 686 CURVE SMOOTH",
"578 688 LINE",
"587 713 LINE",
"715 710 LINE",
"841 713 LINE",
"832 688 LINE",
"811 685 LINE SMOOTH",
"774 680 OFFCURVE",
"732 653 OFFCURVE",
"681 609 CURVE SMOOTH",
"393 360 LINE"
);
},
{
closed = 1;
nodes = (
"388 364 LINE",
"89 104 LINE SMOOTH",
"34 56 OFFCURVE",
"61 32 OFFCURVE",
"128 25 CURVE SMOOTH",
"147 23 LINE",
"138 -2 LINE",
"17 1 LINE",
"-116 -2 LINE",
"-107 23 LINE",
"-86 26 LINE SMOOTH",
"-48 31 OFFCURVE",
"-7 58 OFFCURVE",
"44 102 CURVE SMOOTH",
"369 386 LINE"
);
}
);
width = 634;
}
);
unicode = 0058;
},
{
glyphname = Y;
lastChange = "2017-10-18 15:37:54 +0000";
layers = (
{
associatedMasterId = "9372F035-DA38-4B54-966C-CEBA9B53DD02";
backgroundImage = {
crop = "{{248.984, 192.024}, {12.151, 15.037}}";
imagePath = "1788-89 Epreuves des caracteres de Rolland et Jacob/p19.jpg";
locked = "1";
transform = "{62.544, 0, 87.843, 65.836, -7082, -12922}";
};
layerId = "8495691E-2266-4B46-B0C2-7F71DAFDFDF7";
name = "Oct 17 17, 16:21";
paths = (
{
closed = 1;
nodes = (
"277 0 LINE",
"198 0 LINE",
"304 292 LINE",
"383 292 LINE"
);
},
{
closed = 1;
nodes = (
"316 236 LINE",
"239 593 LINE SMOOTH",
"227 650 OFFCURVE",
"221 678 OFFCURVE",
"146 686 CURVE SMOOTH",
"127 688 LINE",
"136 713 LINE",
"267 710 LINE",
"414 713 LINE",
"405 688 LINE",
"384 686 LINE SMOOTH",
"324 680 OFFCURVE",
"306 650 OFFCURVE",
"321 581 CURVE SMOOTH",
"380 304 LINE"
);
},
{
closed = 1;
nodes = (
"354 299 LINE",
"621 609 LINE SMOOTH",
"671 667 OFFCURVE",
"657 678 OFFCURVE",
"580 686 CURVE SMOOTH",
"561 688 LINE",
"570 713 LINE",
"698 710 LINE",
"824 713 LINE",
"815 688 LINE",
"794 685 LINE SMOOTH",
"757 680 OFFCURVE",
"709 660 OFFCURVE",
"664 609 CURVE SMOOTH",
"373 277 LINE"
);
},
{
closed = 1;
nodes = (
"310 92 LINE",
"291 37 OFFCURVE",
"331 31 OFFCURVE",
"400 24 CURVE SMOOTH",
"419 22 LINE",
"410 -3 LINE",
"238 0 LINE",
"93 -3 LINE",
"102 22 LINE",
"123 24 LINE SMOOTH",
"195 32 OFFCURVE",
"212 37 OFFCURVE",
"248 137 CURVE"
);
}
);
width = 600;
},
{
backgroundImage = {
crop = "{{248.984, 192.024}, {12.151, 15.037}}";
imagePath = "1788-89 Epreuves des caracteres de Rolland et Jacob/p19.jpg";
locked = "1";
transform = "{62.544, 0, 87.843, 65.836, -7082, -12922}";
};
layerId = "9372F035-DA38-4B54-966C-CEBA9B53DD02";
paths = (
{
closed = 1;
nodes = (
"302 259 LINE",
"230 593 LINE SMOOTH",
"218 650 OFFCURVE",
"212 678 OFFCURVE",
"137 686 CURVE SMOOTH",
"118 688 LINE",
"127 713 LINE",
"258 710 LINE",
"403 713 LINE",
"394 688 LINE",
"373 686 LINE SMOOTH",
"313 680 OFFCURVE",
"295 650 OFFCURVE",
"310 581 CURVE SMOOTH",
"377 279 LINE"
);
},
{
closed = 1;
nodes = (
"310 92 LINE",
"291 37 OFFCURVE",
"331 31 OFFCURVE",
"400 24 CURVE SMOOTH",
"419 22 LINE",
"410 -3 LINE",
"238 0 LINE",
"93 -3 LINE",
"102 22 LINE",
"123 24 LINE SMOOTH",
"195 32 OFFCURVE",
"212 37 OFFCURVE",
"248 137 CURVE"
);
},
{
closed = 1;
nodes = (
"277 0 LINE",
"198 0 LINE",
"304 292 LINE",
"383 292 LINE"
);
},
{
closed = 1;
nodes = (
"356 299 LINE",
"601 595 LINE SMOOTH",
"654 659 OFFCURVE",
"630 679 OFFCURVE",
"553 686 CURVE SMOOTH",
"534 688 LINE",
"543 713 LINE",
"671 710 LINE",
"797 713 LINE",
"788 688 LINE",
"767 685 LINE SMOOTH",
"730 680 OFFCURVE",
"688 654 OFFCURVE",
"644 601 CURVE SMOOTH",
"376 280 LINE"
);
}
);
width = 640;
}
);
unicode = 0059;
},
{
glyphname = Z;
lastChange = "2017-10-18 15:37:54 +0000";
layers = (
{
background = {
components = (
{
name = T;
transform = "{1, 0, 0, 1, 20, 0}";
}
);
};
layerId = "9372F035-DA38-4B54-966C-CEBA9B53DD02";
paths = (
{
closed = 1;
nodes = (
"-3 0 LINE",
"572 1 LINE",
"596 107 LINE",
"638 260 LINE",
"613 260 LINE",
"545 99 OFFCURVE",
"500 29 OFFCURVE",
"314 29 CURVE SMOOTH",
"85 29 LINE",
"95 9 LINE",
"737 703 LINE",
"734 710 LINE",
"241 710 LINE",
"158 506 LINE",
"183 506 LINE",
"239 613 OFFCURVE",
"267 685 OFFCURVE",
"420 685 CURVE SMOOTH",
"685 685 LINE",
"636 703 LINE",
"-6 9 LINE"
);
}
);
width = 659;
},
{
associatedMasterId = "9372F035-DA38-4B54-966C-CEBA9B53DD02";
layerId = "82BB1C63-4550-451A-95D8-7B019382E797";
name = "Oct 18 17, 16:28";
paths = (
{
closed = 1;
nodes = (
"666 107 LINE",
"708 260 LINE",
"683 260 LINE",
"615 99 OFFCURVE",
"570 29 OFFCURVE",
"384 29 CURVE SMOOTH",
"125 29 LINE",
"141 9 LINE",
"710 679 LINE",
"722 710 LINE",
"151 710 LINE",
"144 633 LINE",
"128 506 LINE",
"153 506 LINE",
"180 613 OFFCURVE",
"207 685 OFFCURVE",
"360 685 CURVE SMOOTH",
"685 685 LINE",
"633 703 LINE",
"45 23 LINE",
"39 0 LINE",
"642 1 LINE"
);
}
);
width = 709;
}
);
unicode = 005A;
},
{
glyphname = a;
lastChange = "2017-10-18 09:58:33 +0000";
layers = (
{
backgroundImage = {
crop = "{{260.146, 0}, {47.099, 75.281}}";
imagePath = "../../../../1878 Limprimerie Berger Levrault Notice historique/Italique/La Réhab.jpg";
locked = "1";
transform = "{12.739, 0, 4.63662, 12.739, -3657.047, -249}";
};
components = (
{
name = "_part-jambage-2";
transform = "{1, 0, 0, 1, -4, 0}";
}
);
guideLines = (
{
angle = 69.8938;
position = "{327, 215}";
}
);
layerId = "9372F035-DA38-4B54-966C-CEBA9B53DD02";
paths = (
{
closed = 1;
nodes = (
"333 103 OFFCURVE",
"264 12 OFFCURVE",
"188 12 CURVE SMOOTH",
"146 12 OFFCURVE",
"120 44 OFFCURVE",
"120 107 CURVE SMOOTH",
"120 242 OFFCURVE",
"236 428 OFFCURVE",
"328 428 CURVE SMOOTH",
"401 428 OFFCURVE",
"413 336 OFFCURVE",
"377 234 CURVE SMOOTH"
);
},
{
closed = 1;
nodes = (
"428 405 OFFCURVE",
"395 454 OFFCURVE",
"330 454 CURVE SMOOTH",
"205 454 OFFCURVE",
"43 296 OFFCURVE",
"43 135 CURVE SMOOTH",
"43 60 OFFCURVE",
"84 -14 OFFCURVE",
"183 -14 CURVE SMOOTH",
"256 -14 OFFCURVE",
"304 37 OFFCURVE",
"342 101 CURVE",
"428 322 LINE"
);
}
);
width = 573;
},
{
associatedMasterId = "9372F035-DA38-4B54-966C-CEBA9B53DD02";
backgroundImage = {
crop = "{{260.146, 0}, {47.099, 75.281}}";
imagePath = "../../../../1878 Limprimerie Berger Levrault Notice historique/Italique/La Réhab.jpg";
locked = "1";
transform = "{12.739, 0, 0, 12.739, -3288, -249}";
};
components = (
{
name = "_part-jambage-2";
transform = "{1, 0, 0, 1, 11, 0}";
}
);
guideLines = (
{
angle = 69.8938;
position = "{517, 215}";
}
);
layerId = "F0D5E5F3-5F7C-4D93-93A9-AB0B0EF87B1F";
name = "Oct 18 17, 11:20";
paths = (
{
closed = 1;
nodes = (
"345 103 OFFCURVE",
"271 12 OFFCURVE",
"190 12 CURVE SMOOTH",
"148 12 OFFCURVE",
"122 44 OFFCURVE",
"122 107 CURVE SMOOTH",
"122 242 OFFCURVE",
"238 428 OFFCURVE",
"343 428 CURVE SMOOTH",
"416 428 OFFCURVE",
"428 336 OFFCURVE",
"392 234 CURVE SMOOTH"
);
},
{
closed = 1;
nodes = (
"443 405 OFFCURVE",
"410 454 OFFCURVE",
"345 454 CURVE SMOOTH",
"207 454 OFFCURVE",
"45 296 OFFCURVE",
"45 135 CURVE SMOOTH",
"45 60 OFFCURVE",
"86 -14 OFFCURVE",
"185 -14 CURVE SMOOTH",
"264 -14 OFFCURVE",
"316 37 OFFCURVE",
"357 101 CURVE",
"443 322 LINE"
);
}
);
visible = 1;
width = 583;
}
);
unicode = 0061;
},
{
glyphname = b;
lastChange = "2017-10-18 12:38:02 +0000";
layers = (
{
backgroundImage = {
crop = "{{299.553, 0}, {47.099, 75.281}}";
imagePath = "../../../../1878 Limprimerie Berger Levrault Notice historique/Italique/La Réhab.jpg";
locked = "1";
transform = "{12.739, 0, 4.63662, 12.739, -4202.047, -249}";
};
components = (
{
name = "_part-attaque-asc";
transform = "{1, 0, 0, 1, -38, 0}";
}
);
layerId = "9372F035-DA38-4B54-966C-CEBA9B53DD02";
paths = (
{
closed = 1;
nodes = (
"340 -14 OFFCURVE",
"480 122 OFFCURVE",
"480 287 CURVE SMOOTH",
"480 380 OFFCURVE",
"419 454 OFFCURVE",
"333 454 CURVE SMOOTH",
"282 454 OFFCURVE",
"228 429 OFFCURVE",
"204 378 CURVE",
"209 370 LINE",
"331 702 LINE",
"265 702 LINE",
"91 233 LINE SMOOTH",
"26 71 OFFCURVE",
"86 -14 OFFCURVE",
"212 -14 CURVE SMOOTH"
);
},
{
closed = 1;
nodes = (
"121 10 OFFCURVE",
"110 90 OFFCURVE",
"157 221 CURVE SMOOTH",
"176 274 LINE SMOOTH",
"206 358 OFFCURVE",
"251 430 OFFCURVE",
"327 430 CURVE SMOOTH",
"368 430 OFFCURVE",
"408 397 OFFCURVE",
"408 326 CURVE SMOOTH",
"408 184 OFFCURVE",
"311 10 OFFCURVE",
"212 10 CURVE SMOOTH"
);
}
);
width = 530;
}
);
unicode = 0062;
},
{
glyphname = c;
lastChange = "2017-10-18 09:58:33 +0000";
layers = (
{
background = {
components = (
{
name = e;
transform = "{1, 0, 0, 1, 1, 0}";
}
);
};
backgroundImage = {
crop = "{{1699.198, 1329.662}, {222.166, 366.573}}";
imagePath = "../../../../1878 Limprimerie Berger Levrault Notice historique/Italique/Nancy.JPG";
locked = "1";
transform = "{2.71505, -0.04769, 1.04221, 2.73241, -6406.726, -3916}";
};
layerId = "9372F035-DA38-4B54-966C-CEBA9B53DD02";
paths = (
{
closed = 1;
nodes = (
"376 106 LINE",
"354 56 OFFCURVE",
"298 16 OFFCURVE",
"243 16 CURVE SMOOTH",
"167 16 OFFCURVE",
"132 77 OFFCURVE",
"132 152 CURVE SMOOTH",
"132 276 OFFCURVE",
"220 432 OFFCURVE",
"308 432 CURVE SMOOTH",
"351 432 OFFCURVE",
"346 397 OFFCURVE",
"346 370 CURVE SMOOTH",
"346 346 OFFCURVE",
"363 331 OFFCURVE",
"388 331 CURVE SMOOTH",
"417 331 OFFCURVE",
"432 357 OFFCURVE",
"432 381 CURVE SMOOTH",
"432 405 OFFCURVE",
"421 454 OFFCURVE",
"323 454 CURVE SMOOTH",
"191 454 OFFCURVE",
"54 316 OFFCURVE",
"54 150 CURVE SMOOTH",
"54 53 OFFCURVE",
"112 -14 OFFCURVE",
"222 -14 CURVE SMOOTH",
"313 -14 OFFCURVE",
"368 35 OFFCURVE",
"396 94 CURVE"
);
}
);
width = 445;
}
);
leftMetricsKey = o;
unicode = 0063;
},
{
glyphname = e;
lastChange = "2017-10-18 09:58:33 +0000";
layers = (
{
background = {
components = (
{
name = c;
}
);
};
backgroundImage = {
crop = "{{25.73, 7.363}, {39.585, 78.379}}";
imagePath = "../../../../1878 Limprimerie Berger Levrault Notice historique/Italique/réotypie.JPG";
locked = "1";
transform = "{13.14533, 0, 14.35353, 13.14533, -1568.378, -393}";
};
layerId = "9372F035-DA38-4B54-966C-CEBA9B53DD02";
paths = (
{
closed = 1;
nodes = (
"356 101 LINE",
"317 52 OFFCURVE",
"279 16 OFFCURVE",
"228 16 CURVE SMOOTH",
"157 16 OFFCURVE",
"133 83 OFFCURVE",
"133 143 CURVE SMOOTH",
"133 278 OFFCURVE",
"221 432 OFFCURVE",
"309 432 CURVE SMOOTH",
"346 432 OFFCURVE",
"360 412 OFFCURVE",
"360 385 CURVE SMOOTH",
"360 342 OFFCURVE",
"329 267 OFFCURVE",
"193 238 CURVE SMOOTH",
"130 225 LINE",
"128 204 LINE",
"216 219 LINE SMOOTH",
"335 239 OFFCURVE",
"419 298 OFFCURVE",
"419 374 CURVE SMOOTH",
"419 422 OFFCURVE",
"375 454 OFFCURVE",
"315 454 CURVE SMOOTH",
"192 454 OFFCURVE",
"55 316 OFFCURVE",
"55 157 CURVE SMOOTH",
"55 53 OFFCURVE",
"106 -14 OFFCURVE",
"206 -14 CURVE SMOOTH",
"287 -14 OFFCURVE",
"343 38 OFFCURVE",
"372 87 CURVE"
);
}
);
width = 432;
},
{
associatedMasterId = "9372F035-DA38-4B54-966C-CEBA9B53DD02";
background = {
paths = (
{
closed = 1;
nodes = (
"372 106 LINE",
"350 56 OFFCURVE",
"294 8 OFFCURVE",
"234 8 CURVE SMOOTH",
"152 8 OFFCURVE",
"120 66 OFFCURVE",
"120 143 CURVE SMOOTH",
"120 262 OFFCURVE",
"216 432 OFFCURVE",
"304 432 CURVE SMOOTH",
"347 432 OFFCURVE",
"342 397 OFFCURVE",
"342 370 CURVE SMOOTH",
"342 346 OFFCURVE",
"359 331 OFFCURVE",
"384 331 CURVE SMOOTH",
"413 331 OFFCURVE",
"428 357 OFFCURVE",
"428 381 CURVE SMOOTH",
"428 405 OFFCURVE",
"417 454 OFFCURVE",
"319 454 CURVE SMOOTH",
"187 454 OFFCURVE",
"50 316 OFFCURVE",
"50 157 CURVE SMOOTH",
"50 53 OFFCURVE",
"108 -14 OFFCURVE",
"222 -14 CURVE SMOOTH",
"307 -14 OFFCURVE",
"364 35 OFFCURVE",
"392 94 CURVE"
);
}
);
};
backgroundImage = {
crop = "{{25.73, 7.363}, {39.585, 78.379}}";
imagePath = "../../../../1878 Limprimerie Berger Levrault Notice historique/Italique/réotypie.JPG";
locked = "1";
transform = "{13.14533, 0, 0, 13.14533, -364, -393}";
};
layerId = "B0692760-8043-4FE8-813D-C88D8CB06F71";
name = "Oct 16 17, 15:34";
paths = (
{
closed = 1;
nodes = (
"369 101 LINE",
"330 52 OFFCURVE",
"281 8 OFFCURVE",
"223 8 CURVE SMOOTH",
"159 8 OFFCURVE",
"121 66 OFFCURVE",
"120 143 CURVE SMOOTH",
"119 278 OFFCURVE",
"216 432 OFFCURVE",
"312 432 CURVE SMOOTH",
"351 432 OFFCURVE",
"362 412 OFFCURVE",
"362 385 CURVE SMOOTH",
"362 336 OFFCURVE",
"312 255 OFFCURVE",
"162 217 CURVE SMOOTH",
"115 205 LINE",
"113 186 LINE",
"187 201 LINE SMOOTH",
"309 226 OFFCURVE",
"400 288 OFFCURVE",
"400 374 CURVE SMOOTH",
"400 417 OFFCURVE",
"370 454 OFFCURVE",
"303 454 CURVE SMOOTH",
"187 454 OFFCURVE",
"50 316 OFFCURVE",
"50 157 CURVE SMOOTH",
"50 53 OFFCURVE",
"107 -14 OFFCURVE",
"219 -14 CURVE SMOOTH",
"293 -14 OFFCURVE",
"342 29 OFFCURVE",
"385 87 CURVE"
);
}
);
width = 422;
}
);
leftMetricsKey = o;
unicode = 0065;
},
{
glyphname = f;
lastChange = "2017-10-18 12:41:15 +0000";
layers = (
{
background = {
paths = (
{
closed = 0;
nodes = (
"-11 -185 LINE SMOOTH",
"-26 -242 OFFCURVE",
"-62 -268 OFFCURVE",
"-95 -268 CURVE SMOOTH",
"-107 -268 OFFCURVE",
"-111 -266 OFFCURVE",
"-111 -261 CURVE SMOOTH",
"-111 -251 OFFCURVE",
"-101 -243 OFFCURVE",
"-101 -217 CURVE SMOOTH",
"-101 -188 OFFCURVE",
"-121 -167 OFFCURVE",
"-149 -167 CURVE SMOOTH",
"-181 -167 OFFCURVE",
"-200 -193 OFFCURVE",
"-200 -220 CURVE SMOOTH",
"-200 -250 OFFCURVE",
"-181 -290 OFFCURVE",
"-82 -290 CURVE SMOOTH",
"-12 -290 OFFCURVE",
"42 -251 OFFCURVE",
"67 -166 CURVE SMOOTH"
);
}
);
};
backgroundImage = {
crop = "{{104.087, 0}, {76.957, 117.914}}";
imagePath = "../../../../1878 Limprimerie Berger Levrault Notice historique/Italique/Il fallait.JPG";
locked = "1";
transform = "{10.96095, -1.19787, 5.34602, 11.39694, -1908.875, -276}";
};
guideLines = (
{
angle = 249.9307;
position = "{155, 313}";
}
);
layerId = "9372F035-DA38-4B54-966C-CEBA9B53DD02";
paths = (
{
closed = 1;
nodes = (
"378 416 LINE",
"385 440 LINE",
"118 440 LINE",
"111 416 LINE"
);
},
{
closed = 1;
nodes = (
"-31 -208 OFFCURVE",
"-59 -268 OFFCURVE",
"-100 -268 CURVE SMOOTH",
"-112 -268 OFFCURVE",
"-116 -266 OFFCURVE",
"-116 -261 CURVE SMOOTH",
"-116 -251 OFFCURVE",
"-106 -243 OFFCURVE",
"-106 -217 CURVE SMOOTH",
"-106 -188 OFFCURVE",
"-126 -167 OFFCURVE",
"-154 -167 CURVE SMOOTH",
"-186 -167 OFFCURVE",
"-205 -193 OFFCURVE",
"-205 -220 CURVE SMOOTH",
"-205 -250 OFFCURVE",
"-186 -290 OFFCURVE",
"-112 -290 CURVE SMOOTH",
"-26 -290 OFFCURVE",
"24 -253 OFFCURVE",
"61 -145 CURVE SMOOTH",
"336 615 LINE SMOOTH",
"355 672 OFFCURVE",
"399 698 OFFCURVE",
"440 698 CURVE SMOOTH",
"452 698 OFFCURVE",
"456 696 OFFCURVE",
"456 691 CURVE SMOOTH",
"456 681 OFFCURVE",
"446 673 OFFCURVE",
"446 647 CURVE SMOOTH",
"446 618 OFFCURVE",
"466 597 OFFCURVE",
"494 597 CURVE SMOOTH",
"526 597 OFFCURVE",
"545 623 OFFCURVE",
"545 650 CURVE SMOOTH",
"545 680 OFFCURVE",
"526 720 OFFCURVE",
"427 720 CURVE SMOOTH",
"348 720 OFFCURVE",
"286 681 OFFCURVE",
"258 596 CURVE SMOOTH",
"-5 -129 LINE SMOOTH"
);
}
);
width = 340;
}
);
unicode = 0066;
},
{
glyphname = g;
lastChange = "2017-10-18 09:58:33 +0000";
layers = (
{
associatedMasterId = "9372F035-DA38-4B54-966C-CEBA9B53DD02";
backgroundImage = {
crop = "{{99.169, 8.386}, {46.161, 76.166}}";
imagePath = "../../../../1878 Limprimerie Berger Levrault Notice historique/Italique/Réglu.jpg";
locked = "1";
transform = "{12.998, 0, 0, 12.998, -1329, -389}";
};
layerId = "449A8564-B371-4B78-AF17-3B1E13E5D3DE";
name = "Oct 17 17, 14:04";
paths = (
{
closed = 1;
nodes = (
"372 137 OFFCURVE",
"460 206 OFFCURVE",
"460 301 CURVE SMOOTH",
"460 367 OFFCURVE",
"412 434 OFFCURVE",
"317 434 CURVE SMOOTH",
"213 434 OFFCURVE",
"128 367 OFFCURVE",
"128 272 CURVE SMOOTH",
"128 206 OFFCURVE",
"178 137 OFFCURVE",
"270 137 CURVE SMOOTH"
);
},
{
closed = 1;
nodes = (
"226 159 OFFCURVE",
"192 198 OFFCURVE",
"192 253 CURVE SMOOTH",
"192 321 OFFCURVE",
"241 412 OFFCURVE",
"318 412 CURVE SMOOTH",
"364 412 OFFCURVE",
"396 376 OFFCURVE",
"396 324 CURVE SMOOTH",
"396 257 OFFCURVE",
"354 159 OFFCURVE",
"272 159 CURVE SMOOTH"
);
},
{
closed = 1;
nodes = (
"205 183 LINE",
"205 183 OFFCURVE",
"164 189 OFFCURVE",
"142 189 CURVE SMOOTH",
"96 189 OFFCURVE",
"41 172 OFFCURVE",
"41 113 CURVE SMOOTH",
"41 27 OFFCURVE",
"150 6 OFFCURVE",
"219 3 CURVE SMOOTH",
"330 -3 OFFCURVE",
"379 -48 OFFCURVE",
"379 -108 CURVE SMOOTH",
"379 -168 OFFCURVE",
"338 -240 OFFCURVE",
"212 -240 CURVE SMOOTH",
"49 -240 OFFCURVE",
"19 -162 OFFCURVE",
"19 -124 CURVE SMOOTH",
"19 -98 OFFCURVE",
"53 -54 OFFCURVE",
"53 -41 CURVE SMOOTH",
"53 -29 OFFCURVE",
"42 -19 OFFCURVE",
"23 -19 CURVE SMOOTH",
"8 -19 OFFCURVE",
"-31 -32 OFFCURVE",
"-31 -86 CURVE SMOOTH",
"-31 -207 OFFCURVE",
"77 -262 OFFCURVE",
"212 -262 CURVE SMOOTH",
"312 -262 OFFCURVE",
"430 -208 OFFCURVE",
"430 -86 CURVE SMOOTH",
"430 33 OFFCURVE",
"335 62 OFFCURVE",
"223 69 CURVE SMOOTH",
"128 75 OFFCURVE",
"85 95 OFFCURVE",
"85 129 CURVE SMOOTH",
"85 157 OFFCURVE",
"112 170 OFFCURVE",
"145 170 CURVE SMOOTH",
"181 170 OFFCURVE",
"213 165 OFFCURVE",
"247 162 CURVE"
);
},
{
closed = 1;
nodes = (
"447 409 LINE SMOOTH",
"464 421 OFFCURVE",
"476 425 OFFCURVE",
"490 425 CURVE SMOOTH",
"512 425 OFFCURVE",
"507 387 OFFCURVE",
"543 387 CURVE SMOOTH",
"560 387 OFFCURVE",
"569 400 OFFCURVE",
"569 413 CURVE SMOOTH",
"569 442 OFFCURVE",
"537 454 OFFCURVE",
"508 454 CURVE SMOOTH",
"474 454 OFFCURVE",
"436 428 OFFCURVE",
"422 417 CURVE SMOOTH",
"402 402 LINE",
"416 386 LINE"
);
}
);
width = 540;
},
{
backgroundImage = {
crop = "{{99.169, 8.386}, {46.161, 76.166}}";
imagePath = "../../../../1878 Limprimerie Berger Levrault Notice historique/Italique/Réglu.jpg";
locked = "1";
transform = "{12.998, 0, 4.73089, 12.998, -1729.003, -389}";
};
layerId = "9372F035-DA38-4B54-966C-CEBA9B53DD02";
paths = (
{
closed = 1;
nodes = (
"377 157 OFFCURVE",
"465 226 OFFCURVE",
"465 321 CURVE SMOOTH",
"465 387 OFFCURVE",
"417 454 OFFCURVE",
"322 454 CURVE SMOOTH",
"218 454 OFFCURVE",
"133 387 OFFCURVE",
"133 292 CURVE SMOOTH",
"133 226 OFFCURVE",
"183 157 OFFCURVE",
"275 157 CURVE SMOOTH"
);
},
{
closed = 1;
nodes = (
"231 179 OFFCURVE",
"197 218 OFFCURVE",
"197 273 CURVE SMOOTH",
"197 341 OFFCURVE",
"246 432 OFFCURVE",
"323 432 CURVE SMOOTH",
"369 432 OFFCURVE",
"401 396 OFFCURVE",
"401 344 CURVE SMOOTH",
"401 277 OFFCURVE",
"359 179 OFFCURVE",
"277 179 CURVE SMOOTH"
);
},
{
closed = 1;
nodes = (
"210 183 LINE",
"210 183 OFFCURVE",
"169 189 OFFCURVE",
"147 189 CURVE SMOOTH",
"101 189 OFFCURVE",
"46 172 OFFCURVE",
"46 113 CURVE SMOOTH",
"46 27 OFFCURVE",
"155 6 OFFCURVE",
"224 3 CURVE SMOOTH",
"335 -3 OFFCURVE",
"384 -48 OFFCURVE",
"384 -108 CURVE SMOOTH",
"384 -168 OFFCURVE",
"343 -240 OFFCURVE",
"217 -240 CURVE SMOOTH",
"54 -240 OFFCURVE",
"24 -162 OFFCURVE",
"24 -124 CURVE SMOOTH",
"24 -98 OFFCURVE",
"58 -54 OFFCURVE",
"58 -41 CURVE SMOOTH",
"58 -29 OFFCURVE",
"47 -19 OFFCURVE",
"28 -19 CURVE SMOOTH",
"13 -19 OFFCURVE",
"-26 -32 OFFCURVE",
"-26 -86 CURVE SMOOTH",
"-26 -207 OFFCURVE",
"82 -262 OFFCURVE",
"217 -262 CURVE SMOOTH",
"317 -262 OFFCURVE",
"435 -208 OFFCURVE",
"435 -80 CURVE SMOOTH",
"435 33 OFFCURVE",
"340 62 OFFCURVE",
"228 69 CURVE SMOOTH",
"133 75 OFFCURVE",
"90 95 OFFCURVE",
"90 129 CURVE SMOOTH",
"90 157 OFFCURVE",
"117 170 OFFCURVE",
"150 170 CURVE SMOOTH",
"186 170 OFFCURVE",
"218 165 OFFCURVE",
"252 162 CURVE"
);
},
{
closed = 1;
nodes = (
"446 410 LINE SMOOTH",
"458 420 OFFCURVE",
"474 425 OFFCURVE",
"484 425 CURVE SMOOTH",
"517 425 OFFCURVE",
"506 387 OFFCURVE",
"542 387 CURVE SMOOTH",
"559 387 OFFCURVE",
"568 400 OFFCURVE",
"568 413 CURVE SMOOTH",
"568 442 OFFCURVE",
"536 454 OFFCURVE",
"507 454 CURVE SMOOTH",
"471 454 OFFCURVE",
"444 436 OFFCURVE",
"428 422 CURVE SMOOTH",
"413 410 LINE",
"427 394 LINE"
);
}
);
width = 540;
}
);
unicode = 0067;
},
{
glyphname = jdotless;
lastChange = "2017-10-17 09:12:06 +0000";
layers = (
{
anchors = (
{
name = top;
position = "{193, 440}";
}
);
layerId = "9372F035-DA38-4B54-966C-CEBA9B53DD02";
paths = (
{
closed = 1;
nodes = (
"248 440 LINE",
"182 440 LINE",
"-20 -131 LINE SMOOTH",
"-49 -214 OFFCURVE",
"-76 -268 OFFCURVE",
"-117 -268 CURVE SMOOTH",
"-129 -268 OFFCURVE",
"-133 -266 OFFCURVE",
"-133 -261 CURVE SMOOTH",
"-133 -251 OFFCURVE",
"-123 -243 OFFCURVE",
"-123 -217 CURVE SMOOTH",
"-123 -188 OFFCURVE",
"-143 -167 OFFCURVE",
"-171 -167 CURVE SMOOTH",
"-203 -167 OFFCURVE",
"-222 -193 OFFCURVE",
"-222 -220 CURVE SMOOTH",
"-222 -250 OFFCURVE",
"-203 -290 OFFCURVE",
"-129 -290 CURVE SMOOTH",
"-44 -290 OFFCURVE",
"5 -251 OFFCURVE",
"42 -145 CURVE SMOOTH"
);
},
{
closed = 1;
nodes = (
"212 342 LINE",
"249 443 LINE",
"87 440 LINE",
"80 416 LINE",
"130 416 OFFCURVE",
"179 423 OFFCURVE",
"144 331 CURVE"
);
}
);
width = 294;
}
);
unicode = 0237;
},
{
glyphname = k;
lastChange = "2017-10-18 12:50:24 +0000";
layers = (
{
associatedMasterId = "9372F035-DA38-4B54-966C-CEBA9B53DD02";
background = {
components = (
{
name = u;
transform = "{1, 0, 0, 1, -6, 0}";
}
);
};
components = (
{
locked = 1;
name = "_part-ascendante";
transform = "{1, 0, 0, 1, -36, 0}";
}
);
layerId = "738B2E8F-9735-44A6-AF4F-B7260322025B";
name = "Oct 16 17, 18:25";
paths = (
{
closed = 1;
nodes = (
"190 252 LINE",
"350 379 LINE SMOOTH",
"375 399 OFFCURVE",
"394 414 OFFCURVE",
"404 414 CURVE SMOOTH",
"419 414 OFFCURVE",
"423 386 OFFCURVE",
"456 386 CURVE SMOOTH",
"479 386 OFFCURVE",
"496 400 OFFCURVE",
"496 420 CURVE SMOOTH",
"496 440 OFFCURVE",
"479 454 OFFCURVE",
"450 454 CURVE SMOOTH",
"413 454 OFFCURVE",
"384 431 OFFCURVE",
"333 392 CURVE SMOOTH",
"190 283 LINE"
);
},
{
closed = 1;
nodes = (
"447 59 LINE",
"412 29 OFFCURVE",
"398 19 OFFCURVE",
"377 19 CURVE SMOOTH",
"354 19 OFFCURVE",
"335 53 OFFCURVE",
"311 114 CURVE SMOOTH",
"231 315 LINE",
"176 274 LINE",
"244 111 LINE SMOOTH",
"274 39 OFFCURVE",
"288 -14 OFFCURVE",
"347 -14 CURVE SMOOTH",
"384 -14 OFFCURVE",
"420 -1 OFFCURVE",
"460 41 CURVE"
);
}
);
width = 497;
},
{
background = {
components = (
{
name = u;
transform = "{1, 0, 0, 1, -26, 0}";
}
);
};
components = (
{
name = "_part-ascendante";
transform = "{1, 0, 0, 1, -33, 0}";
}
);
layerId = "9372F035-DA38-4B54-966C-CEBA9B53DD02";
paths = (
{
closed = 1;
nodes = (
"144 192 LINE",
"363 379 LINE SMOOTH",
"386 400 OFFCURVE",
"404 414 OFFCURVE",
"412 414 CURVE SMOOTH",
"432 414 OFFCURVE",
"436 379 OFFCURVE",
"472 379 CURVE SMOOTH",
"496 379 OFFCURVE",
"516 396 OFFCURVE",
"516 420 CURVE SMOOTH",
"516 440 OFFCURVE",
"497 454 OFFCURVE",
"463 454 CURVE SMOOTH",
"426 454 OFFCURVE",
"388 429 OFFCURVE",
"346 392 CURVE SMOOTH",
"160 237 LINE"
);
},
{
closed = 1;
nodes = (
"469 70 LINE",
"424 32 OFFCURVE",
"408 19 OFFCURVE",
"395 19 CURVE SMOOTH",
"363 19 OFFCURVE",
"349 68 OFFCURVE",
"331 114 CURVE SMOOTH",
"255 313 LINE",
"203 264 LINE",
"261 111 LINE SMOOTH",
"291 33 OFFCURVE",
"300 -14 OFFCURVE",
"364 -14 CURVE SMOOTH",
"401 -14 OFFCURVE",
"430 -1 OFFCURVE",
"483 52 CURVE"
);
}
);
width = 505;
}
);
unicode = 006B;
},
{
glyphname = l;
lastChange = "2017-10-18 10:14:13 +0000";
layers = (
{
backgroundImage = {
crop = "{{143.791, 8.386}, {30.774, 76.166}}";
imagePath = "../../../../1878 Limprimerie Berger Levrault Notice historique/Italique/Réglu.jpg";
locked = "1";
transform = "{12.998, 0, 4.73089, 12.998, -2279.003, -389}";
};
components = (
{
name = "_part-sortie-2";
transform = "{1, 0, 0, 1, -276, 0}";
},
{
name = "_part-attaque-asc";
transform = "{1, 0, 0, 1, -23, 0}";
}
);
guideLines = (
{
angle = 70;
position = "{226, 539}";
},
{
angle = 70;
position = "{156, 539}";
}
);
layerId = "9372F035-DA38-4B54-966C-CEBA9B53DD02";
paths = (
{
closed = 1;
nodes = (
"346 702 LINE",
"280 702 LINE",
"69 131 LINE",
"129 99 LINE"
);
}
);
width = 310;
}
);
unicode = 006C;
},
{
glyphname = m;
lastChange = "2017-10-18 09:58:33 +0000";
layers = (
{
background = {
components = (
{
name = n;
}
);
};
backgroundImage = {
crop = "{{1110.303, 1327.294}, {288.39, 360.104}}";
imagePath = "../../../../1878 Limprimerie Berger Levrault Notice historique/Italique/jamais.JPG";
locked = "1";
transform = "{2.77402, 0, 1.00063, 2.7492, -4748.458, -3929}";
};
components = (
{
name = "_part-fut";
transform = "{1, 0, 0, 1, 13, 0}";
}
);
layerId = "9372F035-DA38-4B54-966C-CEBA9B53DD02";
paths = (
{
closed = 1;
nodes = (
"362 0 LINE",
"482 331 LINE SMOOTH",
"497 395 OFFCURVE",
"494 454 OFFCURVE",
"406 454 CURVE SMOOTH",
"288 454 OFFCURVE",
"202 323 OFFCURVE",
"178 255 CURVE",
"201 257 LINE",
"226 329 OFFCURVE",
"316 429 OFFCURVE",
"387 429 CURVE SMOOTH",
"416 429 OFFCURVE",
"437 408 OFFCURVE",
"418 356 CURVE SMOOTH",
"288 0 LINE"
);
},
{
closed = 1;
nodes = (
"713 55 OFFCURVE",
"682 19 OFFCURVE",
"659 19 CURVE SMOOTH",
"634 19 OFFCURVE",
"639 60 OFFCURVE",
"653 103 CURVE SMOOTH",
"736 331 LINE SMOOTH",
"759 393 OFFCURVE",
"748 454 OFFCURVE",
"660 454 CURVE SMOOTH",
"542 454 OFFCURVE",
"456 323 OFFCURVE",
"432 255 CURVE",
"455 257 LINE",
"480 329 OFFCURVE",
"570 429 OFFCURVE",
"641 429 CURVE SMOOTH",
"670 429 OFFCURVE",
"691 409 OFFCURVE",
"672 356 CURVE SMOOTH",
"591 135 LINE SMOOTH",
"560 49 OFFCURVE",
"553 -14 OFFCURVE",
"638 -14 CURVE SMOOTH",
"683 -14 OFFCURVE",
"723 31 OFFCURVE",
"748 72 CURVE",
"730 84 LINE"
);
}
);
width = 807;
}
);
leftMetricsKey = n;
rightMetricsKey = n;
unicode = 006D;
},
{
glyphname = o;
lastChange = "2017-10-18 12:41:13 +0000";
layers = (
{
backgroundImage = {
crop = "{{60.011, 7.363}, {39.585, 78.379}}";
imagePath = "../../../../1878 Limprimerie Berger Levrault Notice historique/Italique/réotypie.JPG";
locked = "1";
transform = "{12.92737, 0, 18.82071, 12.92737, -2368.101, -387}";
};
layerId = "9372F035-DA38-4B54-966C-CEBA9B53DD02";
paths = (
{
closed = 1;
nodes = (
"358 -14 OFFCURVE",
"496 124 OFFCURVE",
"496 278 CURVE SMOOTH",
"496 369 OFFCURVE",
"447 454 OFFCURVE",
"337 454 CURVE SMOOTH",
"191 454 OFFCURVE",
"58 316 OFFCURVE",
"58 169 CURVE SMOOTH",
"58 74 OFFCURVE",
"110 -14 OFFCURVE",
"217 -14 CURVE SMOOTH"
);
},
{
closed = 1;
nodes = (
"173 8 OFFCURVE",
"128 40 OFFCURVE",
"128 113 CURVE SMOOTH",
"128 245 OFFCURVE",
"220 432 OFFCURVE",
"336 432 CURVE SMOOTH",
"381 432 OFFCURVE",
"426 404 OFFCURVE",
"426 331 CURVE SMOOTH",
"426 209 OFFCURVE",
"339 8 OFFCURVE",
"218 8 CURVE SMOOTH"
);
}
);
width = 540;
}
);
unicode = 006F;
},
{
glyphname = p;
lastChange = "2017-10-18 09:58:33 +0000";
layers = (
{
backgroundImage = {
crop = "{{146.073, 7.363}, {47.503, 78.38}}";
imagePath = "../../../../1878 Limprimerie Berger Levrault Notice historique/Italique/réotypie.JPG";
locked = "1";
transform = "{12.63069, 0, 4.5972, 12.63069, -2344.18, -373}";
};
guideLines = (
{
angle = 70;
position = "{192, 545}";
}
);
layerId = "9372F035-DA38-4B54-966C-CEBA9B53DD02";
paths = (
{
closed = 1;
nodes = (
"75 -280 LINE",
"82 -256 LINE",
"11 -256 LINE",
"149 125 LINE",
"175 240 LINE",
"213 342 LINE",
"243 443 LINE",
"105 440 LINE",
"97 416 LINE",
"146 416 OFFCURVE",
"185 422 OFFCURVE",
"157 345 CURVE SMOOTH",
"-38 -189 LINE SMOOTH",
"-60 -248 OFFCURVE",
"-70 -256 OFFCURVE",
"-103 -256 CURVE SMOOTH",
"-123 -256 LINE",
"-131 -280 LINE"
);
},
{
closed = 1;
nodes = (
"164 10 OFFCURVE",
"132 89 OFFCURVE",
"179 221 CURVE SMOOTH",
"198 274 LINE SMOOTH",
"229 359 OFFCURVE",
"281 430 OFFCURVE",
"346 430 CURVE SMOOTH",
"386 430 OFFCURVE",
"420 397 OFFCURVE",
"420 326 CURVE SMOOTH",
"420 184 OFFCURVE",
"334 10 OFFCURVE",
"238 10 CURVE SMOOTH"
);
},
{
closed = 1;
nodes = (
"363 -14 OFFCURVE",
"492 122 OFFCURVE",
"492 274 CURVE SMOOTH",
"492 369 OFFCURVE",
"442 454 OFFCURVE",
"351 454 CURVE SMOOTH",
"299 454 OFFCURVE",
"246 432 OFFCURVE",
"199 337 CURVE",
"148 196 LINE",
"101 70 OFFCURVE",
"149 -14 OFFCURVE",
"239 -14 CURVE SMOOTH"
);
}
);
width = 538;
},
{
associatedMasterId = "9372F035-DA38-4B54-966C-CEBA9B53DD02";
backgroundImage = {
crop = "{{146.073, 7.363}, {47.503, 78.38}}";
imagePath = "../../../../1878 Limprimerie Berger Levrault Notice historique/Italique/réotypie.JPG";
locked = "1";
transform = "{12.63069, 0, 0, 12.63069, -1950, -373}";
};
guideLines = (
{
angle = 70;
position = "{247, 545}";
}
);
layerId = "4DBAC77B-C555-4C53-A4F4-37F0C3FA7B6B";
name = "Oct 16 17, 14:17";
paths = (
{
closed = 1;
nodes = (
"266 254 LINE",
"241 186 LINE SMOOTH",
"206 89 OFFCURVE",
"243 8 OFFCURVE",
"313 8 CURVE SMOOTH",
"409 8 OFFCURVE",
"495 184 OFFCURVE",
"495 326 CURVE SMOOTH",
"495 397 OFFCURVE",
"461 432 OFFCURVE",
"421 432 CURVE SMOOTH",
"356 432 OFFCURVE",
"304 359 OFFCURVE",
"288 316 CURVE SMOOTH"
);
},
{
closed = 1;
nodes = (
"281 354 LINE",
"321 426 OFFCURVE",
"374 454 OFFCURVE",
"426 454 CURVE SMOOTH",
"517 454 OFFCURVE",
"567 369 OFFCURVE",
"567 274 CURVE SMOOTH",
"567 122 OFFCURVE",
"438 -14 OFFCURVE",
"314 -14 CURVE SMOOTH",
"224 -14 OFFCURVE",
"176 70 OFFCURVE",
"217 189 CURVE"
);
},
{
closed = 1;
nodes = (
"227 340 LINE",
"11 -256 LINE",
"82 -256 LINE",
"75 -280 LINE",
"-131 -280 LINE",
"-123 -256 LINE",
"-103 -256 LINE SMOOTH",
"-70 -256 OFFCURVE",
"-60 -248 OFFCURVE",
"-38 -189 CURVE SMOOTH",
"157 345 LINE SMOOTH",
"185 422 OFFCURVE",
"146 416 OFFCURVE",
"97 416 CURVE",
"105 440 LINE",
"253 443 LINE",
"223 342 LINE"
);
}
);
width = 543;
}
);
rightMetricsKey = o;
unicode = 0070;
},
{
glyphname = q;
lastChange = "2017-10-18 09:58:33 +0000";
layers = (
{
background = {
components = (
{
name = u;
transform = "{1, 0, 0, 1, 6, 0}";
}
);
};
backgroundImage = {
crop = "{{1307.132, 1323.708}, {196.25, 359.131}}";
imagePath = "../../../../1878 Limprimerie Berger Levrault Notice historique/Italique/ilboquet.JPG";
locked = "1";
transform = "{3.05733, 0, 1.00334, 2.75665, -5684.792, -3929}";
};
components = (
{
name = "_part-adq";
transform = "{1, 0, 0, 1, -1, 0}";
}
);
layerId = "9372F035-DA38-4B54-966C-CEBA9B53DD02";
paths = (
{
closed = 1;
nodes = (
"341 -280 LINE",
"348 -256 LINE",
"287 -256 LINE",
"537 440 LINE",
"467 440 LINE",
"429 336 LINE",
"401 223 LINE",
"347 108 LINE",
"239 -189 LINE SMOOTH",
"218 -248 OFFCURVE",
"206 -256 OFFCURVE",
"173 -256 CURVE SMOOTH",
"133 -256 LINE",
"125 -280 LINE"
);
}
);
width = 560;
}
);
unicode = 0071;
},
{
glyphname = r;
lastChange = "2017-10-18 09:58:33 +0000";
layers = (
{
backgroundImage = {
crop = "{{0, 7.363}, {31.351, 78.379}}";
imagePath = "../../../../1878 Limprimerie Berger Levrault Notice historique/Italique/réotypie.JPG";
locked = "1";
transform = "{12.89112, 0, 9.38397, 12.89112, -779.183, -381}";
};
components = (
{
name = "_part-fut";
transform = "{1, 0, 0, 1, 8, 0}";
}
);
guideLines = (
{
angle = 70;
position = "{180, 545}";
},
{
angle = 70;
position = "{249, 539}";
},
{
position = "{-97, 430}";
}
);
layerId = "9372F035-DA38-4B54-966C-CEBA9B53DD02";
paths = (
{
closed = 1;
nodes = (
"196 257 LINE",
"230 351 OFFCURVE",
"296 415 OFFCURVE",
"323 415 CURVE SMOOTH",
"347 415 OFFCURVE",
"336 362 OFFCURVE",
"374 362 CURVE SMOOTH",
"396 362 OFFCURVE",
"416 381 OFFCURVE",
"416 408 CURVE SMOOTH",
"416 442 OFFCURVE",
"389 454 OFFCURVE",
"358 454 CURVE SMOOTH",
"267 454 OFFCURVE",
"195 310 OFFCURVE",
"171 244 CURVE"
);
}
);
width = 379;
}
);
unicode = 0072;
},
{
glyphname = s;
lastChange = "2017-10-18 09:58:33 +0000";
layers = (
{
backgroundImage = {
crop = "{{1448.906, 1273.624}, {202.38, 339.587}}";
imagePath = "../../../../1878 Limprimerie Berger Levrault Notice historique/Italique/Puissan.JPG";
locked = "1";
transform = "{2.94897, -0.02064, 1.09671, 2.95648, -6137.134, -4049}";
};
layerId = "9372F035-DA38-4B54-966C-CEBA9B53DD02";
paths = (
{
closed = 1;
nodes = (
"147 396 OFFCURVE",
"177 432 OFFCURVE",
"229 432 CURVE SMOOTH",
"262 432 OFFCURVE",
"287 416 OFFCURVE",
"287 394 CURVE SMOOTH",
"287 383 OFFCURVE",
"270 377 OFFCURVE",
"270 357 CURVE SMOOTH",
"270 338 OFFCURVE",
"283 324 OFFCURVE",
"301 324 CURVE SMOOTH",
"327 324 OFFCURVE",
"341 348 OFFCURVE",
"341 371 CURVE SMOOTH",
"341 400 OFFCURVE",
"316 454 OFFCURVE",
"230 454 CURVE SMOOTH",
"138 454 OFFCURVE",
"94 388 OFFCURVE",
"94 327 CURVE SMOOTH",
"94 280 OFFCURVE",
"107 249 OFFCURVE",
"140 219 CURVE SMOOTH",
"185 178 LINE SMOOTH",
"219 147 OFFCURVE",
"227 131 OFFCURVE",
"227 99 CURVE SMOOTH",
"227 56 OFFCURVE",
"192 8 OFFCURVE",
"134 8 CURVE SMOOTH",
"92 8 OFFCURVE",
"59 28 OFFCURVE",
"59 55 CURVE SMOOTH",
"59 72 OFFCURVE",
"77 80 OFFCURVE",
"77 105 CURVE SMOOTH",
"77 127 OFFCURVE",
"64 141 OFFCURVE",
"44 141 CURVE SMOOTH",
"14 141 OFFCURVE",
"0 113 OFFCURVE",
"0 93 CURVE SMOOTH",
"0 53 OFFCURVE",
"33 -14 OFFCURVE",
"134 -14 CURVE SMOOTH",
"226 -14 OFFCURVE",
"290 56 OFFCURVE",
"290 124 CURVE SMOOTH",
"290 181 OFFCURVE",
"259 215 OFFCURVE",
"233 238 CURVE SMOOTH",
"187 279 LINE SMOOTH",
"159 304 OFFCURVE",
"147 334 OFFCURVE",
"147 357 CURVE SMOOTH"
);
}
);
width = 351;
},
{
associatedMasterId = "9372F035-DA38-4B54-966C-CEBA9B53DD02";
backgroundImage = {
crop = "{{1448.906, 1273.624}, {202.38, 339.587}}";
imagePath = "../../../../1878 Limprimerie Berger Levrault Notice historique/Italique/Puissan.JPG";
locked = "1";
transform = "{2.95648, -0.02064, 0.02064, 2.95648, -4405, -4049}";
};
layerId = "D785CAB6-474E-4900-B847-20EB8A20100E";
name = "Oct 16 17, 15:58";
paths = (
{
closed = 1;
nodes = (
"146 396 OFFCURVE",
"178 432 OFFCURVE",
"227 432 CURVE SMOOTH",
"262 432 OFFCURVE",
"287 416 OFFCURVE",
"287 394 CURVE SMOOTH",
"287 383 OFFCURVE",
"272 377 OFFCURVE",
"272 357 CURVE SMOOTH",
"272 340 OFFCURVE",
"284 327 OFFCURVE",
"301 327 CURVE SMOOTH",
"325 327 OFFCURVE",
"338 349 OFFCURVE",
"338 371 CURVE SMOOTH",
"338 400 OFFCURVE",
"314 454 OFFCURVE",
"230 454 CURVE SMOOTH",
"141 454 OFFCURVE",
"101 388 OFFCURVE",
"101 327 CURVE SMOOTH",
"101 280 OFFCURVE",
"117 242 OFFCURVE",
"150 211 CURVE SMOOTH",
"190 177 LINE SMOOTH",
"219 156 OFFCURVE",
"228 131 OFFCURVE",
"228 105 CURVE SMOOTH",
"228 56 OFFCURVE",
"187 8 OFFCURVE",
"129 8 CURVE SMOOTH",
"87 8 OFFCURVE",
"54 28 OFFCURVE",
"54 55 CURVE SMOOTH",
"54 72 OFFCURVE",
"69 80 OFFCURVE",
"69 105 CURVE SMOOTH",
"69 125 OFFCURVE",
"57 138 OFFCURVE",
"39 138 CURVE SMOOTH",
"11 138 OFFCURVE",
"-2 112 OFFCURVE",
"-2 93 CURVE SMOOTH",
"-2 53 OFFCURVE",
"30 -14 OFFCURVE",
"129 -14 CURVE SMOOTH",
"221 -14 OFFCURVE",
"285 56 OFFCURVE",
"285 132 CURVE SMOOTH",
"285 187 OFFCURVE",
"263 214 OFFCURVE",
"238 238 CURVE SMOOTH",
"173 298 LINE SMOOTH",
"154 314 OFFCURVE",
"146 334 OFFCURVE",
"146 352 CURVE SMOOTH"
);
}
);
width = 341;
}
);
unicode = 0073;
},
{
glyphname = t;
lastChange = "2017-10-18 12:45:43 +0000";
layers = (
{
background = {
paths = (
{
closed = 1;
nodes = (
"176 55 OFFCURVE",
"145 19 OFFCURVE",
"115 19 CURVE SMOOTH",
"97 19 OFFCURVE",
"95 36 OFFCURVE",
"107 70 CURVE SMOOTH",
"242 440 LINE",
"172 440 LINE",
"41 88 LINE SMOOTH",
"22 36 OFFCURVE",
"28 -14 OFFCURVE",
"97 -14 CURVE SMOOTH",
"146 -14 OFFCURVE",
"178 21 OFFCURVE",
"236 89 CURVE",
"218 105 LINE"
);
}
);
};
backgroundImage = {
crop = "{{99.517, 7.363}, {23.751, 78.379}}";
imagePath = "../../../../1878 Limprimerie Berger Levrault Notice historique/Italique/réotypie.JPG";
locked = "1";
transform = "{12.631, 0, 9.19462, 12.631, -2015.36, -373}";
};
guideLines = (
{
angle = 70;
position = "{83, 523}";
},
{
angle = 70;
position = "{125, 503}";
}
);
layerId = "9372F035-DA38-4B54-966C-CEBA9B53DD02";
paths = (
{
closed = 1;
nodes = (
"153 -14 OFFCURVE",
"185 21 OFFCURVE",
"243 89 CURVE",
"225 105 LINE",
"183 55 OFFCURVE",
"152 19 OFFCURVE",
"123 19 CURVE SMOOTH",
"104 19 OFFCURVE",
"99 36 OFFCURVE",
"112 72 CURVE SMOOTH",
"275 526 LINE",
"208 526 LINE",
"50 92 LINE SMOOTH",
"30 38 OFFCURVE",
"34 -14 OFFCURVE",
"97 -14 CURVE SMOOTH"
);
},
{
closed = 1;
nodes = (
"329 416 LINE",
"337 440 LINE",
"111 440 LINE",
"103 416 LINE"
);
}
);
width = 307;
}
);
unicode = 0074;
},
{
glyphname = u;
lastChange = "2017-10-18 09:58:33 +0000";
layers = (
{
background = {
components = (
{
name = i;
transform = "{1, 0, 0, 1, 270, 0}";
}
);
};
backgroundImage = {
crop = "{{167.872, 8.386}, {46.161, 76.166}}";
imagePath = "../../../../1878 Limprimerie Berger Levrault Notice historique/Italique/Réglu.jpg";
locked = "1";
transform = "{12.998, 0, 9.46177, 12.998, -3032.007, -389}";
};
guideLines = (
{
angle = 70;
position = "{292, 539}";
},
{
angle = 70;
position = "{216, 540}";
},
{
angle = 70;
position = "{542, 522}";
},
{
angle = 70;
position = "{472, 522}";
}
);
layerId = "9372F035-DA38-4B54-966C-CEBA9B53DD02";
paths = (
{
closed = 1;
nodes = (
"270 -14 OFFCURVE",
"360 117 OFFCURVE",
"385 185 CURVE",
"362 183 LINE",
"337 113 OFFCURVE",
"241 11 OFFCURVE",
"172 11 CURVE SMOOTH",
"141 11 OFFCURVE",
"116 33 OFFCURVE",
"138 95 CURVE SMOOTH",
"255 421 LINE",
"189 425 LINE",
"76 125 LINE SMOOTH",
"46 46 OFFCURVE",
"50 -14 OFFCURVE",
"153 -14 CURVE SMOOTH"
);
},
{
closed = 1;
nodes = (
"433 -14 OFFCURVE",
"473 31 OFFCURVE",
"498 68 CURVE",
"480 80 LINE",
"463 55 OFFCURVE",
"428 19 OFFCURVE",
"406 19 CURVE SMOOTH",
"384 19 OFFCURVE",
"388 60 OFFCURVE",
"402 99 CURVE SMOOTH",
"523 440 LINE",
"453 440 LINE",
"343 131 LINE SMOOTH",
"315 52 OFFCURVE",
"313 -14 OFFCURVE",
"376 -14 CURVE SMOOTH"
);
},
{
closed = 1;
nodes = (
"226 342 LINE",
"263 443 LINE",
"99 440 LINE",
"92 416 LINE",
"142 416 OFFCURVE",
"189 423 OFFCURVE",
"154 331 CURVE"
);
}
);
width = 561;
},
{
associatedMasterId = "9372F035-DA38-4B54-966C-CEBA9B53DD02";
backgroundImage = {
crop = "{{167.872, 8.386}, {46.161, 76.166}}";
imagePath = "../../../../1878 Limprimerie Berger Levrault Notice historique/Italique/Réglu.jpg";
transform = "{12.998, 0, 0, 12.998, -2192, -389}";
};
components = (
{
name = "_part-attaque-asc";
transform = "{1, 0, 0, 1, -102, -265}";
}
);
guideLines = (
{
angle = 70;
position = "{306, 539}";
},
{
angle = 70;
position = "{230, 540}";
},
{
angle = 70;
position = "{569, 522}";
},
{
angle = 70;
position = "{499, 522}";
}
);
layerId = "63256523-1E53-4463-9365-D2C2FEB15BDE";
name = "Oct 16 17, 10:35";
paths = (
{
closed = 1;
nodes = (
"263 421 LINE",
"142 88 LINE SMOOTH",
"123 37 OFFCURVE",
"144 15 OFFCURVE",
"173 15 CURVE SMOOTH",
"249 15 OFFCURVE",
"344 115 OFFCURVE",
"369 183 CURVE",
"392 185 LINE",
"367 118 OFFCURVE",
"278 -10 OFFCURVE",
"154 -10 CURVE SMOOTH",
"53 -10 OFFCURVE",
"50 50 OFFCURVE",
"74 113 CURVE SMOOTH",
"193 425 LINE"
);
},
{
closed = 1;
nodes = (
"512 72 LINE",
"487 35 OFFCURVE",
"447 -10 OFFCURVE",
"402 -10 CURVE SMOOTH",
"310 -10 OFFCURVE",
"322 55 OFFCURVE",
"351 135 CURVE SMOOTH",
"462 440 LINE",
"537 440 LINE",
"416 103 LINE SMOOTH",
"402 64 OFFCURVE",
"398 23 OFFCURVE",
"423 23 CURVE SMOOTH",
"446 23 OFFCURVE",
"477 59 OFFCURVE",
"494 84 CURVE"
);
}
);
width = 590;
},
{
associatedMasterId = "9372F035-DA38-4B54-966C-CEBA9B53DD02";
background = {
components = (
{
name = i;
transform = "{1, 0, 0, 1, 270, 0}";
}
);
};
backgroundImage = {
crop = "{{167.872, 8.386}, {46.161, 76.166}}";
imagePath = "../../../../1878 Limprimerie Berger Levrault Notice historique/Italique/Réglu.jpg";
locked = "1";
transform = "{12.998, 0, 0, 12.998, -2232, -389}";
};
guideLines = (
{
angle = 70;
position = "{396, 539}";
},
{
angle = 70;
position = "{320, 540}";
},
{
angle = 70;
position = "{659, 522}";
},
{
angle = 70;
position = "{589, 522}";
}
);
layerId = "66BB54DE-7EE9-4C9D-82E6-25F546092358";
name = "Oct 18 17, 11:53";
paths = (
{
closed = 1;
nodes = (
"265 -14 OFFCURVE",
"355 117 OFFCURVE",
"380 185 CURVE",
"357 183 LINE",
"332 113 OFFCURVE",
"236 11 OFFCURVE",
"160 11 CURVE SMOOTH",
"131 11 OFFCURVE",
"111 33 OFFCURVE",
"129 84 CURVE SMOOTH",
"250 421 LINE",
"184 425 LINE",
"65 109 LINE SMOOTH",
"41 46 OFFCURVE",
"45 -14 OFFCURVE",
"141 -14 CURVE SMOOTH"
);
},
{
closed = 1;
nodes = (
"428 -14 OFFCURVE",
"468 31 OFFCURVE",
"493 68 CURVE",
"475 80 LINE",
"458 55 OFFCURVE",
"423 19 OFFCURVE",
"401 19 CURVE SMOOTH",
"379 19 OFFCURVE",
"383 60 OFFCURVE",
"397 99 CURVE SMOOTH",
"518 440 LINE",
"448 440 LINE",
"338 131 LINE SMOOTH",
"310 52 OFFCURVE",
"308 -14 OFFCURVE",
"371 -14 CURVE SMOOTH"
);
},
{
closed = 1;
nodes = (
"221 342 LINE",
"258 443 LINE",
"94 440 LINE",
"87 416 LINE",
"137 416 OFFCURVE",
"184 423 OFFCURVE",
"149 331 CURVE"
);
}
);
visible = 1;
width = 551;
}
);
unicode = 0075;
},
{
glyphname = v;
lastChange = "2017-10-18 09:58:33 +0000";
layers = (
{
guideLines = (
{
angle = 249.5863;
position = "{155, 286}";
},
{
angle = 69.8686;
position = "{324, 270}";
}
);
layerId = "9372F035-DA38-4B54-966C-CEBA9B53DD02";
paths = (
{
closed = 1;
nodes = (
"196 -14 LINE",
"402 233 LINE SMOOTH",
"448 289 OFFCURVE",
"461 351 OFFCURVE",
"463 374 CURVE SMOOTH",
"468 432 OFFCURVE",
"446 447 OFFCURVE",
"434 454 CURVE",
"375 414 LINE",
"383 399 OFFCURVE",
"397 370 OFFCURVE",
"392 324 CURVE SMOOTH",
"390 291 OFFCURVE",
"370 233 OFFCURVE",
"325 176 CURVE SMOOTH",
"214 37 LINE",
"237 47 LINE",
"214 121 LINE SMOOTH",
"189 200 OFFCURVE",
"163 254 OFFCURVE",
"166 326 CURVE SMOOTH",
"171 390 OFFCURVE",
"213 415 OFFCURVE",
"247 435 CURVE",
"244 448 LINE",
"99 440 LINE",
"90 416 LINE",
"159 419 OFFCURVE",
"175 424 OFFCURVE",
"174 415 CURVE SMOOTH",
"173 398 OFFCURVE",
"94 372 OFFCURVE",
"87 291 CURVE SMOOTH",
"77 180 OFFCURVE",
"161 126 OFFCURVE",
"191 -14 CURVE"
);
}
);
width = 481;
}
);
unicode = 0076;
},
{
glyphname = w;
lastChange = "2017-10-18 09:58:33 +0000";
layers = (
{
layerId = "9372F035-DA38-4B54-966C-CEBA9B53DD02";
paths = (
{
closed = 1;
nodes = (
"432 432 OFFCURVE",
"442 414 OFFCURVE",
"441 392 CURVE SMOOTH",
"438 334 OFFCURVE",
"361 230 OFFCURVE",
"308 163 CURVE SMOOTH",
"200 37 LINE",
"232 64 LINE",
"212 119 LINE SMOOTH",
"181 204 OFFCURVE",
"164 254 OFFCURVE",
"163 326 CURVE SMOOTH",
"166 390 OFFCURVE",
"196 415 OFFCURVE",
"242 435 CURVE",
"239 448 LINE",
"102 440 LINE",
"95 416 LINE",
"155 419 OFFCURVE",
"169 424 OFFCURVE",
"168 415 CURVE SMOOTH",
"168 398 OFFCURVE",
"89 372 OFFCURVE",
"85 291 CURVE SMOOTH",
"79 180 OFFCURVE",
"151 126 OFFCURVE",
"183 -14 CURVE",
"190 -14 LINE",
"335 161 LINE SMOOTH",
"431 285 OFFCURVE",
"461 352 OFFCURVE",
"463 390 CURVE SMOOTH",
"465 432 OFFCURVE",
"445 454 OFFCURVE",
"411 454 CURVE SMOOTH",
"379 454 OFFCURVE",
"325 424 OFFCURVE",
"320 337 CURVE SMOOTH",
"313 201 OFFCURVE",
"401 143 OFFCURVE",
"428 -14 CURVE",
"435 -14 LINE",
"627 227 LINE SMOOTH",
"673 289 OFFCURVE",
"682 330 OFFCURVE",
"684 365 CURVE SMOOTH",
"687 424 OFFCURVE",
"657 447 OFFCURVE",
"646 454 CURVE",
"591 412 LINE",
"599 397 OFFCURVE",
"620 370 OFFCURVE",
"617 318 CURVE SMOOTH",
"616 291 OFFCURVE",
"611 241 OFFCURVE",
"575 193 CURVE SMOOTH",
"448 37 LINE",
"481 57 LINE",
"464 110 LINE SMOOTH",
"416 269 OFFCURVE",
"377 328 OFFCURVE",
"380 385 CURVE SMOOTH",
"382 418 OFFCURVE",
"396 432 OFFCURVE",
"413 432 CURVE SMOOTH"
);
}
);
width = 690;
}
);
unicode = 0077;
},
{
glyphname = x;
lastChange = "2017-10-18 09:58:33 +0000";
layers = (
{
backgroundImage = {
crop = "{{1435.117, 1398.76}, {208.542, 317.625}}";
imagePath = "../../../../1878 Limprimerie Berger Levrault Notice historique/Italique/Beaux-A Société.JPG";
locked = "1";
transform = "{3.11688, 0, 1.13445, 3.11688, -6476.241, -4640}";
};
guideLines = (
{
angle = 249.5863;
position = "{402, 286}";
}
);
layerId = "9372F035-DA38-4B54-966C-CEBA9B53DD02";
paths = (
{
closed = 1;
nodes = (
"492 106 LINE",
"471 56 OFFCURVE",
"423 16 OFFCURVE",
"380 16 CURVE SMOOTH",
"325 16 OFFCURVE",
"310 77 OFFCURVE",
"315 152 CURVE SMOOTH",
"323 276 OFFCURVE",
"406 432 OFFCURVE",
"478 432 CURVE SMOOTH",
"514 432 OFFCURVE",
"508 397 OFFCURVE",
"506 370 CURVE SMOOTH",
"504 346 OFFCURVE",
"517 331 OFFCURVE",
"539 331 CURVE SMOOTH",
"563 331 OFFCURVE",
"578 357 OFFCURVE",
"580 381 CURVE SMOOTH",
"581 405 OFFCURVE",
"576 454 OFFCURVE",
"492 454 CURVE SMOOTH",
"380 454 OFFCURVE",
"254 316 OFFCURVE",
"242 150 CURVE SMOOTH",
"236 53 OFFCURVE",
"274 -14 OFFCURVE",
"362 -14 CURVE SMOOTH",
"431 -14 OFFCURVE",
"481 35 OFFCURVE",
"509 94 CURVE"
);
},
{
closed = 1;
nodes = (
"81 334 LINE",
"103 384 OFFCURVE",
"148 424 OFFCURVE",
"194 424 CURVE SMOOTH",
"250 424 OFFCURVE",
"269 363 OFFCURVE",
"265 288 CURVE SMOOTH",
"256 164 OFFCURVE",
"171 8 OFFCURVE",
"96 8 CURVE SMOOTH",
"60 8 OFFCURVE",
"66 43 OFFCURVE",
"68 70 CURVE SMOOTH",
"70 94 OFFCURVE",
"57 109 OFFCURVE",
"35 109 CURVE SMOOTH",
"11 109 OFFCURVE",
"-4 83 OFFCURVE",
"-6 59 CURVE SMOOTH",
"-8 35 OFFCURVE",
"-2 -14 OFFCURVE",
"82 -14 CURVE SMOOTH",
"196 -14 OFFCURVE",
"325 124 OFFCURVE",
"336 290 CURVE SMOOTH",
"342 387 OFFCURVE",
"303 454 OFFCURVE",
"216 454 CURVE SMOOTH",
"138 454 OFFCURVE",
"92 405 OFFCURVE",
"65 346 CURVE"
);
}
);
width = 569;
}
);
unicode = 0078;
},
{
glyphname = y;
lastChange = "2017-10-18 10:00:50 +0000";
layers = (
{
background = {
components = (
{
name = v;
transform = "{1, 0, 0, 1, 17, 0}";
}
);
};
backgroundImage = {
crop = "{{108.859, 7.363}, {47.502, 78.379}}";
imagePath = "../../../../1878 Limprimerie Berger Levrault Notice historique/Italique/réotypie.JPG";
locked = "1";
transform = "{12.631, 0, 4.59731, 12.631, -1884.823, -394}";
};
layerId = "9372F035-DA38-4B54-966C-CEBA9B53DD02";
paths = (
{
closed = 1;
nodes = (
"379 411 LINE",
"392 395 OFFCURVE",
"412 364 OFFCURVE",
"409 309 CURVE SMOOTH",
"408 275 OFFCURVE",
"398 225 OFFCURVE",
"365 170 CURVE SMOOTH",
"257 -10 LINE",
"282 12 LINE",
"235 124 LINE SMOOTH",
"207 191 OFFCURVE",
"182 254 OFFCURVE",
"182 326 CURVE SMOOTH",
"186 390 OFFCURVE",
"227 415 OFFCURVE",
"260 435 CURVE",
"257 448 LINE",
"111 440 LINE",
"103 416 LINE",
"143 418 OFFCURVE",
"165 420 OFFCURVE",
"177 420 CURVE SMOOTH",
"185 420 OFFCURVE",
"188 419 OFFCURVE",
"188 415 CURVE SMOOTH",
"187 398 OFFCURVE",
"109 372 OFFCURVE",
"104 291 CURVE SMOOTH",
"99 181 OFFCURVE",
"227 32 OFFCURVE",
"227 -43 CURVE SMOOTH",
"227 -66 OFFCURVE",
"211 -91 OFFCURVE",
"190 -120 CURVE SMOOTH",
"155 -169 LINE SMOOTH",
"128 -208 OFFCURVE",
"93 -234 OFFCURVE",
"71 -234 CURVE SMOOTH",
"28 -234 OFFCURVE",
"7 -193 OFFCURVE",
"-23 -193 CURVE SMOOTH",
"-47 -193 OFFCURVE",
"-68 -211 OFFCURVE",
"-69 -234 CURVE SMOOTH",
"-71 -267 OFFCURVE",
"-38 -290 OFFCURVE",
"4 -290 CURVE SMOOTH",
"71 -290 OFFCURVE",
"141 -243 OFFCURVE",
"203 -141 CURVE SMOOTH",
"426 227 LINE SMOOTH",
"464 290 OFFCURVE",
"472 341 OFFCURVE",
"474 369 CURVE SMOOTH",
"477 434 OFFCURVE",
"449 449 OFFCURVE",
"434 454 CURVE"
);
}
);
width = 476;
}
);
unicode = 0079;
},
{
glyphname = z;
lastChange = "2017-10-18 09:58:33 +0000";
layers = (
{
backgroundImage = {
crop = "{{1070.746, 1396.688}, {212.492, 356.555}}";
imagePath = "../../../../1878 Limprimerie Berger Levrault Notice historique/Italique/rez-de-.JPG";
locked = "1";
transform = "{2.89318, -0.10233, 1.16892, 2.93043, -5207.311, -4305}";
};
layerId = "9372F035-DA38-4B54-966C-CEBA9B53DD02";
paths = (
{
closed = 1;
nodes = (
"405 148 LINE",
"414 86 OFFCURVE",
"385 55 OFFCURVE",
"354 55 CURVE SMOOTH",
"299 55 OFFCURVE",
"249 97 OFFCURVE",
"194 97 CURVE SMOOTH",
"161 97 OFFCURVE",
"133 86 OFFCURVE",
"123 83 CURVE",
"105 54 LINE",
"375 345 LINE SMOOTH",
"392 363 OFFCURVE",
"465 372 OFFCURVE",
"468 421 CURVE SMOOTH",
"469 444 OFFCURVE",
"452 454 OFFCURVE",
"437 454 CURVE SMOOTH",
"401 454 OFFCURVE",
"392 416 OFFCURVE",
"371 385 CURVE SMOOTH",
"364 375 OFFCURVE",
"353 368 OFFCURVE",
"347 368 CURVE SMOOTH",
"279 368 OFFCURVE",
"254 454 OFFCURVE",
"188 454 CURVE SMOOTH",
"125 454 OFFCURVE",
"73 399 OFFCURVE",
"68 316 CURVE",
"92 315 LINE",
"93 354 OFFCURVE",
"108 382 OFFCURVE",
"139 382 CURVE SMOOTH",
"194 382 OFFCURVE",
"238 340 OFFCURVE",
"310 340 CURVE SMOOTH",
"331 340 OFFCURVE",
"356 347 OFFCURVE",
"366 354 CURVE",
"371 374 LINE",
"146 134 LINE SMOOTH",
"85 70 OFFCURVE",
"18 68 OFFCURVE",
"16 16 CURVE SMOOTH",
"15 -4 OFFCURVE",
"30 -14 OFFCURVE",
"47 -14 CURVE SMOOTH",
"96 -14 OFFCURVE",
"105 68 OFFCURVE",
"165 68 CURVE SMOOTH",
"224 68 OFFCURVE",
"250 -14 OFFCURVE",
"331 -14 CURVE SMOOTH",
"387 -14 OFFCURVE",
"445 34 OFFCURVE",
"432 153 CURVE"
);
}
);
width = 480;
}
);
unicode = 007A;
},
{
glyphname = fi;
lastChange = "2017-10-18 12:41:25 +0000";
layers = (
{
components = (
{
name = idotless;
transform = "{1, 0, 0, 1, 266, 0}";
}
);
guideLines = (
{
angle = 70;
position = "{551, 539}";
}
);
layerId = "9372F035-DA38-4B54-966C-CEBA9B53DD02";
paths = (
{
closed = 1;
nodes = (
"374 416 LINE",
"381 440 LINE",
"104 440 LINE",
"97 416 LINE"
);
},
{
closed = 1;
nodes = (
"-43 -207 OFFCURVE",
"-69 -268 OFFCURVE",
"-110 -268 CURVE SMOOTH",
"-122 -268 OFFCURVE",
"-126 -266 OFFCURVE",
"-126 -261 CURVE SMOOTH",
"-126 -251 OFFCURVE",
"-116 -243 OFFCURVE",
"-116 -217 CURVE SMOOTH",
"-116 -188 OFFCURVE",
"-136 -167 OFFCURVE",
"-164 -167 CURVE SMOOTH",
"-196 -167 OFFCURVE",
"-215 -193 OFFCURVE",
"-215 -220 CURVE SMOOTH",
"-215 -250 OFFCURVE",
"-196 -290 OFFCURVE",
"-122 -290 CURVE SMOOTH",
"-37 -290 OFFCURVE",
"10 -253 OFFCURVE",
"49 -145 CURVE SMOOTH",
"322 615 LINE SMOOTH",
"342 672 OFFCURVE",
"385 698 OFFCURVE",
"432 698 CURVE SMOOTH",
"482 698 OFFCURVE",
"486 679 OFFCURVE",
"486 674 CURVE SMOOTH",
"486 659 OFFCURVE",
"467 653 OFFCURVE",
"467 627 CURVE SMOOTH",
"467 597 OFFCURVE",
"488 576 OFFCURVE",
"518 576 CURVE SMOOTH",
"558 576 OFFCURVE",
"582 609 OFFCURVE",
"582 638 CURVE SMOOTH",
"582 660 OFFCURVE",
"577 720 OFFCURVE",
"436 720 CURVE SMOOTH",
"334 720 OFFCURVE",
"274 680 OFFCURVE",
"244 596 CURVE SMOOTH",
"-15 -129 LINE SMOOTH"
);
}
);
width = 560;
}
);
leftMetricsKey = "=f-10";
rightMetricsKey = i;
unicode = FB01;
},
{
glyphname = fl;
lastChange = "2017-10-18 12:41:25 +0000";
layers = (
{
components = (
{
alignment = -1;
name = "_part-sortie-2";
transform = "{1, 0, 0, 1, 17, 0}";
}
);
layerId = "9372F035-DA38-4B54-966C-CEBA9B53DD02";
paths = (
{
closed = 1;
nodes = (
"367 416 LINE",
"374 440 LINE",
"107 440 LINE",
"100 416 LINE"
);
},
{
closed = 1;
nodes = (
"362 720 OFFCURVE",
"273 676 OFFCURVE",
"220 527 CURVE SMOOTH",
"-15 -129 LINE SMOOTH",
"-41 -208 OFFCURVE",
"-69 -268 OFFCURVE",
"-110 -268 CURVE SMOOTH",
"-122 -268 OFFCURVE",
"-126 -266 OFFCURVE",
"-126 -261 CURVE SMOOTH",
"-126 -251 OFFCURVE",
"-116 -243 OFFCURVE",
"-116 -217 CURVE SMOOTH",
"-116 -188 OFFCURVE",
"-136 -167 OFFCURVE",
"-164 -167 CURVE SMOOTH",
"-196 -167 OFFCURVE",
"-215 -193 OFFCURVE",
"-215 -220 CURVE SMOOTH",
"-215 -250 OFFCURVE",
"-196 -290 OFFCURVE",
"-122 -290 CURVE SMOOTH",
"-37 -290 OFFCURVE",
"12 -253 OFFCURVE",
"49 -145 CURVE SMOOTH",
"304 560 LINE SMOOTH",
"332 638 OFFCURVE",
"382 698 OFFCURVE",
"449 698 CURVE SMOOTH",
"510 698 OFFCURVE",
"530 641 OFFCURVE",
"530 611 CURVE SMOOTH",
"530 591 OFFCURVE",
"520 557 OFFCURVE",
"510 531 CURVE SMOOTH",
"362 131 LINE",
"422 99 LINE",
"574 518 LINE SMOOTH",
"619 643 OFFCURVE",
"598 720 OFFCURVE",
"472 720 CURVE SMOOTH"
);
}
);
width = 603;
},
{
associatedMasterId = "9372F035-DA38-4B54-966C-CEBA9B53DD02";
components = (
{
alignment = -1;
name = "_part-sortie-2";
transform = "{1, 0, 0, 1, 37, 0}";
}
);
layerId = "4AB786BC-BBE9-4667-B19F-55EF14738CDB";
name = "Oct 18 17, 12:19";
paths = (
{
closed = 1;
nodes = (
"387 416 LINE",
"394 440 LINE",
"127 440 LINE",
"120 416 LINE"
);
},
{
closed = 1;
nodes = (
"382 720 OFFCURVE",
"293 676 OFFCURVE",
"240 527 CURVE SMOOTH",
"5 -129 LINE SMOOTH",
"-21 -208 OFFCURVE",
"-49 -268 OFFCURVE",
"-90 -268 CURVE SMOOTH",
"-102 -268 OFFCURVE",
"-106 -266 OFFCURVE",
"-106 -261 CURVE SMOOTH",
"-106 -251 OFFCURVE",
"-96 -243 OFFCURVE",
"-96 -217 CURVE SMOOTH",
"-96 -188 OFFCURVE",
"-116 -167 OFFCURVE",
"-144 -167 CURVE SMOOTH",
"-176 -167 OFFCURVE",
"-195 -193 OFFCURVE",
"-195 -220 CURVE SMOOTH",
"-195 -250 OFFCURVE",
"-176 -290 OFFCURVE",
"-102 -290 CURVE SMOOTH",
"-17 -290 OFFCURVE",
"32 -253 OFFCURVE",
"69 -145 CURVE SMOOTH",
"324 560 LINE SMOOTH",
"346 622 OFFCURVE",
"402 698 OFFCURVE",
"478 698 CURVE SMOOTH",
"539 698 OFFCURVE",
"550 655 OFFCURVE",
"550 619 CURVE SMOOTH",
"550 601 OFFCURVE",
"540 557 OFFCURVE",
"530 531 CURVE SMOOTH",
"382 131 LINE",
"442 99 LINE",
"585 493 LINE SMOOTH",
"603 542 OFFCURVE",
"614 596 OFFCURVE",
"614 620 CURVE SMOOTH",
"614 690 OFFCURVE",
"565 720 OFFCURVE",
"492 720 CURVE SMOOTH"
);
}
);
width = 623;
}
);
leftMetricsKey = "=f-10";
rightMetricsKey = l;
unicode = FB02;
},
{
glyphname = f_f.liga;
lastChange = "2017-10-18 12:41:25 +0000";
layers = (
{
background = {
components = (
{
name = fl;
transform = "{1, 0, 0, 1, -20, 0}";
}
);
};
layerId = "9372F035-DA38-4B54-966C-CEBA9B53DD02";
paths = (
{
closed = 1;
nodes = (
"418 416 LINE",
"425 440 LINE",
"98 440 LINE",
"91 416 LINE"
);
},
{
closed = 1;
nodes = (
"642 416 LINE",
"649 440 LINE",
"382 440 LINE",
"375 416 LINE"
);
},
{
closed = 1;
nodes = (
"267 -168 OFFCURVE",
"225 -265 OFFCURVE",
"151 -265 CURVE SMOOTH",
"86 -265 OFFCURVE",
"60 -204 OFFCURVE",
"43 -150 CURVE",
"-6 -208 LINE",
"-6 -251 OFFCURVE",
"52 -290 OFFCURVE",
"131 -290 CURVE SMOOTH",
"255 -290 OFFCURVE",
"316 -225 OFFCURVE",
"361 -90 CURVE SMOOTH",
"600 615 LINE SMOOTH",
"619 672 OFFCURVE",
"663 698 OFFCURVE",
"704 698 CURVE SMOOTH",
"716 698 OFFCURVE",
"720 696 OFFCURVE",
"720 691 CURVE SMOOTH",
"720 681 OFFCURVE",
"710 673 OFFCURVE",
"710 647 CURVE SMOOTH",
"710 618 OFFCURVE",
"730 597 OFFCURVE",
"758 597 CURVE SMOOTH",
"790 597 OFFCURVE",
"809 623 OFFCURVE",
"809 650 CURVE SMOOTH",
"809 680 OFFCURVE",
"790 720 OFFCURVE",
"691 720 CURVE SMOOTH",
"612 720 OFFCURVE",
"550 681 OFFCURVE",
"522 596 CURVE SMOOTH",
"298 -74 LINE SMOOTH"
);
},
{
closed = 1;
nodes = (
"309 598 OFFCURVE",
"349 695 OFFCURVE",
"438 695 CURVE SMOOTH",
"506 695 OFFCURVE",
"537 636 OFFCURVE",
"554 582 CURVE",
"600 654 LINE",
"572 702 OFFCURVE",
"519 720 OFFCURVE",
"446 720 CURVE SMOOTH",
"319 720 OFFCURVE",
"258 655 OFFCURVE",
"213 520 CURVE SMOOTH",
"-5 -129 LINE SMOOTH",
"-31 -208 OFFCURVE",
"-59 -268 OFFCURVE",
"-100 -268 CURVE SMOOTH",
"-112 -268 OFFCURVE",
"-116 -266 OFFCURVE",
"-116 -261 CURVE SMOOTH",
"-116 -251 OFFCURVE",
"-106 -243 OFFCURVE",
"-106 -217 CURVE SMOOTH",
"-106 -188 OFFCURVE",
"-126 -167 OFFCURVE",
"-154 -167 CURVE SMOOTH",
"-186 -167 OFFCURVE",
"-205 -193 OFFCURVE",
"-205 -220 CURVE SMOOTH",
"-205 -250 OFFCURVE",
"-186 -290 OFFCURVE",
"-112 -290 CURVE SMOOTH",
"-27 -290 OFFCURVE",
"23 -253 OFFCURVE",
"59 -145 CURVE SMOOTH",
"277 504 LINE SMOOTH"
);
}
);
width = 616;
}
);
leftMetricsKey = f;
},
{
glyphname = f_f_i.liga;
lastChange = "2017-10-18 12:41:25 +0000";
layers = (
{
components = (
{
name = idotless;
transform = "{1, 0, 0, 1, 563, 0}";
}
);
layerId = "9372F035-DA38-4B54-966C-CEBA9B53DD02";
paths = (
{
closed = 1;
nodes = (
"438 416 LINE",
"445 440 LINE",
"118 440 LINE",
"111 416 LINE"
);
},
{
closed = 1;
nodes = (
"331 596 OFFCURVE",
"360 695 OFFCURVE",
"459 695 CURVE SMOOTH",
"512 695 OFFCURVE",
"554 664 OFFCURVE",
"578 582 CURVE",
"621 654 LINE",
"602 699 OFFCURVE",
"538 720 OFFCURVE",
"463 720 CURVE SMOOTH",
"330 720 OFFCURVE",
"282 653 OFFCURVE",
"233 520 CURVE SMOOTH",
"-5 -129 LINE SMOOTH",
"-31 -208 OFFCURVE",
"-59 -268 OFFCURVE",
"-100 -268 CURVE SMOOTH",
"-112 -268 OFFCURVE",
"-116 -266 OFFCURVE",
"-116 -261 CURVE SMOOTH",
"-116 -251 OFFCURVE",
"-106 -243 OFFCURVE",
"-106 -217 CURVE SMOOTH",
"-106 -188 OFFCURVE",
"-126 -167 OFFCURVE",
"-154 -167 CURVE SMOOTH",
"-186 -167 OFFCURVE",
"-205 -193 OFFCURVE",
"-205 -220 CURVE SMOOTH",
"-205 -250 OFFCURVE",
"-186 -290 OFFCURVE",
"-112 -290 CURVE SMOOTH",
"-27 -290 OFFCURVE",
"23 -253 OFFCURVE",
"59 -145 CURVE SMOOTH",
"297 504 LINE SMOOTH"
);
},
{
closed = 1;
nodes = (
"671 416 LINE",
"678 440 LINE",
"401 440 LINE",
"394 416 LINE"
);
},
{
closed = 1;
nodes = (
"621 615 LINE SMOOTH",
"642 672 OFFCURVE",
"684 698 OFFCURVE",
"731 698 CURVE SMOOTH",
"781 698 OFFCURVE",
"785 679 OFFCURVE",
"785 674 CURVE SMOOTH",
"785 659 OFFCURVE",
"766 653 OFFCURVE",
"766 627 CURVE SMOOTH",
"766 597 OFFCURVE",
"787 576 OFFCURVE",
"817 576 CURVE SMOOTH",
"857 576 OFFCURVE",
"881 609 OFFCURVE",
"881 638 CURVE SMOOTH",
"881 660 OFFCURVE",
"876 720 OFFCURVE",
"735 720 CURVE SMOOTH",
"633 720 OFFCURVE",
"573 680 OFFCURVE",
"543 596 CURVE SMOOTH",
"304 -74 LINE SMOOTH",
"270 -169 OFFCURVE",
"231 -265 OFFCURVE",
"157 -265 CURVE SMOOTH",
"92 -265 OFFCURVE",
"66 -204 OFFCURVE",
"49 -150 CURVE",
"0 -208 LINE",
"0 -251 OFFCURVE",
"58 -290 OFFCURVE",
"137 -290 CURVE SMOOTH",
"261 -290 OFFCURVE",
"320 -224 OFFCURVE",
"368 -90 CURVE SMOOTH"
);
}
);
width = 857;
}
);
leftMetricsKey = f;
rightMetricsKey = i;
},
{
glyphname = f_f_l.liga;
lastChange = "2017-10-18 12:41:25 +0000";
layers = (
{
background = {
components = (
{
name = f_f.liga;
transform = "{1, 0, 0, 1, 4, 0}";
}
);
};
components = (
{
name = "_part-sortie-2";
transform = "{1, 0, 0, 1, 317, 0}";
}
);
layerId = "9372F035-DA38-4B54-966C-CEBA9B53DD02";
paths = (
{
closed = 1;
nodes = (
"438 416 LINE",
"445 440 LINE",
"118 440 LINE",
"111 416 LINE"
);
},
{
closed = 1;
nodes = (
"331 596 OFFCURVE",
"360 695 OFFCURVE",
"459 695 CURVE SMOOTH",
"512 695 OFFCURVE",
"554 664 OFFCURVE",
"578 582 CURVE",
"621 654 LINE",
"602 699 OFFCURVE",
"538 720 OFFCURVE",
"463 720 CURVE SMOOTH",
"330 720 OFFCURVE",
"282 653 OFFCURVE",
"233 520 CURVE SMOOTH",
"-5 -129 LINE SMOOTH",
"-31 -208 OFFCURVE",
"-59 -268 OFFCURVE",
"-100 -268 CURVE SMOOTH",
"-112 -268 OFFCURVE",
"-116 -266 OFFCURVE",
"-116 -261 CURVE SMOOTH",
"-116 -251 OFFCURVE",
"-106 -243 OFFCURVE",
"-106 -217 CURVE SMOOTH",
"-106 -188 OFFCURVE",
"-126 -167 OFFCURVE",
"-154 -167 CURVE SMOOTH",
"-186 -167 OFFCURVE",
"-205 -193 OFFCURVE",
"-205 -220 CURVE SMOOTH",
"-205 -250 OFFCURVE",
"-186 -290 OFFCURVE",
"-112 -290 CURVE SMOOTH",
"-27 -290 OFFCURVE",
"23 -253 OFFCURVE",
"59 -145 CURVE SMOOTH",
"297 504 LINE SMOOTH"
);
},
{
closed = 1;
nodes = (
"667 416 LINE",
"674 440 LINE",
"407 440 LINE",
"400 416 LINE"
);
},
{
closed = 1;
nodes = (
"604 560 LINE SMOOTH",
"633 638 OFFCURVE",
"682 698 OFFCURVE",
"749 698 CURVE SMOOTH",
"810 698 OFFCURVE",
"830 641 OFFCURVE",
"830 611 CURVE SMOOTH",
"830 591 OFFCURVE",
"820 557 OFFCURVE",
"810 531 CURVE SMOOTH",
"662 131 LINE",
"722 99 LINE",
"874 518 LINE SMOOTH",
"919 643 OFFCURVE",
"898 720 OFFCURVE",
"772 720 CURVE SMOOTH",
"662 720 OFFCURVE",
"574 677 OFFCURVE",
"520 527 CURVE SMOOTH",
"304 -74 LINE SMOOTH",
"271 -167 OFFCURVE",
"231 -265 OFFCURVE",
"157 -265 CURVE SMOOTH",
"92 -265 OFFCURVE",
"66 -204 OFFCURVE",
"49 -150 CURVE",
"0 -208 LINE",
"0 -251 OFFCURVE",
"58 -290 OFFCURVE",
"137 -290 CURVE SMOOTH",
"261 -290 OFFCURVE",
"318 -224 OFFCURVE",
"367 -90 CURVE SMOOTH"
);
}
);
width = 903;
}
);
leftMetricsKey = f;
rightMetricsKey = l;
},
{
glyphname = f_h.liga;
lastChange = "2017-10-18 12:47:03 +0000";
layers = (
{
background = {
components = (
{
name = f_k.liga;
transform = "{1, 0, 0, 1, -18, 0}";
}
);
};
components = (
{
alignment = -1;
name = "_part-jambage";
transform = "{1, 0, 0, 1, 295, 0}";
}
);
layerId = "9372F035-DA38-4B54-966C-CEBA9B53DD02";
paths = (
{
closed = 1;
nodes = (
"368 416 LINE",
"375 440 LINE",
"108 440 LINE",
"101 416 LINE"
);
},
{
closed = 1;
nodes = (
"331 596 OFFCURVE",
"361 695 OFFCURVE",
"459 695 CURVE SMOOTH",
"512 695 OFFCURVE",
"577 660 OFFCURVE",
"599 597 CURVE",
"631 660 LINE",
"621 678 OFFCURVE",
"532 720 OFFCURVE",
"453 720 CURVE SMOOTH",
"330 720 OFFCURVE",
"282 653 OFFCURVE",
"233 520 CURVE SMOOTH",
"-5 -129 LINE SMOOTH",
"-31 -208 OFFCURVE",
"-59 -268 OFFCURVE",
"-100 -268 CURVE SMOOTH",
"-112 -268 OFFCURVE",
"-116 -266 OFFCURVE",
"-116 -261 CURVE SMOOTH",
"-116 -251 OFFCURVE",
"-106 -243 OFFCURVE",
"-106 -217 CURVE SMOOTH",
"-106 -188 OFFCURVE",
"-126 -167 OFFCURVE",
"-154 -167 CURVE SMOOTH",
"-186 -167 OFFCURVE",
"-205 -193 OFFCURVE",
"-205 -220 CURVE SMOOTH",
"-205 -250 OFFCURVE",
"-186 -290 OFFCURVE",
"-112 -290 CURVE SMOOTH",
"-27 -290 OFFCURVE",
"23 -253 OFFCURVE",
"59 -145 CURVE SMOOTH",
"297 504 LINE SMOOTH"
);
},
{
closed = 1;
nodes = (
"591 712 OFFCURVE",
"517 711 OFFCURVE",
"443 710 CURVE",
"503 703 OFFCURVE",
"548 687 OFFCURVE",
"581 664 CURVE",
"336 0 LINE",
"408 0 LINE",
"661 702 LINE",
"665 713 LINE"
);
}
);
width = 865;
}
);
leftMetricsKey = f;
rightMetricsKey = h;
},
{
glyphname = f_k.liga;
lastChange = "2017-10-18 12:50:35 +0000";
layers = (
{
background = {
components = (
{
name = k;
transform = "{1, 0, 0, 1, 313, 0}";
}
);
};
layerId = "9372F035-DA38-4B54-966C-CEBA9B53DD02";
paths = (
{
closed = 1;
nodes = (
"457 192 LINE",
"676 379 LINE SMOOTH",
"699 400 OFFCURVE",
"717 414 OFFCURVE",
"725 414 CURVE SMOOTH",
"745 414 OFFCURVE",
"749 379 OFFCURVE",
"785 379 CURVE SMOOTH",
"809 379 OFFCURVE",
"829 396 OFFCURVE",
"829 420 CURVE SMOOTH",
"829 440 OFFCURVE",
"810 454 OFFCURVE",
"776 454 CURVE SMOOTH",
"739 454 OFFCURVE",
"701 429 OFFCURVE",
"659 392 CURVE SMOOTH",
"473 237 LINE"
);
},
{
closed = 1;
nodes = (
"782 70 LINE",
"737 32 OFFCURVE",
"721 19 OFFCURVE",
"706 19 CURVE SMOOTH",
"676 19 OFFCURVE",
"662 68 OFFCURVE",
"644 114 CURVE SMOOTH",
"568 313 LINE",
"516 264 LINE",
"574 111 LINE SMOOTH",
"604 33 OFFCURVE",
"613 -14 OFFCURVE",
"677 -14 CURVE SMOOTH",
"714 -14 OFFCURVE",
"743 -1 OFFCURVE",
"796 52 CURVE"
);
},
{
closed = 1;
nodes = (
"372 720 OFFCURVE",
"283 676 OFFCURVE",
"230 527 CURVE SMOOTH",
"-5 -129 LINE SMOOTH",
"-33 -207 OFFCURVE",
"-59 -268 OFFCURVE",
"-100 -268 CURVE SMOOTH",
"-112 -268 OFFCURVE",
"-116 -266 OFFCURVE",
"-116 -261 CURVE SMOOTH",
"-116 -251 OFFCURVE",
"-106 -243 OFFCURVE",
"-106 -217 CURVE SMOOTH",
"-106 -188 OFFCURVE",
"-126 -167 OFFCURVE",
"-154 -167 CURVE SMOOTH",
"-186 -167 OFFCURVE",
"-205 -193 OFFCURVE",
"-205 -220 CURVE SMOOTH",
"-205 -250 OFFCURVE",
"-186 -290 OFFCURVE",
"-112 -290 CURVE SMOOTH",
"-27 -290 OFFCURVE",
"20 -252 OFFCURVE",
"59 -145 CURVE SMOOTH",
"314 560 LINE SMOOTH",
"342 638 OFFCURVE",
"392 698 OFFCURVE",
"459 698 CURVE SMOOTH",
"520 698 OFFCURVE",
"540 641 OFFCURVE",
"540 611 CURVE SMOOTH",
"540 591 OFFCURVE",
"530 557 OFFCURVE",
"520 531 CURVE SMOOTH",
"324 0 LINE",
"391 0 LINE",
"584 518 LINE SMOOTH",
"631 643 OFFCURVE",
"608 720 OFFCURVE",
"482 720 CURVE SMOOTH"
);
},
{
closed = 1;
nodes = (
"370 416 LINE",
"377 440 LINE",
"110 440 LINE",
"103 416 LINE"
);
}
);
width = 818;
}
);
leftMetricsKey = f;
rightMetricsKey = k;
},
{
glyphname = zero;
lastChange = "2017-10-18 15:40:48 +0000";
layers = (
{
layerId = "9372F035-DA38-4B54-966C-CEBA9B53DD02";
paths = (
{
closed = 1;
nodes = (
"287 -14 OFFCURVE",
"401 82 OFFCURVE",
"451 220 CURVE SMOOTH",
"501 358 OFFCURVE",
"457 454 OFFCURVE",
"331 454 CURVE SMOOTH",
"205 454 OFFCURVE",
"91 358 OFFCURVE",
"41 220 CURVE SMOOTH",
"-9 82 OFFCURVE",
"35 -14 OFFCURVE",
"161 -14 CURVE SMOOTH"
);
},
{
closed = 1;
nodes = (
"92 11 OFFCURVE",
"76 97 OFFCURVE",
"121 220 CURVE SMOOTH",
"166 343 OFFCURVE",
"244 429 OFFCURVE",
"322 429 CURVE SMOOTH",
"400 429 OFFCURVE",
"416 343 OFFCURVE",
"371 220 CURVE SMOOTH",
"326 97 OFFCURVE",
"248 11 OFFCURVE",
"170 11 CURVE SMOOTH"
);
}
);
width = 490;
},
{
associatedMasterId = "9372F035-DA38-4B54-966C-CEBA9B53DD02";
layerId = "E6B8952F-D64A-490A-9CF5-6DF985D88222";
name = "new Layer";
paths = (
{
closed = 1;
nodes = (
"287 -14 OFFCURVE",
"401 82 OFFCURVE",
"451 220 CURVE SMOOTH",
"501 358 OFFCURVE",
"457 454 OFFCURVE",
"331 454 CURVE SMOOTH",
"205 454 OFFCURVE",
"91 358 OFFCURVE",
"41 220 CURVE SMOOTH",
"-9 82 OFFCURVE",
"35 -14 OFFCURVE",
"161 -14 CURVE SMOOTH"
);
},
{
closed = 1;
nodes = (
"92 11 OFFCURVE",
"76 97 OFFCURVE",
"121 220 CURVE SMOOTH",
"166 343 OFFCURVE",
"244 429 OFFCURVE",
"322 429 CURVE SMOOTH",
"400 429 OFFCURVE",
"416 343 OFFCURVE",
"371 220 CURVE SMOOTH",
"326 97 OFFCURVE",
"248 11 OFFCURVE",
"170 11 CURVE SMOOTH"
);
}
);
width = 490;
}
);
unicode = 0030;
},
{
glyphname = one;
lastChange = "2017-10-18 15:40:48 +0000";
layers = (
{
layerId = "9372F035-DA38-4B54-966C-CEBA9B53DD02";
paths = (
{
closed = 1;
nodes = (
"174 331 LINE SMOOTH",
"201 404 OFFCURVE",
"161 389 OFFCURVE",
"107 389 CURVE",
"118 419 LINE",
"173 419 OFFCURVE",
"230 444 OFFCURVE",
"289 454 CURVE",
"167 121 LINE SMOOTH",
"134 31 OFFCURVE",
"147 29 OFFCURVE",
"203 22 CURVE SMOOTH",
"218 20 LINE",
"209 -3 LINE",
"88 0 LINE",
"-35 -3 LINE",
"-27 20 LINE",
"-11 22 LINE SMOOTH",
"50 30 OFFCURVE",
"65 31 OFFCURVE",
"97 121 CURVE SMOOTH"
);
}
);
width = 335;
},
{
associatedMasterId = "9372F035-DA38-4B54-966C-CEBA9B53DD02";
hints = (
{
origin = "{0, 4}";
type = Corner;
name = "_corner-bdc";
},
{
origin = "{0, 5}";
scale = "{-1, 1}";
type = Corner;
name = "_corner-bdc";
options = 1;
}
);
layerId = "3A6012CA-9A48-4B0F-B9D9-7B29ED02AA58";
name = "Oct 17 17, 11:54";
paths = (
{
closed = 1;
nodes = (
"30 408 LINE",
"84 408 OFFCURVE",
"118 402 OFFCURVE",
"118 330 CURVE SMOOTH",
"118 0 LINE",
"188 0 LINE",
"188 446 LINE",
"133 436 OFFCURVE",
"85 431 OFFCURVE",
"30 431 CURVE"
);
}
);
width = 301;
},
{
associatedMasterId = "9372F035-DA38-4B54-966C-CEBA9B53DD02";
layerId = "E6B8952F-D64A-490A-9CF5-6DF985D88222";
name = "new Layer";
paths = (
{
closed = 1;
nodes = (
"174 331 LINE SMOOTH",
"201 404 OFFCURVE",
"161 389 OFFCURVE",
"107 389 CURVE",
"118 419 LINE",
"173 419 OFFCURVE",
"230 444 OFFCURVE",
"289 454 CURVE",
"167 121 LINE SMOOTH",
"134 31 OFFCURVE",
"147 29 OFFCURVE",
"203 22 CURVE SMOOTH",
"218 20 LINE",
"209 -3 LINE",
"88 0 LINE",
"-35 -3 LINE",
"-27 20 LINE",
"-11 22 LINE SMOOTH",
"50 30 OFFCURVE",
"65 31 OFFCURVE",
"97 121 CURVE SMOOTH"
);
}
);
width = 335;
}
);
unicode = 0031;
},
{
glyphname = two;
lastChange = "2017-10-18 15:40:48 +0000";
layers = (
{
layerId = "9372F035-DA38-4B54-966C-CEBA9B53DD02";
paths = (
{
closed = 1;
nodes = (
"144 215 LINE",
"107 221 OFFCURVE",
"89 254 OFFCURVE",
"110 310 CURVE SMOOTH",
"131 368 OFFCURVE",
"190 423 OFFCURVE",
"255 423 CURVE SMOOTH",
"324 423 OFFCURVE",
"338 367 OFFCURVE",
"315 303 CURVE SMOOTH",
"290 234 OFFCURVE",
"195 175 OFFCURVE",
"-18 15 CURVE",
"-25 -5 LINE",
"305 0 LINE",
"335 82 LINE",
"81 65 LINE",
"214 177 OFFCURVE",
"362 213 OFFCURVE",
"399 313 CURVE SMOOTH",
"428 392 OFFCURVE",
"380 453 OFFCURVE",
"281 453 CURVE SMOOTH",
"196 453 OFFCURVE",
"110 383 OFFCURVE",
"85 313 CURVE SMOOTH",
"63 252 OFFCURVE",
"87 202 OFFCURVE",
"136 194 CURVE"
);
},
{
closed = 1;
nodes = (
"335 82 LINE",
"313 72 LINE",
"272 -40 LINE",
"290 -40 LINE"
);
}
);
width = 434;
},
{
associatedMasterId = "9372F035-DA38-4B54-966C-CEBA9B53DD02";
layerId = "C92A1EF9-EF50-410D-BB22-3A00B08A48D5";
name = "Oct 16 17, 11:21";
paths = (
{
closed = 1;
nodes = (
"125 204 LINE",
"125 220 LINE"
);
},
{
closed = 1;
nodes = (
"125 220 LINE",
"86 232 OFFCURVE",
"50 264 OFFCURVE",
"50 320 CURVE SMOOTH",
"50 378 OFFCURVE",
"96 430 OFFCURVE",
"157 430 CURVE SMOOTH",
"210 430 OFFCURVE",
"250 377 OFFCURVE",
"250 313 CURVE SMOOTH",
"250 244 OFFCURVE",
"206 177 OFFCURVE",
"52 17 CURVE",
"52 -5 LINE",
"280 0 LINE",
"287 -56 LINE",
"302 -56 LINE",
"307 -1 OFFCURVE",
"313 36 OFFCURVE",
"330 82 CURVE",
"113 65 LINE",
"110 44 LINE",
"202 156 OFFCURVE",
"330 222 OFFCURVE",
"330 323 CURVE SMOOTH",
"330 392 OFFCURVE",
"265 450 OFFCURVE",
"176 450 CURVE SMOOTH",
"91 450 OFFCURVE",
"30 390 OFFCURVE",
"30 320 CURVE SMOOTH",
"30 259 OFFCURVE",
"73 218 OFFCURVE",
"125 204 CURVE"
);
}
);
width = 360;
},
{
associatedMasterId = "9372F035-DA38-4B54-966C-CEBA9B53DD02";
layerId = "A8E1C4B8-A7E6-4BB3-B48F-EF476E345814";
name = "Oct 16 17, 12:22";
paths = (
{
closed = 1;
nodes = (
"125 225 LINE",
"86 231 OFFCURVE",
"62 264 OFFCURVE",
"62 320 CURVE SMOOTH",
"62 378 OFFCURVE",
"96 420 OFFCURVE",
"157 420 CURVE SMOOTH",
"210 420 OFFCURVE",
"250 377 OFFCURVE",
"250 313 CURVE SMOOTH",
"250 244 OFFCURVE",
"206 175 OFFCURVE",
"52 15 CURVE",
"52 -5 LINE",
"330 0 LINE",
"330 82 LINE",
"113 65 LINE",
"110 44 LINE",
"202 156 OFFCURVE",
"330 222 OFFCURVE",
"330 323 CURVE SMOOTH",
"330 392 OFFCURVE",
"265 450 OFFCURVE",
"176 450 CURVE SMOOTH",
"91 450 OFFCURVE",
"30 390 OFFCURVE",
"30 320 CURVE SMOOTH",
"30 259 OFFCURVE",
"73 212 OFFCURVE",
"125 204 CURVE"
);
},
{
closed = 1;
nodes = (
"330 82 LINE",
"312 72 LINE",
"312 -40 LINE",
"330 -40 LINE"
);
}
);
width = 360;
},
{
associatedMasterId = "9372F035-DA38-4B54-966C-CEBA9B53DD02";
layerId = "8E453B26-DA04-4356-9938-960E9DAA0B0A";
name = "Oct 17 17, 11:57";
paths = (
{
closed = 1;
nodes = (
"125 215 LINE",
"86 221 OFFCURVE",
"62 254 OFFCURVE",
"62 310 CURVE SMOOTH",
"62 368 OFFCURVE",
"96 420 OFFCURVE",
"157 420 CURVE SMOOTH",
"210 420 OFFCURVE",
"260 367 OFFCURVE",
"260 303 CURVE SMOOTH",
"260 234 OFFCURVE",
"206 175 OFFCURVE",
"52 15 CURVE",
"52 -5 LINE",
"330 0 LINE",
"330 82 LINE",
"128 65 LINE",
"220 177 OFFCURVE",
"340 213 OFFCURVE",
"340 313 CURVE SMOOTH",
"340 382 OFFCURVE",
"265 450 OFFCURVE",
"176 450 CURVE SMOOTH",
"91 450 OFFCURVE",
"30 380 OFFCURVE",
"30 310 CURVE SMOOTH",
"30 249 OFFCURVE",
"73 202 OFFCURVE",
"125 194 CURVE"
);
},
{
closed = 1;
nodes = (
"330 82 LINE",
"312 72 LINE",
"312 -40 LINE",
"330 -40 LINE"
);
}
);
width = 360;
},
{
associatedMasterId = "9372F035-DA38-4B54-966C-CEBA9B53DD02";
layerId = "E6B8952F-D64A-490A-9CF5-6DF985D88222";
name = "new Layer";
paths = (
{
closed = 1;
nodes = (
"144 215 LINE",
"107 221 OFFCURVE",
"89 254 OFFCURVE",
"110 310 CURVE SMOOTH",
"131 368 OFFCURVE",
"190 423 OFFCURVE",
"255 423 CURVE SMOOTH",
"324 423 OFFCURVE",
"338 367 OFFCURVE",
"315 303 CURVE SMOOTH",
"290 234 OFFCURVE",
"195 175 OFFCURVE",
"-18 15 CURVE",
"-25 -5 LINE",
"305 0 LINE",
"335 82 LINE",
"81 65 LINE",
"214 177 OFFCURVE",
"362 213 OFFCURVE",
"399 313 CURVE SMOOTH",
"428 392 OFFCURVE",
"380 453 OFFCURVE",
"281 453 CURVE SMOOTH",
"196 453 OFFCURVE",
"110 383 OFFCURVE",
"85 313 CURVE SMOOTH",
"63 252 OFFCURVE",
"87 202 OFFCURVE",
"136 194 CURVE"
);
},
{
closed = 1;
nodes = (
"335 82 LINE",
"313 72 LINE",
"272 -40 LINE",
"290 -40 LINE"
);
}
);
width = 434;
}
);
unicode = 0032;
},
{
glyphname = three;
lastChange = "2017-10-18 15:40:48 +0000";
layers = (
{
layerId = "9372F035-DA38-4B54-966C-CEBA9B53DD02";
paths = (
{
closed = 1;
nodes = (
"174 125 OFFCURVE",
"164 125 OFFCURVE",
"152 123 CURVE",
"227 171 OFFCURVE",
"369 216 OFFCURVE",
"404 313 CURVE SMOOTH",
"433 392 OFFCURVE",
"385 453 OFFCURVE",
"286 453 CURVE SMOOTH",
"201 453 OFFCURVE",
"116 383 OFFCURVE",
"90 313 CURVE SMOOTH",
"68 252 OFFCURVE",
"93 202 OFFCURVE",
"142 194 CURVE",
"150 215 LINE",
"113 221 OFFCURVE",
"95 254 OFFCURVE",
"115 310 CURVE SMOOTH",
"136 368 OFFCURVE",
"195 423 OFFCURVE",
"260 423 CURVE SMOOTH",
"329 423 OFFCURVE",
"344 367 OFFCURVE",
"321 303 CURVE SMOOTH",
"296 234 OFFCURVE",
"224 190 OFFCURVE",
"113 112 CURVE",
"101 79 LINE",
"121 90 OFFCURVE",
"143 99 OFFCURVE",
"175 99 CURVE SMOOTH",
"225 99 OFFCURVE",
"252 47 OFFCURVE",
"201 -72 CURVE SMOOTH",
"141 -212 OFFCURVE",
"42 -265 OFFCURVE",
"-36 -265 CURVE SMOOTH",
"-143 -265 OFFCURVE",
"-54 -164 OFFCURVE",
"-101 -164 CURVE SMOOTH",
"-126 -164 OFFCURVE",
"-144 -177 OFFCURVE",
"-152 -200 CURVE SMOOTH",
"-168 -243 OFFCURVE",
"-144 -291 OFFCURVE",
"-47 -290 CURVE SMOOTH",
"32 -289 OFFCURVE",
"219 -226 OFFCURVE",
"285 -72 CURVE SMOOTH",
"336 47 OFFCURVE",
"312 125 OFFCURVE",
"184 125 CURVE SMOOTH"
);
}
);
width = 441;
},
{
associatedMasterId = "9372F035-DA38-4B54-966C-CEBA9B53DD02";
backgroundImage = {
crop = "{{1627.778, 919.259}, {222.222, 366.667}}";
imagePath = "../../1878 Limprimerie Berger Levrault Notice historique/Romain/JACOB-notice-187523.jpg";
transform = "{2.7, 0, 0, 2.7, -4569, -2762}";
};
layerId = "0EB56064-589C-4CA1-B490-F29978E73C5E";
name = "Oct 17 17, 12:03";
paths = (
{
closed = 1;
nodes = (
"178 125 LINE",
"253 193 OFFCURVE",
"324 240 OFFCURVE",
"324 320 CURVE SMOOTH",
"324 389 OFFCURVE",
"259 454 OFFCURVE",
"170 454 CURVE SMOOTH",
"85 454 OFFCURVE",
"14 392 OFFCURVE",
"14 322 CURVE SMOOTH",
"14 261 OFFCURVE",
"52 229 OFFCURVE",
"104 221 CURVE",
"104 242 LINE",
"65 248 OFFCURVE",
"41 279 OFFCURVE",
"41 322 CURVE SMOOTH",
"41 384 OFFCURVE",
"109 424 OFFCURVE",
"151 424 CURVE SMOOTH",
"219 424 OFFCURVE",
"268 374 OFFCURVE",
"268 310 CURVE SMOOTH",
"268 241 OFFCURVE",
"213 187 OFFCURVE",
"112 112 CURVE",
"165 116 LINE"
);
},
{
closed = 1;
nodes = (
"177 -289 OFFCURVE",
"321 -226 OFFCURVE",
"331 -72 CURVE SMOOTH",
"339 47 OFFCURVE",
"306 125 OFFCURVE",
"178 125 CURVE SMOOTH",
"157 125 OFFCURVE",
"135 123 OFFCURVE",
"112 112 CURVE",
"112 79 LINE",
"128 90 OFFCURVE",
"147 99 OFFCURVE",
"179 99 CURVE SMOOTH",
"229 99 OFFCURVE",
"255 47 OFFCURVE",
"247 -72 CURVE SMOOTH",
"238 -212 OFFCURVE",
"178 -265 OFFCURVE",
"100 -265 CURVE SMOOTH",
"-7 -265 OFFCURVE",
"45 -164 OFFCURVE",
"-2 -164 CURVE SMOOTH",
"-27 -164 OFFCURVE",
"-40 -177 OFFCURVE",
"-40 -200 CURVE SMOOTH",
"-40 -243 OFFCURVE",
"2 -291 OFFCURVE",
"98 -290 CURVE SMOOTH"
);
}
);
width = 405;
},
{
associatedMasterId = "9372F035-DA38-4B54-966C-CEBA9B53DD02";
layerId = "E6B8952F-D64A-490A-9CF5-6DF985D88222";
name = "new Layer";
paths = (
{
closed = 1;
nodes = (
"174 125 OFFCURVE",
"164 125 OFFCURVE",
"152 123 CURVE",
"227 171 OFFCURVE",
"369 216 OFFCURVE",
"404 313 CURVE SMOOTH",
"433 392 OFFCURVE",
"385 453 OFFCURVE",
"286 453 CURVE SMOOTH",
"201 453 OFFCURVE",
"116 383 OFFCURVE",
"90 313 CURVE SMOOTH",
"68 252 OFFCURVE",
"93 202 OFFCURVE",
"142 194 CURVE",
"150 215 LINE",
"113 221 OFFCURVE",
"95 254 OFFCURVE",
"115 310 CURVE SMOOTH",
"136 368 OFFCURVE",
"195 423 OFFCURVE",
"260 423 CURVE SMOOTH",
"329 423 OFFCURVE",
"344 367 OFFCURVE",
"321 303 CURVE SMOOTH",
"296 234 OFFCURVE",
"224 190 OFFCURVE",
"113 112 CURVE",
"101 79 LINE",
"121 90 OFFCURVE",
"143 99 OFFCURVE",
"175 99 CURVE SMOOTH",
"225 99 OFFCURVE",
"252 47 OFFCURVE",
"201 -72 CURVE SMOOTH",
"141 -212 OFFCURVE",
"42 -265 OFFCURVE",
"-36 -265 CURVE SMOOTH",
"-143 -265 OFFCURVE",
"-54 -164 OFFCURVE",
"-101 -164 CURVE SMOOTH",
"-126 -164 OFFCURVE",
"-144 -177 OFFCURVE",
"-152 -200 CURVE SMOOTH",
"-168 -243 OFFCURVE",
"-144 -291 OFFCURVE",
"-47 -290 CURVE SMOOTH",
"32 -289 OFFCURVE",
"219 -226 OFFCURVE",
"285 -72 CURVE SMOOTH",
"336 47 OFFCURVE",
"312 125 OFFCURVE",
"184 125 CURVE SMOOTH"
);
}
);
width = 441;
}
);
unicode = 0033;
},
{
glyphname = four;
lastChange = "2017-10-18 15:40:48 +0000";
layers = (
{
layerId = "9372F035-DA38-4B54-966C-CEBA9B53DD02";
paths = (
{
closed = 1;
nodes = (
"55 242 LINE",
"260 242 LINE",
"381 573 LINE"
);
},
{
closed = 1;
nodes = (
"253 222 LINE",
"17 222 LINE",
"24 242 LINE",
"488 710 LINE",
"500 710 LINE",
"330 242 LINE",
"464 242 LINE",
"457 222 LINE",
"323 222 LINE",
"286 121 LINE SMOOTH",
"253 31 OFFCURVE",
"266 29 OFFCURVE",
"322 22 CURVE SMOOTH",
"337 20 LINE",
"328 -3 LINE",
"207 0 LINE",
"84 -3 LINE",
"92 20 LINE",
"108 22 LINE SMOOTH",
"169 30 OFFCURVE",
"184 31 OFFCURVE",
"216 121 CURVE SMOOTH"
);
}
);
width = 496;
},
{
associatedMasterId = "9372F035-DA38-4B54-966C-CEBA9B53DD02";
background = {
paths = (
{
closed = 1;
nodes = (
"356 710 OFFCURVE",
"347 713 OFFCURVE",
"339 703 CURVE",
"30 242 LINE",
"30 222 LINE",
"266 222 LINE",
"266 0 LINE",
"356 0 LINE",
"356 222 LINE",
"490 222 LINE",
"490 242 LINE",
"356 242 LINE",
"356 700 LINE"
);
}
);
};
backgroundImage = {
crop = "{{1548.519, 1244.074}, {222.222, 366.667}}";
imagePath = "../../1878 Limprimerie Berger Levrault Notice historique/Romain/JACOB-notice-187522.jpg";
locked = "1";
transform = "{2.7, 0, 0, 2.7, -4231, -3622}";
};
hints = (
{
origin = "{0, 5}";
scale = "{1, -1}";
type = Corner;
name = "_corner-bdc";
options = 1;
},
{
origin = "{0, 4}";
type = Corner;
name = "_corner-bdc";
}
);
layerId = "96C70FD4-32BB-44A7-BFFB-954A20F34F86";
name = "Oct 17 17, 11:54";
paths = (
{
closed = 1;
nodes = (
"344 710 LINE",
"30 242 LINE",
"30 222 LINE",
"266 222 LINE",
"266 0 LINE",
"356 0 LINE",
"356 222 LINE",
"490 222 LINE",
"490 242 LINE",
"356 242 LINE",
"356 710 LINE"
);
},
{
closed = 1;
nodes = (
"266 242 LINE",
"47 242 LINE",
"44 226 LINE",
"290 588 LINE",
"266 580 LINE"
);
}
);
width = 550;
},
{
associatedMasterId = "9372F035-DA38-4B54-966C-CEBA9B53DD02";
layerId = "E6B8952F-D64A-490A-9CF5-6DF985D88222";
name = "new Layer";
paths = (
{
closed = 1;
nodes = (
"55 242 LINE",
"260 242 LINE",
"381 573 LINE"
);
},
{
closed = 1;
nodes = (
"253 222 LINE",
"17 222 LINE",
"24 242 LINE",
"488 710 LINE",
"500 710 LINE",
"330 242 LINE",
"464 242 LINE",
"457 222 LINE",
"323 222 LINE",
"286 121 LINE SMOOTH",
"253 31 OFFCURVE",
"266 29 OFFCURVE",
"322 22 CURVE SMOOTH",
"337 20 LINE",
"328 -3 LINE",
"207 0 LINE",
"84 -3 LINE",
"92 20 LINE",
"108 22 LINE SMOOTH",
"169 30 OFFCURVE",
"184 31 OFFCURVE",
"216 121 CURVE SMOOTH"
);
}
);
width = 496;
},
{
associatedMasterId = "9372F035-DA38-4B54-966C-CEBA9B53DD02";
background = {
paths = (
{
closed = 1;
nodes = (
"354 710 LINE",
"40 242 LINE",
"40 222 LINE",
"276 222 LINE",
"276 0 LINE",
"366 0 LINE",
"366 222 LINE",
"500 222 LINE",
"500 242 LINE",
"366 242 LINE",
"366 710 LINE"
);
},
{
closed = 1;
nodes = (
"276 242 LINE",
"57 242 LINE",
"54 226 LINE",
"300 588 LINE",
"276 580 LINE"
);
}
);
};
backgroundImage = {
crop = "{{1548.519, 1244.074}, {222.222, 366.667}}";
imagePath = "../../1878 Limprimerie Berger Levrault Notice historique/Romain/JACOB-notice-187522.jpg";
locked = "1";
transform = "{2.7, 0, 0, 2.7, -4221, -3622}";
};
hints = (
{
origin = "{0, 5}";
scale = "{1, -1}";
type = Corner;
name = "_corner-bdc";
options = 1;
},
{
origin = "{0, 4}";
type = Corner;
name = "_corner-bdc";
}
);
layerId = "508C3F73-4C6D-439B-BA11-C64FDCFAA8BE";
name = "Oct 17 17, 14:15";
paths = (
{
closed = 1;
nodes = (
"334 710 LINE",
"40 242 LINE",
"40 222 LINE",
"276 222 LINE",
"276 0 LINE",
"346 0 LINE",
"346 222 LINE",
"480 222 LINE",
"480 242 LINE",
"346 242 LINE",
"346 710 LINE"
);
},
{
closed = 1;
nodes = (
"276 242 LINE",
"64 242 LINE",
"276 580 LINE"
);
}
);
width = 540;
},
{
associatedMasterId = "9372F035-DA38-4B54-966C-CEBA9B53DD02";
layerId = "9BE9485E-9A39-4C62-9FF5-C0DD3E9E4746";
name = "Oct 17 17, 15:57";
paths = (
{
closed = 1;
nodes = (
"48 242 LINE",
"260 242 LINE",
"383 580 LINE"
);
},
{
closed = 1;
nodes = (
"253 222 LINE",
"17 222 LINE",
"24 242 LINE",
"488 710 LINE",
"500 710 LINE",
"330 242 LINE",
"464 242 LINE",
"457 222 LINE",
"323 222 LINE",
"286 121 LINE SMOOTH",
"253 31 OFFCURVE",
"266 29 OFFCURVE",
"322 22 CURVE SMOOTH",
"337 20 LINE",
"328 -3 LINE",
"207 0 LINE",
"84 -3 LINE",
"92 20 LINE",
"108 22 LINE SMOOTH",
"169 30 OFFCURVE",
"184 31 OFFCURVE",
"216 121 CURVE SMOOTH"
);
}
);
width = 496;
}
);
unicode = 0034;
},
{
glyphname = five;
lastChange = "2017-10-18 15:40:48 +0000";
layers = (
{
layerId = "9372F035-DA38-4B54-966C-CEBA9B53DD02";
paths = (
{
closed = 1;
nodes = (
"192 -10 OFFCURVE",
"348 109 OFFCURVE",
"405 239 CURVE SMOOTH",
"460 365 OFFCURVE",
"410 454 OFFCURVE",
"320 454 CURVE SMOOTH",
"251 454 OFFCURVE",
"181 424 OFFCURVE",
"152 386 CURVE",
"144 367 LINE",
"156 366 LINE",
"187 406 OFFCURVE",
"236 424 OFFCURVE",
"307 424 CURVE SMOOTH",
"365 424 OFFCURVE",
"382 379 OFFCURVE",
"321 239 CURVE SMOOTH",
"259 97 OFFCURVE",
"157 20 OFFCURVE",
"79 20 CURVE SMOOTH",
"0 20 OFFCURVE",
"46 99 OFFCURVE",
"13 99 CURVE SMOOTH",
"-12 99 OFFCURVE",
"-34 84 OFFCURVE",
"-42 61 CURVE SMOOTH",
"-58 18 OFFCURVE",
"-32 -10 OFFCURVE",
"64 -10 CURVE SMOOTH"
);
},
{
closed = 1;
nodes = (
"138 367 LINE",
"156 366 LINE",
"311 718 LINE",
"291 719 LINE"
);
},
{
closed = 1;
nodes = (
"397 609 LINE SMOOTH",
"494 613 OFFCURVE",
"527 638 OFFCURVE",
"574 720 CURVE",
"542 701 OFFCURVE",
"477 697 OFFCURVE",
"435 695 CURVE SMOOTH",
"283 688 LINE",
"246 602 LINE"
);
}
);
width = 448;
},
{
associatedMasterId = "9372F035-DA38-4B54-966C-CEBA9B53DD02";
backgroundImage = {
crop = "{{1635.926, 1082.222}, {258.889, 366.667}}";
imagePath = "../../../../1878 Limprimerie Berger Levrault Notice historique/Romain/JACOB-notice-187524.jpg";
locked = "1";
transform = "{2.7, 0, 0, 2.7, -4542, -3187}";
};
layerId = "1710717F-5F7B-423D-9105-4DE92A9FDE94";
name = "Oct 16 17, 11:23";
paths = (
{
closed = 1;
nodes = (
"288 -5 OFFCURVE",
"396 109 OFFCURVE",
"412 239 CURVE SMOOTH",
"428 365 OFFCURVE",
"349 465 OFFCURVE",
"229 465 CURVE SMOOTH",
"200 465 OFFCURVE",
"173 459 OFFCURVE",
"151 424 CURVE",
"147 366 LINE",
"147 416 OFFCURVE",
"182 440 OFFCURVE",
"213 440 CURVE",
"301 440 OFFCURVE",
"343 379 OFFCURVE",
"328 239 CURVE SMOOTH",
"313 99 OFFCURVE",
"248 18 OFFCURVE",
"160 18 CURVE",
"91 18 OFFCURVE",
"104 89 OFFCURVE",
"71 89 CURVE SMOOTH",
"51 89 OFFCURVE",
"40 78 OFFCURVE",
"40 61 CURVE SMOOTH",
"40 23 OFFCURVE",
"96 -5 OFFCURVE",
"160 -5 CURVE SMOOTH"
);
},
{
closed = 1;
nodes = (
"129 367 LINE",
"147 366 LINE",
"163 598 LINE",
"173 675 LINE",
"153 700 LINE"
);
},
{
closed = 1;
nodes = (
"258 602 LINE SMOOTH",
"323 606 OFFCURVE",
"345 650 OFFCURVE",
"350 697 CURVE SMOOTH",
"351 706 OFFCURVE",
"349 712 OFFCURVE",
"342 707 CURVE SMOOTH",
"289 671 OFFCURVE",
"231 675 OFFCURVE",
"173 675 CURVE SMOOTH",
"166 675 LINE",
"159 596 LINE"
);
}
);
width = 454;
},
{
associatedMasterId = "9372F035-DA38-4B54-966C-CEBA9B53DD02";
backgroundImage = {
crop = "{{1635.926, 1082.222}, {258.889, 366.667}}";
imagePath = "../../../../1878 Limprimerie Berger Levrault Notice historique/Romain/JACOB-notice-187524.jpg";
locked = "1";
transform = "{2.7, 0, 0, 2.7, -4542, -3187}";
};
guideLines = (
{
angle = 83;
position = "{412, 239}";
},
{
angle = 262.9244;
position = "{238, 602}";
},
{
angle = 83;
position = "{328, 239}";
},
{
angle = 83;
position = "{99, 367}";
}
);
layerId = "8D2F6C0D-CA20-43F9-9222-33E4020A32D5";
name = "Oct 16 17, 12:08";
paths = (
{
closed = 1;
nodes = (
"290 -10 OFFCURVE",
"396 109 OFFCURVE",
"412 239 CURVE SMOOTH",
"428 365 OFFCURVE",
"341 465 OFFCURVE",
"221 465 CURVE SMOOTH",
"192 465 OFFCURVE",
"133 451 OFFCURVE",
"111 416 CURVE",
"105 367 LINE",
"117 366 LINE",
"124 419 OFFCURVE",
"187 440 OFFCURVE",
"218 440 CURVE SMOOTH",
"306 440 OFFCURVE",
"345 379 OFFCURVE",
"328 239 CURVE SMOOTH",
"311 99 OFFCURVE",
"244 20 OFFCURVE",
"166 20 CURVE SMOOTH",
"87 20 OFFCURVE",
"104 99 OFFCURVE",
"71 99 CURVE SMOOTH",
"46 99 OFFCURVE",
"30 84 OFFCURVE",
"30 61 CURVE SMOOTH",
"30 18 OFFCURVE",
"66 -10 OFFCURVE",
"162 -10 CURVE SMOOTH"
);
},
{
closed = 1;
nodes = (
"99 367 LINE",
"117 366 LINE",
"162 718 LINE",
"142 719 LINE"
);
},
{
closed = 1;
nodes = (
"240 622 LINE SMOOTH",
"315 622 OFFCURVE",
"369 648 OFFCURVE",
"376 720 CURVE",
"342 697 OFFCURVE",
"292 700 OFFCURVE",
"250 700 CURVE SMOOTH",
"148 700 LINE",
"138 622 LINE"
);
}
);
width = 454;
},
{
associatedMasterId = "9372F035-DA38-4B54-966C-CEBA9B53DD02";
backgroundImage = {
crop = "{{1635.926, 1082.222}, {258.889, 366.667}}";
imagePath = "../../../../1878 Limprimerie Berger Levrault Notice historique/Romain/JACOB-notice-187524.jpg";
locked = "1";
transform = "{2.7, 0, 0, 2.7, -4542, -3187}";
};
guideLines = (
{
angle = 83;
position = "{412, 239}";
},
{
angle = 262.9244;
position = "{238, 602}";
},
{
angle = 83;
position = "{328, 239}";
},
{
angle = 83;
position = "{99, 367}";
}
);
layerId = "16E3071D-E1E4-403E-842F-648A0131111F";
name = "Oct 16 17, 12:23";
paths = (
{
closed = 1;
nodes = (
"290 -10 OFFCURVE",
"396 109 OFFCURVE",
"412 239 CURVE SMOOTH",
"428 365 OFFCURVE",
"341 465 OFFCURVE",
"221 465 CURVE SMOOTH",
"192 465 OFFCURVE",
"133 451 OFFCURVE",
"111 416 CURVE",
"105 367 LINE",
"117 366 LINE",
"124 419 OFFCURVE",
"187 440 OFFCURVE",
"218 440 CURVE SMOOTH",
"306 440 OFFCURVE",
"345 379 OFFCURVE",
"328 239 CURVE SMOOTH",
"311 99 OFFCURVE",
"244 20 OFFCURVE",
"166 20 CURVE SMOOTH",
"87 20 OFFCURVE",
"104 99 OFFCURVE",
"71 99 CURVE SMOOTH",
"46 99 OFFCURVE",
"30 84 OFFCURVE",
"30 61 CURVE SMOOTH",
"30 18 OFFCURVE",
"66 -10 OFFCURVE",
"162 -10 CURVE SMOOTH"
);
},
{
closed = 1;
nodes = (
"99 367 LINE",
"117 366 LINE",
"162 718 LINE",
"142 719 LINE"
);
},
{
closed = 1;
nodes = (
"240 612 LINE SMOOTH",
"315 619 OFFCURVE",
"369 648 OFFCURVE",
"376 720 CURVE",
"342 697 OFFCURVE",
"292 699 OFFCURVE",
"250 695 CURVE SMOOTH",
"148 685 LINE",
"138 602 LINE"
);
}
);
width = 454;
},
{
associatedMasterId = "9372F035-DA38-4B54-966C-CEBA9B53DD02";
backgroundImage = {
crop = "{{1635.926, 1082.222}, {258.889, 366.667}}";
imagePath = "../../1878 Limprimerie Berger Levrault Notice historique/Romain/JACOB-notice-187524.jpg";
locked = "1";
transform = "{2.7, 0, 0, 2.7, -4542, -3187}";
};
guideLines = (
{
angle = 86;
position = "{412, 239}";
},
{
angle = 86;
position = "{218, 436}";
},
{
angle = 86;
position = "{328, 239}";
},
{
angle = 86;
position = "{105, 367}";
}
);
layerId = "4DFE8D87-2D22-4A62-BDA6-AB70F236CDC3";
name = "Oct 17 17, 12:06";
paths = (
{
closed = 1;
nodes = (
"290 -10 OFFCURVE",
"403 109 OFFCURVE",
"412 239 CURVE SMOOTH",
"421 365 OFFCURVE",
"339 454 OFFCURVE",
"219 454 CURVE SMOOTH",
"190 454 OFFCURVE",
"111 446 OFFCURVE",
"106 386 CURVE",
"105 367 LINE",
"117 366 LINE",
"124 419 OFFCURVE",
"186 424 OFFCURVE",
"217 424 CURVE SMOOTH",
"305 424 OFFCURVE",
"338 379 OFFCURVE",
"328 239 CURVE SMOOTH",
"318 97 OFFCURVE",
"244 20 OFFCURVE",
"166 20 CURVE SMOOTH",
"87 20 OFFCURVE",
"104 99 OFFCURVE",
"71 99 CURVE SMOOTH",
"46 99 OFFCURVE",
"30 84 OFFCURVE",
"30 61 CURVE SMOOTH",
"30 18 OFFCURVE",
"66 -10 OFFCURVE",
"162 -10 CURVE SMOOTH"
);
},
{
closed = 1;
nodes = (
"99 367 LINE",
"117 366 LINE",
"144 718 LINE",
"124 719 LINE"
);
},
{
closed = 1;
nodes = (
"240 609 LINE SMOOTH",
"335 615 OFFCURVE",
"359 638 OFFCURVE",
"376 720 CURVE",
"351 701 OFFCURVE",
"288 697 OFFCURVE",
"246 695 CURVE SMOOTH",
"127 688 LINE",
"121 602 LINE"
);
}
);
width = 454;
},
{
associatedMasterId = "9372F035-DA38-4B54-966C-CEBA9B53DD02";
layerId = "E6B8952F-D64A-490A-9CF5-6DF985D88222";
name = "new Layer";
paths = (
{
closed = 1;
nodes = (
"192 -10 OFFCURVE",
"348 109 OFFCURVE",
"405 239 CURVE SMOOTH",
"460 365 OFFCURVE",
"410 454 OFFCURVE",
"320 454 CURVE SMOOTH",
"251 454 OFFCURVE",
"181 424 OFFCURVE",
"152 386 CURVE",
"144 367 LINE",
"156 366 LINE",
"187 406 OFFCURVE",
"236 424 OFFCURVE",
"307 424 CURVE SMOOTH",
"365 424 OFFCURVE",
"382 379 OFFCURVE",
"321 239 CURVE SMOOTH",
"259 97 OFFCURVE",
"157 20 OFFCURVE",
"79 20 CURVE SMOOTH",
"0 20 OFFCURVE",
"46 99 OFFCURVE",
"13 99 CURVE SMOOTH",
"-12 99 OFFCURVE",
"-34 84 OFFCURVE",
"-42 61 CURVE SMOOTH",
"-58 18 OFFCURVE",
"-32 -10 OFFCURVE",
"64 -10 CURVE SMOOTH"
);
},
{
closed = 1;
nodes = (
"138 367 LINE",
"156 366 LINE",
"311 718 LINE",
"291 719 LINE"
);
},
{
closed = 1;
nodes = (
"397 609 LINE SMOOTH",
"494 613 OFFCURVE",
"527 638 OFFCURVE",
"574 720 CURVE",
"542 701 OFFCURVE",
"477 697 OFFCURVE",
"435 695 CURVE SMOOTH",
"283 688 LINE",
"246 602 LINE"
);
}
);
width = 448;
},
{
associatedMasterId = "9372F035-DA38-4B54-966C-CEBA9B53DD02";
background = {
paths = (
{
closed = 1;
nodes = (
"290 -10 OFFCURVE",
"403 109 OFFCURVE",
"412 239 CURVE SMOOTH",
"421 365 OFFCURVE",
"339 454 OFFCURVE",
"249 454 CURVE SMOOTH",
"180 454 OFFCURVE",
"120 406 OFFCURVE",
"105 368 CURVE",
"104 349 LINE",
"116 348 LINE",
"132 388 OFFCURVE",
"176 424 OFFCURVE",
"247 424 CURVE SMOOTH",
"305 424 OFFCURVE",
"338 379 OFFCURVE",
"328 239 CURVE SMOOTH",
"318 97 OFFCURVE",
"244 20 OFFCURVE",
"166 20 CURVE SMOOTH",
"87 20 OFFCURVE",
"104 99 OFFCURVE",
"71 99 CURVE SMOOTH",
"46 99 OFFCURVE",
"30 84 OFFCURVE",
"30 61 CURVE SMOOTH",
"30 18 OFFCURVE",
"66 -10 OFFCURVE",
"162 -10 CURVE SMOOTH"
);
},
{
closed = 1;
nodes = (
"98 349 LINE",
"116 348 LINE",
"144 718 LINE",
"124 719 LINE"
);
},
{
closed = 1;
nodes = (
"270 609 LINE SMOOTH",
"365 613 OFFCURVE",
"389 638 OFFCURVE",
"406 720 CURVE",
"381 701 OFFCURVE",
"318 697 OFFCURVE",
"276 695 CURVE SMOOTH",
"127 688 LINE",
"121 602 LINE"
);
}
);
};
backgroundImage = {
crop = "{{1635.926, 1082.222}, {258.889, 366.667}}";
imagePath = "../../1878 Limprimerie Berger Levrault Notice historique/Romain/JACOB-notice-187524.jpg";
locked = "1";
transform = "{2.7, 0, 0, 2.7, -4542, -3187}";
};
guideLines = (
{
angle = 86;
position = "{580, 0}";
},
{
angle = 86;
position = "{218, 436}";
},
{
angle = 86;
position = "{496, 0}";
},
{
angle = 86;
position = "{105, 367}";
}
);
layerId = "2C5ABE43-7BD9-41D2-B816-76D188BD13E3";
name = "Oct 18 17, 14:52";
paths = (
{
closed = 1;
nodes = (
"290 -10 OFFCURVE",
"412 114 OFFCURVE",
"412 258 CURVE SMOOTH",
"412 370 OFFCURVE",
"343 458 OFFCURVE",
"243 458 CURVE SMOOTH",
"184 458 OFFCURVE",
"121 434 OFFCURVE",
"105 368 CURVE",
"104 349 LINE",
"116 348 LINE",
"131 406 OFFCURVE",
"176 433 OFFCURVE",
"237 433 CURVE SMOOTH",
"295 433 OFFCURVE",
"328 355 OFFCURVE",
"328 252 CURVE SMOOTH",
"328 99 OFFCURVE",
"244 12 OFFCURVE",
"166 12 CURVE SMOOTH",
"87 12 OFFCURVE",
"104 99 OFFCURVE",
"71 99 CURVE SMOOTH",
"46 99 OFFCURVE",
"30 84 OFFCURVE",
"30 61 CURVE SMOOTH",
"30 18 OFFCURVE",
"66 -10 OFFCURVE",
"162 -10 CURVE SMOOTH"
);
},
{
closed = 1;
nodes = (
"98 349 LINE",
"116 348 LINE",
"144 718 LINE",
"124 719 LINE"
);
},
{
closed = 1;
nodes = (
"270 609 LINE SMOOTH",
"365 613 OFFCURVE",
"389 638 OFFCURVE",
"406 720 CURVE",
"381 701 OFFCURVE",
"318 697 OFFCURVE",
"276 695 CURVE SMOOTH",
"127 688 LINE",
"121 602 LINE"
);
}
);
width = 454;
}
);
unicode = 0035;
},
{
glyphname = six;
lastChange = "2017-10-18 15:40:48 +0000";
layers = (
{
layerId = "9372F035-DA38-4B54-966C-CEBA9B53DD02";
paths = (
{
closed = 1;
nodes = (
"369 696 OFFCURVE",
"257 538 OFFCURVE",
"181 330 CURVE SMOOTH",
"142 222 LINE SMOOTH",
"95 93 OFFCURVE",
"120 20 OFFCURVE",
"198 20 CURVE SMOOTH",
"276 20 OFFCURVE",
"350 93 OFFCURVE",
"397 222 CURVE SMOOTH",
"444 351 OFFCURVE",
"423 424 OFFCURVE",
"345 424 CURVE SMOOTH",
"267 424 OFFCURVE",
"189 351 OFFCURVE",
"142 222 CURVE",
"112 222 LINE",
"160 356 OFFCURVE",
"256 454 OFFCURVE",
"356 454 CURVE SMOOTH",
"476 454 OFFCURVE",
"525 356 OFFCURVE",
"477 222 CURVE SMOOTH",
"428 88 OFFCURVE",
"307 -10 OFFCURVE",
"187 -10 CURVE SMOOTH",
"67 -10 OFFCURVE",
"15 95 OFFCURVE",
"88 295 CURVE SMOOTH",
"161 495 OFFCURVE",
"313 720 OFFCURVE",
"493 720 CURVE SMOOTH",
"593 720 OFFCURVE",
"587 681 OFFCURVE",
"578 657 CURVE SMOOTH",
"569 633 OFFCURVE",
"541 620 OFFCURVE",
"522 620 CURVE SMOOTH",
"490 620 OFFCURVE",
"519 696 OFFCURVE",
"474 696 CURVE SMOOTH"
);
}
);
width = 531;
},
{
associatedMasterId = "9372F035-DA38-4B54-966C-CEBA9B53DD02";
layerId = "E6B8952F-D64A-490A-9CF5-6DF985D88222";
name = "new Layer";
paths = (
{
closed = 1;
nodes = (
"369 696 OFFCURVE",
"257 538 OFFCURVE",
"181 330 CURVE SMOOTH",
"142 222 LINE SMOOTH",
"95 93 OFFCURVE",
"120 20 OFFCURVE",
"198 20 CURVE SMOOTH",
"276 20 OFFCURVE",
"350 93 OFFCURVE",
"397 222 CURVE SMOOTH",
"444 351 OFFCURVE",
"423 424 OFFCURVE",
"345 424 CURVE SMOOTH",
"267 424 OFFCURVE",
"189 351 OFFCURVE",
"142 222 CURVE",
"112 222 LINE",
"160 356 OFFCURVE",
"256 454 OFFCURVE",
"356 454 CURVE SMOOTH",
"476 454 OFFCURVE",
"525 356 OFFCURVE",
"477 222 CURVE SMOOTH",
"428 88 OFFCURVE",
"307 -10 OFFCURVE",
"187 -10 CURVE SMOOTH",
"67 -10 OFFCURVE",
"15 95 OFFCURVE",
"88 295 CURVE SMOOTH",
"161 495 OFFCURVE",
"313 720 OFFCURVE",
"493 720 CURVE SMOOTH",
"593 720 OFFCURVE",
"587 681 OFFCURVE",
"578 657 CURVE SMOOTH",
"569 633 OFFCURVE",
"541 620 OFFCURVE",
"522 620 CURVE SMOOTH",
"490 620 OFFCURVE",
"519 696 OFFCURVE",
"474 696 CURVE SMOOTH"
);
}
);
width = 531;
}
);
unicode = 0036;
},
{
glyphname = seven;
lastChange = "2017-10-18 15:40:48 +0000";
layers = (
{
layerId = "9372F035-DA38-4B54-966C-CEBA9B53DD02";
paths = (
{
closed = 1;
nodes = (
"154 440 LINE",
"180 510 LINE",
"162 510 LINE",
"70 258 LINE",
"88 258 LINE",
"124 358 LINE",
"439 358 LINE",
"481 428 LINE",
"-2 -215 LINE SMOOTH",
"-43 -270 OFFCURVE",
"-55 -312 OFFCURVE",
"-21 -312 CURVE SMOOTH",
"-11 -312 OFFCURVE",
"22 -300 OFFCURVE",
"55 -249 CURVE SMOOTH",
"514 440 LINE"
);
}
);
width = 488;
},
{
associatedMasterId = "9372F035-DA38-4B54-966C-CEBA9B53DD02";
background = {
paths = (
{
closed = 1;
nodes = (
"54 440 LINE",
"54 510 LINE",
"36 510 LINE",
"36 258 LINE",
"54 258 LINE",
"54 358 LINE",
"369 358 LINE",
"395 440 LINE",
"136 -215 LINE SMOOTH",
"114 -270 OFFCURVE",
"119 -312 OFFCURVE",
"153 -312 CURVE SMOOTH",
"178 -312 OFFCURVE",
"193 -296 OFFCURVE",
"209 -243 CURVE SMOOTH",
"414 440 LINE"
);
}
);
};
layerId = "04677746-CD67-4685-B628-2597F82A9F2A";
name = "Oct 13 17, 15:08";
paths = (
{
closed = 1;
nodes = (
"54 440 LINE",
"54 510 LINE",
"36 510 LINE",
"36 258 LINE",
"54 258 LINE",
"54 358 LINE",
"369 358 LINE",
"395 440 LINE",
"136 -215 LINE SMOOTH",
"114 -270 OFFCURVE",
"119 -312 OFFCURVE",
"153 -312 CURVE SMOOTH",
"163 -312 OFFCURVE",
"179 -302 OFFCURVE",
"199 -252 CURVE SMOOTH",
"231 -175 OFFCURVE",
"280 -7 OFFCURVE",
"390 360 CURVE SMOOTH",
"414 440 LINE"
);
}
);
width = 444;
},
{
associatedMasterId = "9372F035-DA38-4B54-966C-CEBA9B53DD02";
layerId = "E6B8952F-D64A-490A-9CF5-6DF985D88222";
name = "new Layer";
paths = (
{
closed = 1;
nodes = (
"154 440 LINE",
"180 510 LINE",
"162 510 LINE",
"70 258 LINE",
"88 258 LINE",
"124 358 LINE",
"439 358 LINE",
"481 428 LINE",
"-2 -215 LINE SMOOTH",
"-43 -270 OFFCURVE",
"-55 -312 OFFCURVE",
"-21 -312 CURVE SMOOTH",
"-11 -312 OFFCURVE",
"22 -300 OFFCURVE",
"55 -249 CURVE SMOOTH",
"514 440 LINE"
);
}
);
width = 488;
}
);
unicode = 0037;
},
{
glyphname = eight;
lastChange = "2017-10-18 15:40:48 +0000";
layers = (
{
layerId = "9372F035-DA38-4B54-966C-CEBA9B53DD02";
paths = (
{
closed = 1;
nodes = (
"273 362 LINE",
"191 308 OFFCURVE",
"96 253 OFFCURVE",
"61 158 CURVE SMOOTH",
"35 86 OFFCURVE",
"62 14 OFFCURVE",
"166 14 CURVE SMOOTH",
"248 14 OFFCURVE",
"329 64 OFFCURVE",
"361 153 CURVE SMOOTH",
"386 221 OFFCURVE",
"343 269 OFFCURVE",
"283 324 CURVE SMOOTH",
"222 382 LINE SMOOTH",
"178 423 OFFCURVE",
"153 477 OFFCURVE",
"185 563 CURVE SMOOTH",
"221 662 OFFCURVE",
"332 724 OFFCURVE",
"423 724 CURVE SMOOTH",
"524 724 OFFCURVE",
"554 657 OFFCURVE",
"526 580 CURVE SMOOTH",
"494 492 OFFCURVE",
"410 437 OFFCURVE",
"339 394 CURVE",
"325 409 LINE",
"380 443 OFFCURVE",
"469 500 OFFCURVE",
"496 575 CURVE SMOOTH",
"519 638 OFFCURVE",
"497 694 OFFCURVE",
"420 694 CURVE SMOOTH",
"351 694 OFFCURVE",
"283 647 OFFCURVE",
"259 580 CURVE SMOOTH",
"240 527 OFFCURVE",
"257 489 OFFCURVE",
"308 444 CURVE SMOOTH",
"369 389 LINE SMOOTH",
"429 336 OFFCURVE",
"465 272 OFFCURVE",
"433 186 CURVE SMOOTH",
"393 74 OFFCURVE",
"280 -14 OFFCURVE",
"156 -14 CURVE SMOOTH",
"25 -14 OFFCURVE",
"1 70 OFFCURVE",
"32 155 CURVE SMOOTH",
"72 263 OFFCURVE",
"169 319 OFFCURVE",
"252 375 CURVE"
);
}
);
width = 505;
},
{
associatedMasterId = "9372F035-DA38-4B54-966C-CEBA9B53DD02";
layerId = "54229142-6325-4BEF-B5C7-A92690552DE7";
name = "Oct 13 17, 14:39";
paths = (
{
closed = 1;
nodes = (
"298 347 LINE",
"298 347 OFFCURVE",
"160 272 OFFCURVE",
"160 147 CURVE SMOOTH",
"160 75 OFFCURVE",
"213 21 OFFCURVE",
"296 21 CURVE SMOOTH",
"338 21 OFFCURVE",
"450 40 OFFCURVE",
"450 153 CURVE SMOOTH",
"450 303 OFFCURVE",
"132 331 OFFCURVE",
"132 557 CURVE SMOOTH",
"132 636 OFFCURVE",
"204 720 OFFCURVE",
"305 720 CURVE SMOOTH",
"392 720 OFFCURVE",
"457 674 OFFCURVE",
"457 585 CURVE SMOOTH",
"457 502 OFFCURVE",
"323 396 OFFCURVE",
"323 396 CURVE",
"318 413 LINE",
"318 413 OFFCURVE",
"434 502 OFFCURVE",
"434 583 CURVE SMOOTH",
"434 657 OFFCURVE",
"363 690 OFFCURVE",
"313 690 CURVE SMOOTH",
"251 690 OFFCURVE",
"203 643 OFFCURVE",
"203 566 CURVE SMOOTH",
"203 416 OFFCURVE",
"512 416 OFFCURVE",
"512 209 CURVE SMOOTH",
"512 58 OFFCURVE",
"398 -10 OFFCURVE",
"306 -10 CURVE SMOOTH",
"204 -10 OFFCURVE",
"135 36 OFFCURVE",
"135 152 CURVE SMOOTH",
"135 272 OFFCURVE",
"291 364 OFFCURVE",
"291 364 CURVE"
);
}
);
width = 600;
},
{
associatedMasterId = "9372F035-DA38-4B54-966C-CEBA9B53DD02";
guideLines = (
{
angle = 90;
position = "{250, -100}";
}
);
layerId = "55AC7368-26CF-4BDA-8755-E2879CD2BE96";
name = "Oct 16 17, 12:26";
paths = (
{
closed = 1;
nodes = (
"240 360 LINE",
"142 298 OFFCURVE",
"75 221 OFFCURVE",
"75 162 CURVE SMOOTH",
"75 68 OFFCURVE",
"143 9 OFFCURVE",
"245 9 CURVE SMOOTH",
"332 9 OFFCURVE",
"390 63 OFFCURVE",
"390 138 CURVE SMOOTH",
"390 183 OFFCURVE",
"340 244 OFFCURVE",
"265 296 CURVE SMOOTH",
"182 354 LINE SMOOTH",
"118 400 OFFCURVE",
"75 477 OFFCURVE",
"75 547 CURVE SMOOTH",
"75 651 OFFCURVE",
"143 720 OFFCURVE",
"246 720 CURVE SMOOTH",
"343 720 OFFCURVE",
"408 658 OFFCURVE",
"408 564 CURVE SMOOTH",
"408 494 OFFCURVE",
"355 416 OFFCURVE",
"275 369 CURVE",
"260 380 LINE",
"334 423 OFFCURVE",
"383 500 OFFCURVE",
"383 574 CURVE SMOOTH",
"383 644 OFFCURVE",
"331 690 OFFCURVE",
"254 690 CURVE SMOOTH",
"183 690 OFFCURVE",
"135 640 OFFCURVE",
"135 581 CURVE SMOOTH",
"135 525 OFFCURVE",
"181 482 OFFCURVE",
"249 435 CURVE SMOOTH",
"333 376 LINE SMOOTH",
"403 327 OFFCURVE",
"450 256 OFFCURVE",
"450 196 CURVE SMOOTH",
"450 74 OFFCURVE",
"372 -10 OFFCURVE",
"255 -10 CURVE SMOOTH",
"132 -10 OFFCURVE",
"50 39 OFFCURVE",
"50 173 CURVE SMOOTH",
"50 239 OFFCURVE",
"120 308 OFFCURVE",
"223 372 CURVE"
);
}
);
width = 500;
},
{
associatedMasterId = "9372F035-DA38-4B54-966C-CEBA9B53DD02";
backgroundImage = {
crop = "{{1538.148, 884.444}, {185.185, 366.667}}";
imagePath = "chiffres/JACOB-notice-187525.jpg";
transform = "{2.646, -0.046, 0.046, 2.646, -4109, -2481}";
};
guideLines = (
{
angle = 90;
position = "{250, -100}";
}
);
layerId = "A3E92046-4EF0-45DD-BE5E-81BFA9C1A53F";
name = "Oct 16 17, 12:36";
paths = (
{
closed = 1;
nodes = (
"240 360 LINE",
"142 300 OFFCURVE",
"75 236 OFFCURVE",
"75 156 CURVE SMOOTH",
"75 57 OFFCURVE",
"143 9 OFFCURVE",
"245 9 CURVE SMOOTH",
"332 9 OFFCURVE",
"390 65 OFFCURVE",
"390 133 CURVE SMOOTH",
"390 188 OFFCURVE",
"340 246 OFFCURVE",
"265 296 CURVE SMOOTH",
"182 354 LINE SMOOTH",
"118 400 OFFCURVE",
"75 465 OFFCURVE",
"75 547 CURVE SMOOTH",
"75 651 OFFCURVE",
"143 720 OFFCURVE",
"246 720 CURVE SMOOTH",
"343 720 OFFCURVE",
"408 664 OFFCURVE",
"408 570 CURVE SMOOTH",
"408 500 OFFCURVE",
"355 416 OFFCURVE",
"275 369 CURVE",
"260 380 LINE",
"334 423 OFFCURVE",
"383 500 OFFCURVE",
"383 574 CURVE SMOOTH",
"383 644 OFFCURVE",
"331 690 OFFCURVE",
"254 690 CURVE SMOOTH",
"183 690 OFFCURVE",
"135 640 OFFCURVE",
"135 581 CURVE SMOOTH",
"135 525 OFFCURVE",
"181 482 OFFCURVE",
"249 435 CURVE SMOOTH",
"333 376 LINE SMOOTH",
"403 328 OFFCURVE",
"450 263 OFFCURVE",
"450 179 CURVE SMOOTH",
"450 76 OFFCURVE",
"372 -10 OFFCURVE",
"245 -10 CURVE SMOOTH",
"132 -10 OFFCURVE",
"50 35 OFFCURVE",
"50 156 CURVE SMOOTH",
"50 248 OFFCURVE",
"123 309 OFFCURVE",
"223 372 CURVE"
);
}
);
width = 500;
},
{
associatedMasterId = "9372F035-DA38-4B54-966C-CEBA9B53DD02";
backgroundImage = {
crop = "{{1538.148, 884.444}, {185.185, 366.667}}";
imagePath = "chiffres/JACOB-notice-187525.jpg";
locked = "1";
transform = "{2.646, -0.046, 0.046, 2.646, -4127, -2481}";
};
guideLines = (
{
angle = 90;
position = "{226, -100}";
},
{
angle = 90;
position = "{50, -200}";
},
{
angle = 90;
position = "{74, -200}";
},
{
angle = 90;
position = "{344, -200}";
},
{
angle = 90;
position = "{368, -200}";
},
{
angle = 230.4038;
position = "{6, 170}";
},
{
angle = -30.1414;
position = "{6, 442}";
},
{
angle = -30.1414;
position = "{7, 561}";
},
{
angle = 230.4038;
position = "{11, 10}";
}
);
layerId = "0C43F830-87D6-43BF-966A-97C1067239D5";
name = "Oct 16 17, 14:42";
paths = (
{
closed = 1;
nodes = (
"213 340 LINE",
"146 297 OFFCURVE",
"74 248 OFFCURVE",
"74 162 CURVE SMOOTH",
"74 76 OFFCURVE",
"133 20 OFFCURVE",
"221 20 CURVE SMOOTH",
"309 20 OFFCURVE",
"368 75 OFFCURVE",
"368 143 CURVE SMOOTH",
"368 208 OFFCURVE",
"319 261 OFFCURVE",
"234 310 CURVE SMOOTH",
"186 338 LINE SMOOTH",
"102 386 OFFCURVE",
"50 456 OFFCURVE",
"50 555 CURVE SMOOTH",
"50 656 OFFCURVE",
"131 720 OFFCURVE",
"222 720 CURVE SMOOTH",
"312 720 OFFCURVE",
"368 657 OFFCURVE",
"368 575 CURVE SMOOTH",
"368 493 OFFCURVE",
"313 450 OFFCURVE",
"251 412 CURVE",
"232 423 LINE",
"282 452 OFFCURVE",
"344 493 OFFCURVE",
"344 565 CURVE SMOOTH",
"344 637 OFFCURVE",
"307 690 OFFCURVE",
"230 690 CURVE SMOOTH",
"153 690 OFFCURVE",
"118 641 OFFCURVE",
"118 581 CURVE SMOOTH",
"118 521 OFFCURVE",
"144 479 OFFCURVE",
"216 439 CURVE SMOOTH",
"266 411 LINE SMOOTH",
"356 361 OFFCURVE",
"428 283 OFFCURVE",
"428 185 CURVE SMOOTH",
"428 86 OFFCURVE",
"351 -10 OFFCURVE",
"231 -10 CURVE SMOOTH",
"111 -10 OFFCURVE",
"50 66 OFFCURVE",
"50 166 CURVE SMOOTH",
"50 266 OFFCURVE",
"133 308 OFFCURVE",
"194 352 CURVE"
);
}
);
width = 478;
},
{
associatedMasterId = "9372F035-DA38-4B54-966C-CEBA9B53DD02";
backgroundImage = {
crop = "{{1538.148, 884.444}, {185.185, 366.667}}";
imagePath = "../../ANRT-Baskerwille/GLYPHS/Master/Glyphs-171013-01/chiffres/JACOB-notice-187525.jpg";
locked = "1";
transform = "{2.646, -0.046, 0.046, 2.646, -4127, -2481}";
};
layerId = "F94D5C3F-A2D8-4C82-83C0-05B669DDCC8F";
name = "Oct 17 17, 12:08";
paths = (
{
closed = 1;
nodes = (
"207 340 LINE",
"147 295 OFFCURVE",
"76 248 OFFCURVE",
"76 162 CURVE SMOOTH",
"76 76 OFFCURVE",
"133 20 OFFCURVE",
"221 20 CURVE SMOOTH",
"309 20 OFFCURVE",
"368 75 OFFCURVE",
"368 143 CURVE SMOOTH",
"368 208 OFFCURVE",
"319 261 OFFCURVE",
"234 310 CURVE SMOOTH",
"186 338 LINE SMOOTH",
"102 386 OFFCURVE",
"50 456 OFFCURVE",
"50 555 CURVE SMOOTH",
"50 656 OFFCURVE",
"131 720 OFFCURVE",
"222 720 CURVE SMOOTH",
"312 720 OFFCURVE",
"370 657 OFFCURVE",
"370 575 CURVE SMOOTH",
"370 488 OFFCURVE",
"311 441 OFFCURVE",
"256 398 CURVE",
"232 413 LINE",
"275 447 OFFCURVE",
"342 489 OFFCURVE",
"342 566 CURVE SMOOTH",
"342 638 OFFCURVE",
"307 690 OFFCURVE",
"230 690 CURVE SMOOTH",
"153 690 OFFCURVE",
"118 641 OFFCURVE",
"118 581 CURVE SMOOTH",
"118 521 OFFCURVE",
"144 479 OFFCURVE",
"216 439 CURVE SMOOTH",
"266 411 LINE SMOOTH",
"356 361 OFFCURVE",
"428 283 OFFCURVE",
"428 185 CURVE SMOOTH",
"428 86 OFFCURVE",
"351 -10 OFFCURVE",
"231 -10 CURVE SMOOTH",
"111 -10 OFFCURVE",
"48 66 OFFCURVE",
"48 166 CURVE SMOOTH",
"48 266 OFFCURVE",
"127 311 OFFCURVE",
"182 357 CURVE"
);
}
);
width = 478;
},
{
associatedMasterId = "9372F035-DA38-4B54-966C-CEBA9B53DD02";
backgroundImage = {
crop = "{{1538.148, 884.444}, {185.185, 366.667}}";
imagePath = "../../ANRT-Baskerwille/GLYPHS/Master/Glyphs-171013-01/chiffres/JACOB-notice-187525.jpg";
locked = "1";
transform = "{2.646, -0.046, 0.046, 2.646, -4122, -2481}";
};
layerId = "DFF01F65-B643-46A8-AC40-117BC7F5F14A";
name = "Oct 17 17, 12:25";
paths = (
{
closed = 1;
nodes = (
"212 354 LINE",
"147 309 OFFCURVE",
"78 258 OFFCURVE",
"78 172 CURVE SMOOTH",
"78 86 OFFCURVE",
"138 16 OFFCURVE",
"226 16 CURVE SMOOTH",
"324 16 OFFCURVE",
"380 75 OFFCURVE",
"380 153 CURVE SMOOTH",
"380 208 OFFCURVE",
"319 269 OFFCURVE",
"239 324 CURVE SMOOTH",
"191 357 LINE SMOOTH",
"99 420 OFFCURVE",
"54 462 OFFCURVE",
"54 563 CURVE SMOOTH",
"54 662 OFFCURVE",
"143 724 OFFCURVE",
"234 724 CURVE SMOOTH",
"335 724 OFFCURVE",
"389 657 OFFCURVE",
"389 575 CURVE SMOOTH",
"389 492 OFFCURVE",
"325 437 OFFCURVE",
"270 394 CURVE",
"246 409 LINE",
"289 443 OFFCURVE",
"361 500 OFFCURVE",
"361 566 CURVE SMOOTH",
"361 638 OFFCURVE",
"319 694 OFFCURVE",
"242 694 CURVE SMOOTH",
"165 694 OFFCURVE",
"122 647 OFFCURVE",
"122 587 CURVE SMOOTH",
"122 527 OFFCURVE",
"153 489 OFFCURVE",
"221 444 CURVE SMOOTH",
"271 411 LINE SMOOTH",
"356 355 OFFCURVE",
"440 283 OFFCURVE",
"440 195 CURVE SMOOTH",
"440 86 OFFCURVE",
"356 -14 OFFCURVE",
"236 -14 CURVE SMOOTH",
"116 -14 OFFCURVE",
"50 76 OFFCURVE",
"50 176 CURVE SMOOTH",
"50 276 OFFCURVE",
"127 325 OFFCURVE",
"187 371 CURVE"
);
}
);
width = 490;
},
{
associatedMasterId = "9372F035-DA38-4B54-966C-CEBA9B53DD02";
layerId = "E6B8952F-D64A-490A-9CF5-6DF985D88222";
name = "new Layer";
paths = (
{
closed = 1;
nodes = (
"273 362 LINE",
"191 308 OFFCURVE",
"96 253 OFFCURVE",
"61 158 CURVE SMOOTH",
"35 86 OFFCURVE",
"62 14 OFFCURVE",
"166 14 CURVE SMOOTH",
"248 14 OFFCURVE",
"329 64 OFFCURVE",
"361 153 CURVE SMOOTH",
"386 221 OFFCURVE",
"343 269 OFFCURVE",
"283 324 CURVE SMOOTH",
"222 382 LINE SMOOTH",
"178 423 OFFCURVE",
"153 477 OFFCURVE",
"185 563 CURVE SMOOTH",
"221 662 OFFCURVE",
"332 724 OFFCURVE",
"423 724 CURVE SMOOTH",
"524 724 OFFCURVE",
"554 657 OFFCURVE",
"526 580 CURVE SMOOTH",
"494 492 OFFCURVE",
"410 437 OFFCURVE",
"339 394 CURVE",
"325 409 LINE",
"380 443 OFFCURVE",
"469 500 OFFCURVE",
"496 575 CURVE SMOOTH",
"519 638 OFFCURVE",
"497 694 OFFCURVE",
"420 694 CURVE SMOOTH",
"351 694 OFFCURVE",
"283 647 OFFCURVE",
"259 580 CURVE SMOOTH",
"240 527 OFFCURVE",
"257 489 OFFCURVE",
"308 444 CURVE SMOOTH",
"369 389 LINE SMOOTH",
"429 336 OFFCURVE",
"465 272 OFFCURVE",
"433 186 CURVE SMOOTH",
"393 74 OFFCURVE",
"280 -14 OFFCURVE",
"156 -14 CURVE SMOOTH",
"25 -14 OFFCURVE",
"1 70 OFFCURVE",
"32 155 CURVE SMOOTH",
"72 263 OFFCURVE",
"169 319 OFFCURVE",
"252 375 CURVE"
);
}
);
width = 505;
}
);
unicode = 0038;
},
{
glyphname = nine;
lastChange = "2017-10-18 15:40:48 +0000";
layers = (
{
layerId = "9372F035-DA38-4B54-966C-CEBA9B53DD02";
paths = (
{
closed = 1;
nodes = (
"220 454 OFFCURVE",
"105 356 OFFCURVE",
"56 222 CURVE SMOOTH",
"7 88 OFFCURVE",
"50 -14 OFFCURVE",
"170 -14 CURVE SMOOTH",
"228 -14 OFFCURVE",
"285 20 OFFCURVE",
"331 72 CURVE",
"255 -131 OFFCURVE",
"153 -266 OFFCURVE",
"58 -266 CURVE SMOOTH",
"16 -266 OFFCURVE",
"32 -190 OFFCURVE",
"0 -190 CURVE SMOOTH",
"-19 -190 OFFCURVE",
"-47 -205 OFFCURVE",
"-55 -227 CURVE SMOOTH",
"-66 -255 OFFCURVE",
"-50 -290 OFFCURVE",
"40 -290 CURVE SMOOTH",
"190 -290 OFFCURVE",
"336 -148 OFFCURVE",
"442 142 CURVE SMOOTH",
"529 382 OFFCURVE",
"470 454 OFFCURVE",
"340 454 CURVE SMOOTH"
);
},
{
closed = 1;
nodes = (
"103 16 OFFCURVE",
"89 93 OFFCURVE",
"136 222 CURVE SMOOTH",
"183 351 OFFCURVE",
"251 424 OFFCURVE",
"329 424 CURVE SMOOTH",
"407 424 OFFCURVE",
"430 342 OFFCURVE",
"383 213 CURVE SMOOTH",
"336 84 OFFCURVE",
"259 16 OFFCURVE",
"181 16 CURVE SMOOTH"
);
}
);
width = 530;
},
{
associatedMasterId = "9372F035-DA38-4B54-966C-CEBA9B53DD02";
backgroundImage = {
crop = "{{1642.222, 1018.148}, {222.222, 366.667}}";
imagePath = "../../../../1878 Limprimerie Berger Levrault Notice historique/Romain/JACOB-notice-187532.jpg";
locked = "1";
transform = "{2.7, 0, 0, 2.7, -4459, -3029}";
};
layerId = "94346306-215A-4841-A0A6-E5DE18493020";
name = "Oct 16 17, 15:13";
paths = (
{
closed = 1;
nodes = (
"460 350 OFFCURVE",
"372 454 OFFCURVE",
"260 454 CURVE SMOOTH",
"148 454 OFFCURVE",
"60 345 OFFCURVE",
"60 222 CURVE SMOOTH",
"60 105 OFFCURVE",
"148 12 OFFCURVE",
"260 12 CURVE SMOOTH",
"372 12 OFFCURVE",
"410 95 OFFCURVE",
"410 212 CURVE",
"390 212 LINE",
"390 107 OFFCURVE",
"354 36 OFFCURVE",
"260 36 CURVE SMOOTH",
"166 36 OFFCURVE",
"130 117 OFFCURVE",
"130 222 CURVE SMOOTH",
"130 334 OFFCURVE",
"166 430 OFFCURVE",
"260 430 CURVE SMOOTH",
"354 430 OFFCURVE",
"390 329 OFFCURVE",
"390 222 CURVE SMOOTH",
"383 -9 OFFCURVE",
"361 -265 OFFCURVE",
"257 -265 CURVE SMOOTH",
"178 -265 OFFCURVE",
"161 -172 OFFCURVE",
"128 -172 CURVE SMOOTH",
"103 -172 OFFCURVE",
"87 -187 OFFCURVE",
"87 -216 CURVE SMOOTH",
"87 -254 OFFCURVE",
"169 -289 OFFCURVE",
"265 -289 CURVE SMOOTH",
"424 -289 OFFCURVE",
"460 -29 OFFCURVE",
"460 162 CURVE SMOOTH"
);
}
);
width = 520;
},
{
associatedMasterId = "9372F035-DA38-4B54-966C-CEBA9B53DD02";
layerId = "E6B8952F-D64A-490A-9CF5-6DF985D88222";
name = "new Layer";
paths = (
{
closed = 1;
nodes = (
"220 454 OFFCURVE",
"105 356 OFFCURVE",
"56 222 CURVE SMOOTH",
"7 88 OFFCURVE",
"50 -14 OFFCURVE",
"170 -14 CURVE SMOOTH",
"228 -14 OFFCURVE",
"285 20 OFFCURVE",
"331 72 CURVE",
"255 -131 OFFCURVE",
"153 -266 OFFCURVE",
"58 -266 CURVE SMOOTH",
"16 -266 OFFCURVE",
"32 -190 OFFCURVE",
"0 -190 CURVE SMOOTH",
"-19 -190 OFFCURVE",
"-47 -205 OFFCURVE",
"-55 -227 CURVE SMOOTH",
"-66 -255 OFFCURVE",
"-50 -290 OFFCURVE",
"40 -290 CURVE SMOOTH",
"190 -290 OFFCURVE",
"336 -148 OFFCURVE",
"442 142 CURVE SMOOTH",
"529 382 OFFCURVE",
"470 454 OFFCURVE",
"340 454 CURVE SMOOTH"
);
},
{
closed = 1;
nodes = (
"103 16 OFFCURVE",
"89 93 OFFCURVE",
"136 222 CURVE SMOOTH",
"183 351 OFFCURVE",
"251 424 OFFCURVE",
"329 424 CURVE SMOOTH",
"407 424 OFFCURVE",
"430 342 OFFCURVE",
"383 213 CURVE SMOOTH",
"336 84 OFFCURVE",
"259 16 OFFCURVE",
"181 16 CURVE SMOOTH"
);
}
);
width = 530;
}
);
unicode = 0039;
},
{
glyphname = colon;
lastChange = "2017-10-18 15:41:24 +0000";
layers = (
{
layerId = "9372F035-DA38-4B54-966C-CEBA9B53DD02";
paths = (
{
closed = 1;
nodes = (
"98 -9 OFFCURVE",
"145 25 OFFCURVE",
"160 68 CURVE SMOOTH",
"175 110 OFFCURVE",
"154 144 OFFCURVE",
"112 144 CURVE SMOOTH",
"69 144 OFFCURVE",
"23 110 OFFCURVE",
"7 68 CURVE SMOOTH",
"-9 25 OFFCURVE",
"13 -9 OFFCURVE",
"56 -9 CURVE SMOOTH"
);
},
{
closed = 1;
nodes = (
"205 288 OFFCURVE",
"252 322 OFFCURVE",
"267 365 CURVE SMOOTH",
"282 407 OFFCURVE",
"261 441 OFFCURVE",
"219 441 CURVE SMOOTH",
"176 441 OFFCURVE",
"130 407 OFFCURVE",
"114 365 CURVE SMOOTH",
"98 322 OFFCURVE",
"120 288 OFFCURVE",
"163 288 CURVE SMOOTH"
);
}
);
width = 274;
},
{
associatedMasterId = "9372F035-DA38-4B54-966C-CEBA9B53DD02";
layerId = "E6B8952F-D64A-490A-9CF5-6DF985D88222";
name = "new Layer";
paths = (
{
closed = 1;
nodes = (
"98 -9 OFFCURVE",
"145 25 OFFCURVE",
"160 68 CURVE SMOOTH",
"175 110 OFFCURVE",
"154 144 OFFCURVE",
"112 144 CURVE SMOOTH",
"69 144 OFFCURVE",
"23 110 OFFCURVE",
"7 68 CURVE SMOOTH",
"-9 25 OFFCURVE",
"13 -9 OFFCURVE",
"56 -9 CURVE SMOOTH"
);
},
{
closed = 1;
nodes = (
"205 288 OFFCURVE",
"252 322 OFFCURVE",
"267 365 CURVE SMOOTH",
"282 407 OFFCURVE",
"261 441 OFFCURVE",
"219 441 CURVE SMOOTH",
"176 441 OFFCURVE",
"130 407 OFFCURVE",
"114 365 CURVE SMOOTH",
"98 322 OFFCURVE",
"120 288 OFFCURVE",
"163 288 CURVE SMOOTH"
);
}
);
width = 275;
}
);
leftMetricsKey = "=period";
rightMetricsKey = "=period";
unicode = 003A;
},
{
glyphname = comma;
lastChange = "2017-10-18 15:40:48 +0000";
layers = (
{
layerId = "9372F035-DA38-4B54-966C-CEBA9B53DD02";
paths = (
{
closed = 1;
nodes = (
"104 121 LINE",
"144 121 OFFCURVE",
"167 84 OFFCURVE",
"136 0 CURVE SMOOTH",
"105 -86 OFFCURVE",
"26 -154 OFFCURVE",
"-56 -194 CURVE",
"-50 -217 LINE",
"46 -166 OFFCURVE",
"128 -107 OFFCURVE",
"168 3 CURVE SMOOTH",
"201 93 OFFCURVE",
"181 150 OFFCURVE",
"115 150 CURVE"
);
},
{
closed = 1;
nodes = (
"101 -10 OFFCURVE",
"144 36 OFFCURVE",
"163 90 CURVE SMOOTH",
"176 124 OFFCURVE",
"159 150 OFFCURVE",
"115 150 CURVE SMOOTH",
"71 150 OFFCURVE",
"22 114 OFFCURVE",
"6 70 CURVE SMOOTH",
"-10 26 OFFCURVE",
"13 -10 OFFCURVE",
"57 -10 CURVE SMOOTH"
);
}
);
width = 306;
},
{
associatedMasterId = "9372F035-DA38-4B54-966C-CEBA9B53DD02";
layerId = "E6B8952F-D64A-490A-9CF5-6DF985D88222";
name = "new Layer";
paths = (
{
closed = 1;
nodes = (
"104 121 LINE",
"144 121 OFFCURVE",
"167 84 OFFCURVE",
"136 0 CURVE SMOOTH",
"105 -86 OFFCURVE",
"26 -154 OFFCURVE",
"-56 -194 CURVE",
"-50 -217 LINE",
"46 -166 OFFCURVE",
"128 -107 OFFCURVE",
"168 3 CURVE SMOOTH",
"201 93 OFFCURVE",
"181 150 OFFCURVE",
"115 150 CURVE"
);
},
{
closed = 1;
nodes = (
"101 -10 OFFCURVE",
"144 36 OFFCURVE",
"163 90 CURVE SMOOTH",
"176 124 OFFCURVE",
"159 150 OFFCURVE",
"115 150 CURVE SMOOTH",
"71 150 OFFCURVE",
"22 114 OFFCURVE",
"6 70 CURVE SMOOTH",
"-10 26 OFFCURVE",
"13 -10 OFFCURVE",
"57 -10 CURVE SMOOTH"
);
}
);
width = 306;
},
{
associatedMasterId = "9372F035-DA38-4B54-966C-CEBA9B53DD02";
layerId = "E4EAE8CE-D36E-4A68-919C-EE4DB6C6ACB9";
name = "Oct 17 17, 16:54";
paths = (
{
closed = 1;
nodes = (
"104 121 LINE",
"144 121 OFFCURVE",
"170 84 OFFCURVE",
"139 0 CURVE SMOOTH",
"108 -86 OFFCURVE",
"29 -156 OFFCURVE",
"-53 -196 CURVE",
"-50 -217 LINE",
"46 -166 OFFCURVE",
"127 -107 OFFCURVE",
"167 3 CURVE SMOOTH",
"200 93 OFFCURVE",
"181 150 OFFCURVE",
"115 150 CURVE"
);
},
{
closed = 1;
nodes = (
"101 -10 OFFCURVE",
"144 36 OFFCURVE",
"163 90 CURVE SMOOTH",
"176 124 OFFCURVE",
"159 150 OFFCURVE",
"115 150 CURVE SMOOTH",
"71 150 OFFCURVE",
"22 114 OFFCURVE",
"6 70 CURVE SMOOTH",
"-10 26 OFFCURVE",
"13 -10 OFFCURVE",
"57 -10 CURVE SMOOTH"
);
}
);
width = 305;
}
);
leftMetricsKey = "=period";
rightMetricsKey = "=period";
unicode = 002C;
},
{
glyphname = exclam;
lastChange = "2017-10-18 15:40:48 +0000";
layers = (
{
layerId = "9372F035-DA38-4B54-966C-CEBA9B53DD02";
paths = (
{
closed = 1;
nodes = (
"74 -14 OFFCURVE",
"114 15 OFFCURVE",
"127 50 CURVE SMOOTH",
"140 85 OFFCURVE",
"121 114 OFFCURVE",
"86 114 CURVE SMOOTH",
"51 114 OFFCURVE",
"11 85 OFFCURVE",
"-1 50 CURVE SMOOTH",
"-13 15 OFFCURVE",
"4 -14 OFFCURVE",
"39 -14 CURVE SMOOTH"
);
},
{
closed = 1;
nodes = (
"131 199 LINE",
"340 660 LINE",
"356 700 OFFCURVE",
"332 724 OFFCURVE",
"308 724 CURVE SMOOTH",
"284 724 OFFCURVE",
"242 700 OFFCURVE",
"230 660 CURVE",
"103 199 LINE"
);
}
);
width = 248;
},
{
associatedMasterId = "9372F035-DA38-4B54-966C-CEBA9B53DD02";
backgroundImage = {
crop = "{{1855.556, 791.481}, {222.222, 366.667}}";
imagePath = "../../1878 Limprimerie Berger Levrault Notice historique/Romain/JACOB-notice-187529.jpg";
locked = "1";
transform = "{2.7, 0, 0, 2.7, -4986, -2417}";
};
layerId = "C3073120-921F-4828-B3BA-FA4BD898FD57";
name = "Oct 17 17, 13:43";
paths = (
{
closed = 1;
nodes = (
"69 656 LINE",
"67 696 OFFCURVE",
"100 720 OFFCURVE",
"124 720 CURVE SMOOTH",
"148 720 OFFCURVE",
"181 696 OFFCURVE",
"179 656 CURVE",
"136 179 LINE",
"112 179 LINE"
);
},
{
closed = 1;
nodes = (
"159.2 -8 OFFCURVE",
"188 20.8 OFFCURVE",
"188 56 CURVE SMOOTH",
"188 91.2 OFFCURVE",
"159.2 120 OFFCURVE",
"124 120 CURVE SMOOTH",
"88.8 120 OFFCURVE",
"60 91.2 OFFCURVE",
"60 56 CURVE SMOOTH",
"60 20.8 OFFCURVE",
"88.8 -8 OFFCURVE",
"124 -8 CURVE SMOOTH"
);
}
);
width = 248;
},
{
associatedMasterId = "9372F035-DA38-4B54-966C-CEBA9B53DD02";
layerId = "E6B8952F-D64A-490A-9CF5-6DF985D88222";
name = "new Layer";
paths = (
{
closed = 1;
nodes = (
"74 -14 OFFCURVE",
"114 15 OFFCURVE",
"127 50 CURVE SMOOTH",
"140 85 OFFCURVE",
"121 114 OFFCURVE",
"86 114 CURVE SMOOTH",
"51 114 OFFCURVE",
"11 85 OFFCURVE",
"-1 50 CURVE SMOOTH",
"-13 15 OFFCURVE",
"4 -14 OFFCURVE",
"39 -14 CURVE SMOOTH"
);
},
{
closed = 1;
nodes = (
"131 199 LINE",
"340 660 LINE",
"356 700 OFFCURVE",
"332 724 OFFCURVE",
"308 724 CURVE SMOOTH",
"284 724 OFFCURVE",
"242 700 OFFCURVE",
"230 660 CURVE",
"103 199 LINE"
);
}
);
width = 248;
}
);
leftMetricsKey = period;
rightMetricsKey = "=period";
unicode = 0021;
},
{
glyphname = period;
lastChange = "2017-10-18 15:40:48 +0000";
layers = (
{
layerId = "9372F035-DA38-4B54-966C-CEBA9B53DD02";
paths = (
{
closed = 1;
nodes = (
"101 -10 OFFCURVE",
"150 26 OFFCURVE",
"166 70 CURVE SMOOTH",
"182 114 OFFCURVE",
"159 150 OFFCURVE",
"115 150 CURVE SMOOTH",
"71 150 OFFCURVE",
"22 114 OFFCURVE",
"6 70 CURVE SMOOTH",
"-10 26 OFFCURVE",
"13 -10 OFFCURVE",
"57 -10 CURVE SMOOTH"
);
}
);
width = 280;
},
{
associatedMasterId = "9372F035-DA38-4B54-966C-CEBA9B53DD02";
layerId = "E6B8952F-D64A-490A-9CF5-6DF985D88222";
name = "new Layer";
paths = (
{
closed = 1;
nodes = (
"101 -10 OFFCURVE",
"150 26 OFFCURVE",
"166 70 CURVE SMOOTH",
"182 114 OFFCURVE",
"159 150 OFFCURVE",
"115 150 CURVE SMOOTH",
"71 150 OFFCURVE",
"22 114 OFFCURVE",
"6 70 CURVE SMOOTH",
"-10 26 OFFCURVE",
"13 -10 OFFCURVE",
"57 -10 CURVE SMOOTH"
);
}
);
width = 280;
}
);
unicode = 002E;
},
{
glyphname = question;
lastChange = "2017-10-18 15:40:48 +0000";
layers = (
{
layerId = "9372F035-DA38-4B54-966C-CEBA9B53DD02";
paths = (
{
closed = 1;
nodes = (
"120 -15 OFFCURVE",
"160 14 OFFCURVE",
"172 49 CURVE SMOOTH",
"184 84 OFFCURVE",
"167 113 OFFCURVE",
"132 113 CURVE SMOOTH",
"97 113 OFFCURVE",
"57 84 OFFCURVE",
"44 49 CURVE SMOOTH",
"31 14 OFFCURVE",
"50 -15 OFFCURVE",
"85 -15 CURVE SMOOTH"
);
},
{
closed = 1;
nodes = (
"180 467 LINE",
"109 214 LINE",
"102 188 OFFCURVE",
"120 175 OFFCURVE",
"137 176 CURVE SMOOTH",
"153 177 OFFCURVE",
"179 196 OFFCURVE",
"184 221 CURVE",
"205 468 LINE"
);
},
{
closed = 1;
nodes = (
"462 698 OFFCURVE",
"469 641 OFFCURVE",
"432 540 CURVE SMOOTH",
"398 447 OFFCURVE",
"357 381 OFFCURVE",
"293 381 CURVE SMOOTH",
"217 381 OFFCURVE",
"202 415 OFFCURVE",
"205 468 CURVE",
"180 467 LINE",
"163 408 OFFCURVE",
"202 354 OFFCURVE",
"285 354 CURVE SMOOTH",
"375 354 OFFCURVE",
"472 430 OFFCURVE",
"512 540 CURVE SMOOTH",
"553 652 OFFCURVE",
"485 724 OFFCURVE",
"394 724 CURVE SMOOTH",
"321 724 OFFCURVE",
"234 693 OFFCURVE",
"214 640 CURVE SMOOTH",
"202 609 OFFCURVE",
"219 591 OFFCURVE",
"246 591 CURVE SMOOTH",
"271 591 OFFCURVE",
"297 612 OFFCURVE",
"306 637 CURVE SMOOTH",
"313 657 OFFCURVE",
"308 665 OFFCURVE",
"312 676 CURVE SMOOTH",
"319 696 OFFCURVE",
"352 698 OFFCURVE",
"387 698 CURVE SMOOTH"
);
}
);
width = 455;
},
{
associatedMasterId = "9372F035-DA38-4B54-966C-CEBA9B53DD02";
layerId = "E6B8952F-D64A-490A-9CF5-6DF985D88222";
name = "new Layer";
paths = (
{
closed = 1;
nodes = (
"120 -15 OFFCURVE",
"160 14 OFFCURVE",
"172 49 CURVE SMOOTH",
"184 84 OFFCURVE",
"167 113 OFFCURVE",
"132 113 CURVE SMOOTH",
"97 113 OFFCURVE",
"57 84 OFFCURVE",
"44 49 CURVE SMOOTH",
"31 14 OFFCURVE",
"50 -15 OFFCURVE",
"85 -15 CURVE SMOOTH"
);
},
{
closed = 1;
nodes = (
"180 467 LINE",
"109 214 LINE",
"102 188 OFFCURVE",
"120 175 OFFCURVE",
"137 176 CURVE SMOOTH",
"153 177 OFFCURVE",
"179 196 OFFCURVE",
"184 221 CURVE",
"205 468 LINE"
);
},
{
closed = 1;
nodes = (
"462 698 OFFCURVE",
"469 641 OFFCURVE",
"432 540 CURVE SMOOTH",
"398 447 OFFCURVE",
"357 381 OFFCURVE",
"293 381 CURVE SMOOTH",
"217 381 OFFCURVE",
"202 415 OFFCURVE",
"205 468 CURVE",
"180 467 LINE",
"163 408 OFFCURVE",
"202 354 OFFCURVE",
"285 354 CURVE SMOOTH",
"375 354 OFFCURVE",
"472 430 OFFCURVE",
"512 540 CURVE SMOOTH",
"553 652 OFFCURVE",
"485 724 OFFCURVE",
"394 724 CURVE SMOOTH",
"321 724 OFFCURVE",
"234 693 OFFCURVE",
"214 640 CURVE SMOOTH",
"202 609 OFFCURVE",
"219 591 OFFCURVE",
"246 591 CURVE SMOOTH",
"271 591 OFFCURVE",
"297 612 OFFCURVE",
"306 637 CURVE SMOOTH",
"313 657 OFFCURVE",
"308 665 OFFCURVE",
"312 676 CURVE SMOOTH",
"319 696 OFFCURVE",
"352 698 OFFCURVE",
"387 698 CURVE SMOOTH"
);
}
);
width = 455;
}
);
unicode = 003F;
},
{
glyphname = parenleft;
lastChange = "2017-10-18 15:40:48 +0000";
layers = (
{
guideLines = (
{
angle = 70;
position = "{-63, -280}";
},
{
angle = 70;
position = "{-141, -280}";
}
);
layerId = "9372F035-DA38-4B54-966C-CEBA9B53DD02";
paths = (
{
closed = 1;
nodes = (
"200 439 OFFCURVE",
"385 628 OFFCURVE",
"529 705 CURVE",
"545 741 LINE",
"364 661 OFFCURVE",
"147 509 OFFCURVE",
"52 249 CURVE SMOOTH",
"-43 -12 OFFCURVE",
"61 -202 OFFCURVE",
"162 -310 CURVE",
"173 -274 LINE",
"91 -166 OFFCURVE",
"60 58 OFFCURVE",
"130 249 CURVE SMOOTH"
);
}
);
width = 345;
},
{
associatedMasterId = "9372F035-DA38-4B54-966C-CEBA9B53DD02";
guideLines = (
{
angle = 70;
position = "{-63, -280}";
},
{
angle = 70;
position = "{-141, -280}";
}
);
layerId = "E6B8952F-D64A-490A-9CF5-6DF985D88222";
name = "new Layer";
paths = (
{
closed = 1;
nodes = (
"200 439 OFFCURVE",
"385 628 OFFCURVE",
"529 705 CURVE",
"545 741 LINE",
"364 661 OFFCURVE",
"147 509 OFFCURVE",
"52 249 CURVE SMOOTH",
"-43 -12 OFFCURVE",
"61 -202 OFFCURVE",
"162 -310 CURVE",
"173 -274 LINE",
"91 -166 OFFCURVE",
"60 58 OFFCURVE",
"130 249 CURVE SMOOTH"
);
}
);
width = 345;
}
);
unicode = 0028;
},
{
glyphname = guillemetleft;
lastChange = "2017-10-18 15:40:48 +0000";
layers = (
{
guideLines = (
{
angle = -110;
position = "{-39, 0}";
},
{
angle = -110;
position = "{16, 0}";
},
{
angle = 180;
position = "{-80, 37}";
},
{
angle = 180;
position = "{0, 400}";
},
{
angle = 180;
position = "{3, 370}";
},
{
angle = 180;
position = "{-60, 61}";
},
{
angle = 180;
position = "{-60, 220}";
},
{
angle = -110;
position = "{101, 0}";
},
{
angle = -110;
position = "{156, 0}";
}
);
layerId = "9372F035-DA38-4B54-966C-CEBA9B53DD02";
paths = (
{
closed = 1;
nodes = (
"132 317 OFFCURVE",
"168 368 OFFCURVE",
"221 377 CURVE",
"217 400 LINE",
"127 384 OFFCURVE",
"78 319 OFFCURVE",
"45 230 CURVE SMOOTH",
"16 152 OFFCURVE",
"51 71 OFFCURVE",
"106 40 CURVE",
"125 60 LINE",
"84 87 OFFCURVE",
"74 158 OFFCURVE",
"100 230 CURVE SMOOTH"
);
},
{
closed = 1;
nodes = (
"272 317 OFFCURVE",
"308 368 OFFCURVE",
"361 377 CURVE",
"357 400 LINE",
"267 384 OFFCURVE",
"218 319 OFFCURVE",
"185 230 CURVE SMOOTH",
"156 152 OFFCURVE",
"175 75 OFFCURVE",
"246 40 CURVE",
"265 60 LINE",
"208 91 OFFCURVE",
"214 158 OFFCURVE",
"240 230 CURVE SMOOTH"
);
}
);
width = 368;
},
{
associatedMasterId = "9372F035-DA38-4B54-966C-CEBA9B53DD02";
guideLines = (
{
angle = -110;
position = "{-39, 0}";
},
{
angle = -110;
position = "{16, 0}";
},
{
angle = 180;
position = "{-80, 37}";
},
{
angle = 180;
position = "{0, 400}";
},
{
angle = 180;
position = "{3, 370}";
},
{
angle = 180;
position = "{-60, 61}";
},
{
angle = 180;
position = "{-60, 220}";
},
{
angle = -110;
position = "{101, 0}";
},
{
angle = -110;
position = "{156, 0}";
}
);
layerId = "E6B8952F-D64A-490A-9CF5-6DF985D88222";
name = "new Layer";
paths = (
{
closed = 1;
nodes = (
"132 317 OFFCURVE",
"168 368 OFFCURVE",
"221 377 CURVE",
"217 400 LINE",
"127 384 OFFCURVE",
"78 319 OFFCURVE",
"45 230 CURVE SMOOTH",
"16 152 OFFCURVE",
"51 71 OFFCURVE",
"106 40 CURVE",
"125 60 LINE",
"84 87 OFFCURVE",
"74 158 OFFCURVE",
"100 230 CURVE SMOOTH"
);
},
{
closed = 1;
nodes = (
"272 317 OFFCURVE",
"308 368 OFFCURVE",
"361 377 CURVE",
"357 400 LINE",
"267 384 OFFCURVE",
"218 319 OFFCURVE",
"185 230 CURVE SMOOTH",
"156 152 OFFCURVE",
"175 75 OFFCURVE",
"246 40 CURVE",
"265 60 LINE",
"208 91 OFFCURVE",
"214 158 OFFCURVE",
"240 230 CURVE SMOOTH"
);
}
);
width = 368;
},
{
associatedMasterId = "9372F035-DA38-4B54-966C-CEBA9B53DD02";
guideLines = (
{
angle = -110;
position = "{178, 218}";
}
);
layerId = "5DB8CADD-BD29-4EA8-833D-FBECD286626B";
name = "Oct 17 17, 16:41";
paths = (
{
closed = 1;
nodes = (
"261 289 OFFCURVE",
"308 350 OFFCURVE",
"383 369 CURVE",
"384 399 LINE",
"287 378 OFFCURVE",
"213 307 OFFCURVE",
"180 218 CURVE SMOOTH",
"148 130 OFFCURVE",
"171 58 OFFCURVE",
"252 37 CURVE",
"273 67 LINE",
"212 86 OFFCURVE",
"209 147 OFFCURVE",
"235 218 CURVE SMOOTH"
);
},
{
closed = 1;
nodes = (
"121 289 OFFCURVE",
"168 350 OFFCURVE",
"243 369 CURVE",
"244 399 LINE",
"147 378 OFFCURVE",
"72 306 OFFCURVE",
"40 218 CURVE SMOOTH",
"8 130 OFFCURVE",
"31 58 OFFCURVE",
"112 37 CURVE",
"133 67 LINE",
"72 85 OFFCURVE",
"69 146 OFFCURVE",
"95 218 CURVE SMOOTH"
);
}
);
width = 368;
}
);
unicode = 00AB;
},
{
glyphname = quoteright;
lastChange = "2017-10-18 15:40:48 +0000";
layers = (
{
layerId = "9372F035-DA38-4B54-966C-CEBA9B53DD02";
paths = (
{
closed = 1;
nodes = (
"277 698 LINE",
"308 698 OFFCURVE",
"327 669 OFFCURVE",
"304 604 CURVE SMOOTH",
"279 537 OFFCURVE",
"216 489 OFFCURVE",
"153 458 CURVE",
"158 436 LINE",
"232 475 OFFCURVE",
"304 522 OFFCURVE",
"335 607 CURVE SMOOTH",
"360 677 OFFCURVE",
"336 720 OFFCURVE",
"285 720 CURVE"
);
},
{
closed = 1;
nodes = (
"268 590 OFFCURVE",
"304 623 OFFCURVE",
"322 673 CURVE SMOOTH",
"332 701 OFFCURVE",
"317 720 OFFCURVE",
"285 720 CURVE SMOOTH",
"244 720 OFFCURVE",
"207 693 OFFCURVE",
"192 652 CURVE SMOOTH",
"179 615 OFFCURVE",
"195 590 OFFCURVE",
"232 590 CURVE SMOOTH"
);
}
);
width = 225;
},
{
associatedMasterId = "9372F035-DA38-4B54-966C-CEBA9B53DD02";
layerId = "E6B8952F-D64A-490A-9CF5-6DF985D88222";
name = "new Layer";
paths = (
{
closed = 1;
nodes = (
"277 698 LINE",
"308 698 OFFCURVE",
"327 669 OFFCURVE",
"304 604 CURVE SMOOTH",
"279 537 OFFCURVE",
"216 489 OFFCURVE",
"153 458 CURVE",
"158 436 LINE",
"232 475 OFFCURVE",
"304 522 OFFCURVE",
"335 607 CURVE SMOOTH",
"360 677 OFFCURVE",
"336 720 OFFCURVE",
"285 720 CURVE"
);
},
{
closed = 1;
nodes = (
"268 590 OFFCURVE",
"304 623 OFFCURVE",
"322 673 CURVE SMOOTH",
"332 701 OFFCURVE",
"317 720 OFFCURVE",
"285 720 CURVE SMOOTH",
"244 720 OFFCURVE",
"207 693 OFFCURVE",
"192 652 CURVE SMOOTH",
"179 615 OFFCURVE",
"195 590 OFFCURVE",
"232 590 CURVE SMOOTH"
);
}
);
width = 225;
}
);
unicode = 2019;
},
{
glyphname = dotaccentcomb;
lastChange = "2017-10-17 09:08:23 +0000";
layers = (
{
anchors = (
{
name = _top;
position = "{219, 440}";
}
);
layerId = "9372F035-DA38-4B54-966C-CEBA9B53DD02";
paths = (
{
closed = 1;
nodes = (
"280 572 OFFCURVE",
"310 599 OFFCURVE",
"316 632 CURVE SMOOTH",
"322 664 OFFCURVE",
"300 691 OFFCURVE",
"267 691 CURVE SMOOTH",
"234 691 OFFCURVE",
"204 664 OFFCURVE",
"198 632 CURVE SMOOTH",
"192 599 OFFCURVE",
"214 572 OFFCURVE",
"247 572 CURVE SMOOTH"
);
}
);
width = 294;
}
);
unicode = 0307;
},
{
export = 0;
glyphname = "_part-adq";
lastChange = "2017-10-16 16:20:03 +0000";
layers = (
{
layerId = "9372F035-DA38-4B54-966C-CEBA9B53DD02";
paths = (
{
closed = 1;
nodes = (
"351 103 OFFCURVE",
"277 12 OFFCURVE",
"196 12 CURVE SMOOTH",
"154 12 OFFCURVE",
"128 44 OFFCURVE",
"128 107 CURVE SMOOTH",
"128 242 OFFCURVE",
"244 428 OFFCURVE",
"349 428 CURVE SMOOTH",
"422 428 OFFCURVE",
"434 336 OFFCURVE",
"398 234 CURVE SMOOTH"
);
},
{
closed = 1;
nodes = (
"449 405 OFFCURVE",
"416 454 OFFCURVE",
"351 454 CURVE SMOOTH",
"213 454 OFFCURVE",
"51 296 OFFCURVE",
"51 135 CURVE SMOOTH",
"51 60 OFFCURVE",
"92 -14 OFFCURVE",
"191 -14 CURVE SMOOTH",
"270 -14 OFFCURVE",
"322 37 OFFCURVE",
"363 101 CURVE",
"449 322 LINE"
);
}
);
width = 594;
}
);
},
{
export = 0;
glyphname = "_part-ascendante";
lastChange = "2017-10-18 12:34:39 +0000";
layers = (
{
components = (
{
name = "_part-attaque-asc";
}
);
guideLines = (
{
angle = 69.9645;
position = "{172, 351}";
}
);
layerId = "9372F035-DA38-4B54-966C-CEBA9B53DD02";
paths = (
{
closed = 1;
nodes = (
"44 0 LINE",
"116 0 LINE",
"369 702 LINE",
"303 702 LINE"
);
}
);
width = 308;
},
{
associatedMasterId = "9372F035-DA38-4B54-966C-CEBA9B53DD02";
layerId = "8400EDB1-03E7-4FE2-9DE3-13A105F90EF5";
name = "Oct 16 17, 10:39";
paths = (
{
closed = 1;
nodes = (
"371 702 LINE",
"116 0 LINE",
"40 0 LINE",
"296 702 LINE"
);
},
{
closed = 1;
nodes = (
"259 600 LINE",
"291 693 OFFCURVE",
"247 686 OFFCURVE",
"200 686 CURVE",
"207 710 LINE",
"262 710 OFFCURVE",
"319 711 OFFCURVE",
"375 713 CURVE",
"338 612 LINE"
);
}
);
width = 308;
}
);
},
{
export = 0;
glyphname = "_part-attaque";
lastChange = "2017-10-13 12:45:14 +0000";
layers = (
{
guideLines = (
{
angle = 70;
position = "{247, 600}";
}
);
layerId = "9372F035-DA38-4B54-966C-CEBA9B53DD02";
paths = (
{
closed = 1;
nodes = (
"150 335 LINE",
"182 421 OFFCURVE",
"145 416 OFFCURVE",
"102 416 CURVE",
"102 440 LINE",
"157 440 OFFCURVE",
"191 443 OFFCURVE",
"246 448 CURVE",
"222 341 LINE"
);
}
);
width = 227;
}
);
},
{
export = 0;
glyphname = "_part-attaque-asc";
lastChange = "2017-10-16 15:55:34 +0000";
layers = (
{
guideLines = (
{
angle = 69.4118;
position = "{172, 351}";
}
);
layerId = "9372F035-DA38-4B54-966C-CEBA9B53DD02";
paths = (
{
closed = 1;
nodes = (
"336 612 LINE",
"373 713 LINE",
"211 710 LINE",
"204 686 LINE",
"254 686 OFFCURVE",
"301 693 OFFCURVE",
"266 601 CURVE"
);
}
);
width = 227;
},
{
associatedMasterId = "9372F035-DA38-4B54-966C-CEBA9B53DD02";
layerId = "BF77BDFC-AEB6-4EC2-AFB7-3A9478F945FC";
name = "Oct 16 17, 10:38";
paths = (
{
closed = 1;
nodes = (
"261 600 LINE",
"295 688 OFFCURVE",
"249 681 OFFCURVE",
"200 681 CURVE",
"207 705 LINE",
"262 705 OFFCURVE",
"319 708 OFFCURVE",
"375 713 CURVE",
"338 612 LINE"
);
}
);
width = 227;
}
);
},
{
export = 0;
glyphname = "_part-demiserif";
lastChange = "2017-10-17 14:51:08 +0000";
layers = (
{
layerId = "9372F035-DA38-4B54-966C-CEBA9B53DD02";
paths = (
{
closed = 1;
nodes = (
"257 618 LINE",
"276 673 OFFCURVE",
"266 679 OFFCURVE",
"197 686 CURVE SMOOTH",
"178 688 LINE",
"187 713 LINE",
"329 710 LINE",
"287 596 LINE"
);
}
);
width = 162;
}
);
},
{
export = 0;
glyphname = "_part-fut";
lastChange = "2017-10-16 12:54:31 +0000";
layers = (
{
layerId = "9372F035-DA38-4B54-966C-CEBA9B53DD02";
paths = (
{
closed = 1;
nodes = (
"97 440 LINE",
"89 416 LINE",
"138 416 OFFCURVE",
"175 421 OFFCURVE",
"147 344 CURVE SMOOTH",
"23 0 LINE",
"95 0 LINE",
"218 340 LINE",
"214 342 LINE",
"244 443 LINE"
);
}
);
width = 298;
},
{
associatedMasterId = "9372F035-DA38-4B54-966C-CEBA9B53DD02";
layerId = "F1EBFAC4-FE25-45D5-B735-B45FDD33121E";
name = "Oct 16 17, 10:39";
paths = (
{
closed = 1;
nodes = (
"223 342 LINE",
"227 340 LINE",
"104 0 LINE",
"28 0 LINE",
"154 345 LINE SMOOTH",
"184 421 OFFCURVE",
"143 416 OFFCURVE",
"94 416 CURVE",
"102 440 LINE",
"157 440 OFFCURVE",
"199 443 OFFCURVE",
"254 448 CURVE"
);
}
);
width = 308;
}
);
},
{
export = 0;
glyphname = "_part-jambage";
lastChange = "2017-10-17 08:37:57 +0000";
layers = (
{
background = {
paths = (
{
closed = 1;
nodes = (
"473 55 OFFCURVE",
"442 19 OFFCURVE",
"412 19 CURVE SMOOTH",
"394 19 OFFCURVE",
"392 36 OFFCURVE",
"404 70 CURVE SMOOTH",
"539 440 LINE",
"469 440 LINE",
"338 88 LINE SMOOTH",
"319 36 OFFCURVE",
"325 -14 OFFCURVE",
"394 -14 CURVE SMOOTH",
"443 -14 OFFCURVE",
"475 21 OFFCURVE",
"533 89 CURVE",
"515 105 LINE"
);
}
);
};
guideLines = (
{
angle = 70;
position = "{507, 545}";
},
{
angle = 70;
position = "{579, 539}";
}
);
layerId = "9372F035-DA38-4B54-966C-CEBA9B53DD02";
paths = (
{
closed = 1;
nodes = (
"476 55 OFFCURVE",
"445 19 OFFCURVE",
"416 19 CURVE SMOOTH",
"397 19 OFFCURVE",
"395 41 OFFCURVE",
"409 80 CURVE SMOOTH",
"499 331 LINE SMOOTH",
"521 394 OFFCURVE",
"519 454 OFFCURVE",
"423 454 CURVE SMOOTH",
"299 454 OFFCURVE",
"208 323 OFFCURVE",
"183 255 CURVE",
"206 257 LINE",
"233 329 OFFCURVE",
"328 429 OFFCURVE",
"404 429 CURVE SMOOTH",
"433 429 OFFCURVE",
"454 407 OFFCURVE",
"435 356 CURVE SMOOTH",
"348 110 LINE SMOOTH",
"325 44 OFFCURVE",
"322 -14 OFFCURVE",
"389 -14 CURVE SMOOTH",
"446 -14 OFFCURVE",
"486 31 OFFCURVE",
"511 72 CURVE",
"493 84 LINE"
);
}
);
userData = {
PartSelection = {
Bold = 1;
};
};
width = 600;
},
{
associatedMasterId = "9372F035-DA38-4B54-966C-CEBA9B53DD02";
layerId = "0A006F23-EE7B-46D5-AD5F-5329B57B676C";
name = Bold;
paths = (
{
closed = 1;
nodes = (
"166 367 OFFCURVE",
"236 453 OFFCURVE",
"344 453 CURVE SMOOTH",
"476 453 OFFCURVE",
"506 396 OFFCURVE",
"506 289 CURVE SMOOTH",
"506 0 LINE",
"450 0 LINE",
"384 0 OFFCURVE",
"352 -3 OFFCURVE",
"313 -3 CURVE",
"311 -3 OFFCURVE",
"310 -2 OFFCURVE",
"310 0 CURVE",
"310 12 LINE",
"310 14 OFFCURVE",
"311 15 OFFCURVE",
"313 15 CURVE",
"346 19 LINE",
"393 25 OFFCURVE",
"398 47 OFFCURVE",
"398 98 CURVE",
"398 318 LINE SMOOTH",
"398 379 OFFCURVE",
"366 404 OFFCURVE",
"324 404 CURVE SMOOTH",
"248 404 OFFCURVE",
"184 350 OFFCURVE",
"184 266 CURVE",
"166 271 LINE"
);
}
);
userData = {
PartSelection = {
Bold = 2;
};
};
width = 600;
}
);
partsSettings = (
{
name = Bold;
bottomName = Low;
bottomValue = 0;
topName = High;
topValue = 100;
}
);
},
{
export = 0;
glyphname = "_part-jambage-2";
lastChange = "2017-10-17 08:42:16 +0000";
layers = (
{
guideLines = (
{
angle = 249.5863;
position = "{403, 286}";
},
{
angle = 69.8686;
position = "{468, 270}";
}
);
layerId = "9372F035-DA38-4B54-966C-CEBA9B53DD02";
paths = (
{
closed = 1;
nodes = (
"464 55 OFFCURVE",
"433 19 OFFCURVE",
"403 19 CURVE SMOOTH",
"385 19 OFFCURVE",
"383 36 OFFCURVE",
"395 70 CURVE SMOOTH",
"526 440 LINE",
"460 440 LINE",
"329 88 LINE SMOOTH",
"310 36 OFFCURVE",
"316 -14 OFFCURVE",
"385 -14 CURVE SMOOTH",
"434 -14 OFFCURVE",
"466 21 OFFCURVE",
"524 89 CURVE",
"506 105 LINE"
);
}
);
width = 554;
},
{
associatedMasterId = "9372F035-DA38-4B54-966C-CEBA9B53DD02";
layerId = "9E3F15B2-7DC3-41AA-98AC-5196FAC15FDC";
name = "Oct 16 17, 10:36";
paths = (
{
closed = 1;
nodes = (
"528 93 LINE",
"470 25 OFFCURVE",
"438 -10 OFFCURVE",
"387 -10 CURVE SMOOTH",
"301 -10 OFFCURVE",
"312 54 OFFCURVE",
"342 135 CURVE SMOOTH",
"451 433 LINE",
"535 450 LINE",
"407 103 LINE SMOOTH",
"393 64 OFFCURVE",
"389 23 OFFCURVE",
"414 23 CURVE SMOOTH",
"437 23 OFFCURVE",
"468 59 OFFCURVE",
"510 109 CURVE"
);
}
);
width = 554;
}
);
},
{
export = 0;
glyphname = "_part-serif";
lastChange = "2017-10-17 15:05:34 +0000";
layers = (
{
background = {
components = (
{
name = H;
transform = "{1, 0, 0, 1, 146, 0}";
}
);
};
layerId = "9372F035-DA38-4B54-966C-CEBA9B53DD02";
paths = (
{
closed = 1;
nodes = (
"144 92 LINE",
"125 37 OFFCURVE",
"135 31 OFFCURVE",
"204 24 CURVE SMOOTH",
"223 22 LINE",
"214 -3 LINE",
"75 0 LINE",
"-70 -3 LINE",
"-61 22 LINE",
"-40 24 LINE SMOOTH",
"32 32 OFFCURVE",
"49 37 OFFCURVE",
"85 137 CURVE"
);
}
);
width = 309;
}
);
},
{
export = 0;
glyphname = "_part-serif2";
lastChange = "2017-10-17 13:36:00 +0000";
layers = (
{
background = {
components = (
{
name = H;
transform = "{1, 0, 0, 1, 146, 0}";
}
);
};
layerId = "9372F035-DA38-4B54-966C-CEBA9B53DD02";
paths = (
{
closed = 1;
nodes = (
"133 92 LINE",
"113 37 OFFCURVE",
"129 33 OFFCURVE",
"194 26 CURVE SMOOTH",
"213 24 LINE",
"204 -1 LINE",
"86 2 LINE",
"-37 -1 LINE",
"-28 24 LINE",
"-7 26 LINE SMOOTH",
"63 33 OFFCURVE",
"81 38 OFFCURVE",
"111 118 CURVE"
);
}
);
width = 309;
}
);
},
{
export = 0;
glyphname = "_part-sortie";
lastChange = "2017-10-13 11:53:54 +0000";
layers = (
{
layerId = "9372F035-DA38-4B54-966C-CEBA9B53DD02";
paths = (
{
closed = 1;
nodes = (
"413 83 LINE",
"408 71 OFFCURVE",
"405 59 OFFCURVE",
"405 50 CURVE SMOOTH",
"405 34 OFFCURVE",
"412 23 OFFCURVE",
"428 23 CURVE SMOOTH",
"454 23 OFFCURVE",
"491 54 OFFCURVE",
"510 73 CURVE",
"526 56 LINE",
"493 20 OFFCURVE",
"455 -10 OFFCURVE",
"400 -10 CURVE SMOOTH",
"353 -10 OFFCURVE",
"336 14 OFFCURVE",
"336 45 CURVE SMOOTH",
"336 60 OFFCURVE",
"343 98 OFFCURVE",
"366 158 CURVE"
);
}
);
width = 600;
}
);
},
{
export = 0;
glyphname = "_part-sortie-2";
lastChange = "2017-10-17 08:39:46 +0000";
layers = (
{
background = {
paths = (
{
closed = 1;
nodes = (
"464 55 OFFCURVE",
"433 19 OFFCURVE",
"403 19 CURVE SMOOTH",
"385 19 OFFCURVE",
"383 36 OFFCURVE",
"395 70 CURVE SMOOTH",
"530 440 LINE",
"460 440 LINE",
"329 88 LINE SMOOTH",
"310 36 OFFCURVE",
"316 -14 OFFCURVE",
"385 -14 CURVE SMOOTH",
"434 -14 OFFCURVE",
"466 21 OFFCURVE",
"524 89 CURVE",
"506 105 LINE"
);
}
